<?xml version="1.0" encoding="utf-8"?>
<!-- Generator: Adobe Illustrator 24.1.1, SVG Export Plug-In . SVG Version: 6.00 Build 0)  -->
<svg version="1.1" id="Layer_1" xmlns="http://www.w3.org/2000/svg" xmlns:xlink="http://www.w3.org/1999/xlink" x="0px" y="0px"
	 viewBox="0 0 512 512" style="enable-background:new 0 0 512 512;" xml:space="preserve">
<g id="XMLID_1_">
	<path id="XMLID_3_" d="M456.8,131v213.7c0,28.8-13.9,45.5-24.2,57.6c-8.4,10.2-13,15.8-13,25.1v65c0,10.2-8.4,18.6-18.6,18.6
		s-18.6-8.4-18.6-18.6v-65c0-23.2,12.1-37.2,21.4-48.3c9.3-11.2,15.8-19.5,15.8-34.4V131c0-11.2-10.2-22.3-20.4-22.3
		c-12.1,0-14.9,1.9-14.9,1.9c-2.8,3.7-2.8,20.4-1.9,35.3c0,6.5,0,14.9,0,23.2c0,10.2-7.4,17.7-18.6,17.7c-10.2,0-18.6-8.4-18.6-18.6
		V91.1c0-11.2-8.4-19.5-18.6-19.5S310,79,309.1,89.2v73.4c0,10.2-8.4,18.6-18.6,18.6c-10.2,0-18.6-8.4-18.6-18.6V88.3l0,0V60.4
		c0-2.8-0.9-23.2-17.7-23.2c-16.7,0-18.6,14.9-18.6,23.2v26l0.9,1.9v94.8c0,10.2-8.4,18.6-18.6,18.6c-10.2,0-18.6-8.4-18.6-18.6
		V85.5c-1.9-7.4-6.5-13.9-16.7-13.9s-19.5,9.3-19.5,20.4v122.7v0.9v40c0,10.2-8.4,18.6-18.6,18.6c-10.2,0-18.6-8.4-18.6-18.6v-30.7
		c-6.5-2.8-15.8-4.6-21.4-2.8c-4.6,0.9-8.4,4.6-11.2,10.2c-1.9,3.7-4.6,13,0,23.2l62.3,135.7l0.9,3.7c1.9,10.2,11.2,16.7,21.4,15.8
		c4.6-0.9,10.2,0.9,13.9,4.6c3.7,3.7,6.5,8.4,6.5,13.9v64.1c0,10.2-8.4,18.6-18.6,18.6s-18.6-8.4-18.6-18.6V446
		c-19.5-4.6-35.3-20.4-40.9-40.9L61,270.4c-8.4-18.6-7.4-38.1,0.9-54.8c7.4-14.9,21.4-26,36.2-28.8c7.4-1.9,17.7-0.9,28.8,0.9v-26
		v-0.9V92.9c0-31.6,25.1-57.6,55.8-57.6c7.4,0,13.9,1.9,20.4,3.7c7.4-23.2,26.9-39,52-39c24.2,0,43.7,15.8,51.1,39
		c6.5-2.8,13.9-4.6,21.4-4.6c25.1,0,46.5,15.8,53,39c6.5-1.9,13.9-1.9,19.5-1.9C431.7,71.5,456.8,98.5,456.8,131z"/>
</g>
</svg>
