<?xml version="1.0" encoding="UTF-8" standalone="no"?>
<svg
   xmlns:dc="http://purl.org/dc/elements/1.1/"
   xmlns:cc="http://creativecommons.org/ns#"
   xmlns:rdf="http://www.w3.org/1999/02/22-rdf-syntax-ns#"
   xmlns:svg="http://www.w3.org/2000/svg"
   xmlns="http://www.w3.org/2000/svg"
   xmlns:xlink="http://www.w3.org/1999/xlink"
   xmlns:sodipodi="http://sodipodi.sourceforge.net/DTD/sodipodi-0.dtd"
   xmlns:inkscape="http://www.inkscape.org/namespaces/inkscape"
   version="1.1"
   viewBox="0 0 685 520"
   font-family="DejaVu Sans, sans-serif"
   font-size="20"
   id="svg2159"
   sodipodi:docname="human_ear.svg"
   inkscape:version="1.0.2-2 (e86c870879, 2021-01-15)">
  <metadata
     id="metadata2163">
    <rdf:RDF>
      <cc:Work
         rdf:about="">
        <dc:format>image/svg+xml</dc:format>
        <dc:type
           rdf:resource="http://purl.org/dc/dcmitype/StillImage" />
      </cc:Work>
    </rdf:RDF>
  </metadata>
  <sodipodi:namedview
     pagecolor="#ffffff"
     bordercolor="#666666"
     borderopacity="1"
     objecttolerance="10"
     gridtolerance="10"
     guidetolerance="10"
     inkscape:pageopacity="0"
     inkscape:pageshadow="2"
     inkscape:window-width="1920"
     inkscape:window-height="1017"
     id="namedview2161"
     showgrid="false"
     inkscape:zoom="4.4982869"
     inkscape:cx="441.37032"
     inkscape:cy="390.97571"
     inkscape:window-x="1912"
     inkscape:window-y="-8"
     inkscape:window-maximized="1"
     inkscape:current-layer="svg2159"
     inkscape:document-rotation="0" />
  <title
     id="title1089">Anatomy of the Human Ear</title>
  <desc
     id="desc1091">Translations are included for Bangla, Basque, Chinese, Danish, English, Esperanto, Farsi, Finnish, French, German, Hebrew, Malayalam, Nepali, Punjabi, Russian, Spanish, Tamil, Telugu, Thai, Turkish. Other languages can easily be added.</desc>
  <defs
     id="defs1113">
    <linearGradient
       gradientTransform="matrix(1 0 0 .92286 100.75 41.36)"
       x1="629"
       x2="762.64"
       xlink:href="#b"
       y1="239.68"
       y2="241.42"
       id="a" />
    <linearGradient
       id="b"
       gradientUnits="userSpaceOnUse">
      <stop
         offset="0"
         stop-color="#edd400"
         id="stop1094" />
      <stop
         offset="1"
         stop-color="#edd400"
         stop-opacity="0"
         id="stop1096" />
    </linearGradient>
    <linearGradient
       id="c"
       gradientTransform="matrix(1 0 0 .92286 104.25 14.36)"
       x1="629"
       x2="762.64"
       xlink:href="#b"
       y1="239.68"
       y2="241.42" />
    <linearGradient
       id="d"
       gradientTransform="matrix(.83187 0 0 1 90.49 3.55)"
       gradientUnits="userSpaceOnUse"
       x1="321.73"
       x2="188.9"
       y1="313.69"
       y2="316.36">
      <stop
         offset="0"
         stop-color="#9fe859"
         id="stop1100" />
      <stop
         offset="1"
         stop-color="#9fe859"
         stop-opacity="0"
         id="stop1102" />
    </linearGradient>
    <linearGradient
       id="e"
       gradientTransform="matrix(.93767 0 0 1 35.6 3.55)"
       gradientUnits="userSpaceOnUse"
       x1="371.43"
       x2="187.14"
       y1="254.86"
       y2="-13.71">
      <stop
         offset="0"
         stop-color="#fce94f"
         id="stop1105" />
      <stop
         offset="1"
         stop-color="#fce94f"
         stop-opacity="0"
         id="stop1107" />
    </linearGradient>
    <marker
       id="dot"
       refX="5"
       refY="5"
       markerWidth="10"
       markerHeight="10">
      <circle
         cx="5"
         cy="5"
         r="1.5"
         id="circle1110" />
    </marker>
  </defs>
  <path
     d="m 164.36,16.603 21.799,-0.066 6.363,69.682 17.383,85.499 c 13.881,14.188 27.273,28.908 51.226,32.107 34.201,1.035 68.129,2.008 107.82,-6.278 0,0 29.038,-13.183 42.599,-21.492 14.395,-8.82 24.106,-27.842 40.859,-29.927 10.706,-1.332 13.583,-4.948 32.896,-0.46 23.551,5.473 30.65,24.955 51.601,36.486 29.995,16.508 54.341,16.555 85.428,21.763 l 6.197,33.222 3.96,39.551 0.461,53.971 -86.491,75.459 -30.654,29.478 -53.878,52.183 -3.474,-103.647 c 0,0 -45.94611,-22.61677 -59.26011,-12.27677 -20.247,15.724 -24.3291,68.68911 -24.3291,68.68911 -23.333,3.682 -21.88279,1.27666 -35.68779,-24.72134 l -25.203,-48.752 -31.604,-6.006 -14.287,4.294 -16.174,-11.916 c -0.154,-3.542 0.046,-28.196 -0.108,-15.662 17.533,-8.732 35.42,-6.09 52.954,-6.57 l 62.719,12.97 22.712,-2.999 -39.399,-75.859 c -17.104,-9.864 -38.945,-7.094 -58.568,-10.241 l -52.062,7.756 -29.213,-2.592 -22.479,-27.528 c -9.149,-19.531 -4.741,-44.314 -6.279,-65.537 z"
     fill="#ffeeaa"
     fill-rule="evenodd"
     opacity="0.5"
     id="path1115"
     sodipodi:nodetypes="ccccccsccccccccccccccccccccccccccccc" />
  <path
     d="m137.37 16.85h25.456l17.621 152.67 3.43 52.515 27.823 37.618 27.745 2.933c19.896 1.791 84.328-15.754 104.02-1.513 27.475 19.871 32.976 65.571 46.896 83.068 4.406 5.538-48.181.468-36.724.182 10.256-.256-65.089-20.161-101.92-2.724-.274 9.991 3.591 16.75 13.148 22.403 6.487 3.838 5.524-2.319 16.063-2.816 14.345-.678 20.223-1.579 34.643 8.154 9.923 6.698 32.697 61.971 43.192 69.931 15.938 12.089 19.064-46.363 30.628-65.411 4.474-7.37 8.135-11.974 21.276-10.169 6.522.896 41.731 6.961 47.495 23.66 12.727 36.873.02 97.415 3.767 100.43l-310.42 1.414-8.109-50.238c-5.359 26.558-11.822 47.755-30.163 11.259l-5.548-44.225c-1.536-6.366-4.736-11.901.892-21.85l19.7-5.232 7.848-36.786-3.634-67.668c-8.688-5.876-9.799-16.298-9.146-27.779l16.859-3.374c14.236-11.374 2.547-23.455-4.95-34.122l-24.142-4.246-4.433-14.819 11.832-21.25c-1.536-15.158-7.743-24.087-14.875-31.783 4.793-30.438 27.825-30.199 42.477-7.019z"
     fill="#ffd5d5"
     fill-rule="evenodd"
     opacity=".5"
     id="path1117" />
  <path
     d="m536.15 230.63c6.319-8.401 47.536 1.044 92.907 6.5l8.608 39.322c-28.252 2.834-39.624 7.769-67.212 20.107-16.512 5.098-31.207-7.211-36.305-23.509-1.364-4.36-2.166-7.071-2.699-8.918-1.794-6.212 7.626-10.876 7.509-10.856-.897-.206-8.444-2.404-7.963-8.598.652-8.389 1.725-11.259 5.155-14.048z"
     fill="#dee3db"
     id="path1119" />
  <path
     d="m633.28 275.83c-28.252 2.834-35.823 8.833-63.411 21.172-11.267 3.807-29.438-2.376-37.17-27.459-.944-3.064-1.303-4.992-1.33-7.129-.046-3.649 3.39-6.522 7.524-9.1-4.168-1.441-7.222-3.38-7.926-7.907-1.076-6.921 3.85-16.244 7.971-16.972 24.867-4.077 52.886 5.982 88.774 8.073"
     fill="none"
     stroke="#000"
     stroke-width="3.1"
     id="path1121" />
  <path
     d="m834.51 257.29c-22.55 2.742-45.729 1.047-68.317-1.363-4.561-.487-10.278-.049-14.8-1.553-2.903-2.661-5.8-3.557-9.052-1.093-6.948-.78-14.607-1.383-21.626-2.133-18.259-1.032-36.519-3.006-54.778-2.327l-.177 4.22c20.813-1.889 59.591 1.801 71.667 2.914-13.917-.532-54.47.297-68.386 6.987l.72 3.848c9.313-3.19 19.147-5.02 28.927-6.146 12.825-1.478 30.287-.464 44.2.168 2.601 2.063 4.948 1.872 6.936.419 6.682-.095 13.108-.364 16.156.234 23.283 4.571 47.108 6.576 70.282 2.576"
     fill="#ffff00"
     transform="translate(-204.09 -13.67)"
     id="path1123" />
  <path
     d="m 630.88,244 c -22.55,2.742 -47.557,-0.366 -70.145,-2.777 -4.561,-0.487 -8.665,0.021 -13.187,-1.483 -2.903,-2.661 -5.8,-3.557 -9.052,-1.093 -6.948,-0.78 -14.607,-0.47 -21.626,-1.221 -18.259,-1.032 -36.519,-3.006 -54.778,-2.327 l -0.177,4.22 c 20.813,-1.889 59.591,1.889 71.667,3.002 -13.917,-0.532 -54.47,0.21 -68.386,6.9 l 0.72,3.848 c 9.313,-3.19 19.147,-5.02 28.927,-6.146 12.825,-1.478 29.787,-0.627 43.7,0.005 2.601,3.256 6.198,3.34 8.185,0.419 6.682,-0.095 11.131,-0.35 14.223,-0.054 23.283,2.229 47.791,6.694 70.965,3.527"
     fill="#fce94f"
     stroke="#00610f"
     stroke-width="2.5"
     id="path1125" />
  <path
     d="m847.99 274.45-10-9.75c-31.665-1.381-84.58 8.651-107.83 10.911-11.171-1.426-14.896-6.93-25.146-8.247-5.89-.701-19.748-.579-24.768 2.58s-8.986 7.888-11.51 13.255c-4.595 9.772-4.264 21.686.75 31.25 5.085 9.7 14.78 16.758 25.5 19 12.323 2.577 25.196-.958 36.5-6.5 7.723-3.787 15.011-8.538 21.275-14.432 4.874-4.586 9.228-9.771 14.657-13.683s11.849-6.171 18.318-7.885z"
     fill="#fce94f"
     transform="translate(-204.09 -13.67)"
     id="path1127" />
  <path
     d="m632.67 251.07-105.23 8.629c-17.577 3.483-10.046-4.001-25.33-5.965-5.89-.701-21.163-.579-26.183 2.58s-8.986 7.888-11.51 13.255c-4.595 9.772-4.264 21.686.75 31.25 5.085 9.7 14.78 16.758 25.5 19 12.323 2.577 25.196-.958 36.5-6.5 7.723-3.787 15.011-8.538 21.275-14.432 4.874-4.586 9.228-9.771 14.657-13.683s11.849-6.171 18.318-7.885l52.343-12.672"
     fill="#ffff00"
     stroke="#00610f"
     stroke-width="2.5"
     id="path1129" />
  <g
     stroke="#330080"
     id="g1147">
    <g
       stroke-width="2.8"
       id="g1143">
      <path
         d="m394.85 239.4c6.608 17.574 37.481 9.233 41.373 4.366.343 10.748 2.635 21.442.11 19.755-3.809-2.546-40.869 3.645-47.969-22.124-12.216-44.338 33.276-59.655 59.144-47.857 1.134 5.945-2.846 6.05-.359 7.707-32.285-8.258-61.195 3.995-52.299 38.153z"
         fill="#ad7fa8"
         id="path1131" />
      <path
         d="m467.78 151.66c-13.502.178-26.267 34.768-19.272 69.295-30.707-5.952-50.086-.136-50.987 8.993-.699 7.088 9.789 12.283 31.139 12.317-16.406 13.271-9.755 17.425-10.28 25.031-1.022 14.815 3.661 33.746 13.21 41.958 9.978 8.583 24.436 17.889 41.975 22.583 64.689 17.311 93.243-53.563 37.691-84.833-8.85-4.982-24.128-4.618-32.751.485-1.117-8.031-3.911-6.896-9.116-10.725 2.874-8.249 8.091-20.784 9.307-26.76 3.962-19.469.449-54.575-10.916-58.344zm-1.911 11.588c3.627.049 5.25 18.105 5.158 24.927-.354 6.706-1.112 15.331-2.605 21.897-3.722-7.341-12.377-11.339-12.416-13.706.535.722.213 5.639 1.574 9.927.755 2.735 4.149 4.176 8.782 14.464-.953 2.903-1.583 4.354-3.494 8.11-1.296-2.947 1.346-4.671-.22-7.808-1.737-3.481-6.667-16.344-6.712-21.619-.156-17.782 5.419-36.252 9.933-36.192zm-37.822 63.594c5.413.171 15.346 1.867 15.606 4.828.384 4.381-13.105 2.748-18.286 2.694-5.96-.061-18.69-2.636-18.668-3.911.053-3.025 15.03-3.81 21.348-3.611z"
         fill="#ad7fa8"
         id="path1133" />
      <path
         d="m478.54 247.29-8.324 5.579c-5.341 3.58-10.641 9.97-10.458 19.329.09 4.57 1.574 9.196 3.828 13.58"
         fill="none"
         id="path1135" />
      <path
         d="m493.63 316.61c7.005.027 18.388-3.54 23.13-8.35 5.918-5.999 6.398-19.018 4.005-26.106-3.446-10.21-8.582-15.98-21.472-19.598-8.797-2.47-19.424-.429-26.43 6.085-3.813 3.545-9.804 14.278-9.814 20.649-.009 5.606 2.496 15.16 8.297 20.481 6.03 5.531 11.662 8.702 20.087 6.899 5.094-1.09 11.198-1.806 13.974-10.133 2.189-6.565 4.35-15.279-3.93-22.421-5.628-4.854-14.197-6.646-19.534-.662-2.449 2.746-3.74 7.483-2.572 11.363.746 2.48 3.776 5.376 5.948 5.899 3.305.797 5.469-1.469 8.078-4.872"
         fill="none"
         id="path1137" />
      <path
         d="m445.13 265.24c-1.362 5.675-11.791 2.305-16.098.958-5.683-1.777-10.068-6.896-8.631-9.451 1.561-2.776 7.72-2.43 14.112.343 5.412 2.348 11.312 5.259 10.617 8.15z"
         fill="#743dda"
         id="path1139" />
      <path
         d="m438.74 291.03c.105 2.096.053 2.837-.498 3.726-1.783 2.874-5.006 2.834-7.532 1.146-3.809-2.546-6.221-6.358-6.221-10.705.009-4.407 3.936-6.561 8.207-4.457 3.851 1.888 5.825 5.77 6.044 10.29z"
         fill="#ad7fa8"
         id="path1141" />
    </g>
    <path
       d="m606.85-117.37c2.161 2.339 3.814 4.806 8.322 6.551 5.702 2.688 11.404 1.621 17.105 0 3.018-1.113 3.814-2.976 5.085-4.679m-18.412-10.402c3.853-1.046 7.617-4.136 11.469-1.757 2.999 1.248 4.07 2.496 4.623 3.743m-13.442-5.226 5.215-10.052"
       fill="none"
       stroke-width="3"
       transform="matrix(.94456 0 0 .92149 -142.92 349.77)"
       id="path1145" />
  </g>
  <path
     d="m 365.39,208.3 c -13.323,-1.529 -28.114,5.212 -31.237,9.215 -4.198,5.379 6.826,23.981 8.905,30.744 1.228,3.996 2.974,7.92 3.971,15.125 0,0 21.281,18.016 35.928,28.875 12.279,34.949 15.712,38.26 14.5,46.619 23.76158,11.57585 27.69432,9.59638 42.85189,8.90791 14.71296,7.75919 23.55897,16.88 50.74911,42.44609 16.07479,20.89765 30.64093,44.10025 38.8083,59.62153 L 560.33309,430.20064 534.496,407.404 c 0,0 -45.09,-37.056 -63.893,-58.842 -17.445,-20.213 -20.268,-20.391 -23.662,-31.121 -2.74,-8.663 -5.75953,-17.75417 -4.64353,-30.75917 0.41,-4.778 0.88153,-4.68083 1.08653,-12.21683 0.218,-5.3 -23.643,-18.897 -27.997,-16.075 l -17.029,-8.363 c -6.183,-3.037 -5.827,-10.939 -10.859,-17.973 -3.124,-4.367 -2.336,-17.462 -4.559,-20.303 -2.277,-2.91 -13.761,-3.016 -17.55,-3.451 z m 60.498,73.594 c 2.492,-2.324 6.709,-2.502 10.658,2.647 4.456,5.81 4.681,9.94 1.389,12.756 -3.613,3.09 -8.012,2.18 -12.995,-4.603 -3.814,-5.192 -2.034,-8.242 0.948,-10.8 z"
     fill="#ff8080"
     opacity="0.5"
     id="path1149"
     sodipodi:nodetypes="cccccccccccccscccssccsccc" />
  <path
     d="m 364.46,207.67 c -11.435,0.201 -25.251,4.715 -29.186,7.986 -4.985,4.145 2.267,20.588 5.59,26.289 2.708,4.646 5.571,16.499 7.221,21.5 1.75,0.716 2.977,1.162 5.16,2.002 0.588,-3.238 1.431,-10.929 -0.367,-17.574 -2.83,-10.458 -9.772,-22.733 -6.824,-24.68 5.572,-3.68 19.324,-8.388 29.734,-0.166 8.068,6.373 3.998,19.725 14.252,29.17 16.286,17.583 28.739,22.114 26.166,36.369 -0.793,14.367 24.76,45.69 32.287,45.088 0,0 16.465,17.88 45.76,46.922 29.294,29.042 52.26668,58.24252 52.26668,58.24252 l 13.81341,-8.61788 -29.32073,-27.22812 c 0,0 -42.12536,-35.73852 -60.92736,-57.52452 -17.445,-20.213 -20.237,-24.524 -25.041,-34.702 -5.482,-11.613 -2.382,-21.652 -1.578,-39.481 0.05,-1.209 2.447,-6.125 0.728,-7.935 -3.555,-3.744 -12.738,-6.824 -18.9,-8.765 -3.913,-1.232 -9.121,0.659 -10.956,0.71 l -15.797,-8.065 c -5.541,-4.093 -6.97,-12.905 -10.506,-16.945 -3.536,-4.041 -1.862,-9.377 -5.127,-19.428 -3.472,-1.263 -14.636,-3.235 -18.448,-3.167 z m 61.58,74.218 c 3.183,-2.929 8.458,-0.216 11.395,4.297 3.316,5.096 4.001,8.455 0.546,11.426 -3.496,3.005 -9.487,-0.83 -12.316,-4.27 -3.42,-4.16 -2.833,-8.5 0.375,-11.453 z"
     fill="#ff4848"
     opacity="0.5"
     id="path1151"
     sodipodi:nodetypes="ccscccsccccccccccccccccccccccc" />
  <path
     d="m186.05 15.798 447.01-1.604-1.265 224.25c-3.509-1.577-7.057-10.946-7.591-18.023-.435-5.763-4.058-15.51-5.121-15.822-40.922-12.018-73.654-3.999-111.92-43.929 0 0-16.616-11.781-28.71-14.452-12.317-2.72-20.1-9.103-37.037 7.767-8.502 8.469-13.542 9.741-22.458 16.22-49.657 36.087-108.68 38.697-169.72 29.989-42.191-11.445-39.105-42.58-45.972-65.25-13.378-44.169-11.029-65.936-17.216-119.146z"
     fill="#dee3db"
     id="path1153" />
  <path
     d="M 50.79,41.933 C 69.811455,25.426921 73.304545,22.811512 96.223,27.975 c 13.061,7.4475 22.12555,33.211732 31.48175,56.002554 9.27811,22.600576 16.78102,42.608236 16.78102,42.608236 C 136.79286,106.61978 99.608,100.04 101.36,137.003 c 0.098,2.076 7.487,3.133 7.973,7.621 0.813,7.517 6.74849,14.18701 7.507,25.784 -6.8868,7.13645 -8.9398,12.9092 -9.08597,17.89847 -0.14618,4.98926 1.61447,9.19503 2.35497,13.19753 0.319,1.725 4.174,1.436 4.493,3.384 33.326,6.245 29.08253,12.05474 31.908,21.592 2.57355,14.03294 -1.407,17.642 -22.463,18.183 -3.272,8.159 2.109,27.358 10.76,29.173 26.052,5.846 87.326,-0.721 92.861,0.354 -6.397,27.702 -3.706,30.744 -11.958,63.879 -2.243,4.695 -50.862,5.373 -77.736,1.013 -8.864,5.373 -8.623,21.878 -7.582,27.075 5.07,25.308 -21.413,11.944 -23.441,22.236 -6.69418,5.10083 -0.27085,6.95586 0.55104,22.0842 0.82049,15.10246 5.1513,54.54183 19.38996,57.3968 9.66599,-0.0406 13.67845,-10.03994 18.078,-19.645 7.313,21.709 -9.37,47.731 -30.061,43.669 -21.606,-4.241 -36.865,-10.7 -44.15,-22.487 C 59.198,450.706 63.101,421.817 58.57,391.595 54.463,364.201 35.605015,322.329 34.501,291.545 34.17,282.3155 35.923448,262.33693 38.145932,253.54802 40.658414,243.6123 36.219,246.1205 34.753,236.888 25.105,176.123 7.286989,90.361068 50.79,41.933 Z"
     fill="#e9c6af"
     id="path1155"
     sodipodi:nodetypes="ccsccccsccccccccccsccccssscc" />
  <path
     d="m132 274.19c30.025-1.977 48.312 2.101 92.985 0l-1.768 22.981c-14.889-3.117-55.854-3.74-86.974-6.187z"
     fill="#dca480"
     fill-rule="evenodd"
     id="path1157" />
  <path
     d="m 260.76,289.25 c -10.579,-0.981 -13.41,0.68 -23.214,0.879 -0.165,11.549 8.804,33.239 1.908,39.527 4.832,7.861 7.787,18.164 13.122,25.361 17.797,8.673 38.85032,2.64655 59.794,-1.099 22.944,-5.299 37.89061,-9.73862 60.74892,-14.051 28.13907,-0.93424 41.77649,0.60638 72.48708,8.20647 9.82276,2.13008 37.184,14.24453 47.082,10.63353 -18.51106,-4.37193 -30.203,-19.154 -35.009,-28.181 -6.054,-11.746 -11.882,-37.779 -9.14,-44.707 -20.30907,-2.73201 -29.60278,-3.57025 -51.935,-5 -21.91323,2.41975 -43.444,5.389 -63.913,8.366 -26.618,3.871 -50.559,2.046 -71.931,0.065 z"
     transform="translate(-96.2,-15.75)"
     id="path1159"
     fill="#deaa87"
     sodipodi:nodetypes="ccccccccccccc" />
  <path
     d="m388.73 227.15-8.132.53m-12.218-5.39 4.549-12.496m-20.439 11.176-1.487-11.192"
     fill="none"
     stroke="#867979"
     stroke-width="5"
     id="path1161" />
  <path
     d="m353.97 269.55c-7.307 1.699-9.206 14.671-8.155 23.102 3.468 13.869 11.234 26.583 21.111 34.306 12.771 9.74 24.732 15.38 33.024 12.301-4.098-13.41-8.864-26.34-14.264-39.971-14.501-13.174-25.422-24.749-31.716-29.738z"
     fill="#4e9a06"
     id="path1163" />
  <path
     d="m276.51 33.904c3.13 31.711 5.003 87.822 15.033 130.62 8.208 35.025 24.214 60.811 51.644 63.704 60.948 6.429 73.134-4.194 73.76 4.816.67 9.643 14.855 27.394 11.506 30.966-3.349 3.571-46.348-3.251-85.864 1.749s-34.414-3.615-42.9-15.95c-8.76-12.734-8.684-60.627-13.54-80.828-4.405-18.325-17.865-134.44-17.865-134.44z"
     fill="#fce94f"
     transform="translate(-96.2 -15.75)"
     id="path1165" />
  <path
     d="m259.72 344.87c17.998 1.296 41.004-9.083 89.091 3.86-4.821 7.321-22.359 12.575-58.536 7.711-16.097-2.164-14.301-1.865-19.023-3.764-12.314-4.954-11.711-7.628-11.532-7.807z"
     fill="#fce94f"
     id="path1167" />
  <path
     d="m354.26 249.43-9.968 1.686"
     fill="none"
     stroke="#867979"
     stroke-width="5"
     id="path1169" />
  <path
     d="m348.07 221.61c-6.106 3.814-4.135 13.491-.063 18.156 4.179 4.397 4.837 15.002 4.969 26.687 4.73 5.277 28.706 28.732 33.244 32.043.634.948 4.182-2.53 1.747-4.707-8.791-7.862-21.626-26.318-22.741-30.711 1.106-9.749-1.072-3.336 6.813-17.687 3.841-7.937-3.667-16.312-9.094-20.719-4.024-4.762-10.364-4.378-14.875-3.062z"
     fill="#e6e6e6"
     stroke="#000"
     stroke-width="2.5"
     id="path1171" />
  <path
     d="m 353.56,270.15 c 11.45,-8.733 33.008,7.551 39.756,17.678 20.39,30.605 14.094,46.307 6.612,51.244 l -21.93854,-35.19455 z"
     fill="#4e9a06"
     opacity=".48"
     id="path1173"
     sodipodi:nodetypes="ccccc" />
  <path
     d="m186.91 16.732s2.459 49.676 5.973 74.259c1.256 8.784 8.885 42.57 8.885 42.57 6.022 29.151 3.36 39.433 21.5 53 27.648 20.677 57.099 18.211 90.5 16.75 56.111-2.454 78.618-13.076 104.27-31.568 11.795-8.504 17.352-14.835 28.293-22.111 8.609-5.725 29.792-6.783 39.5-3 17.892 6.972 15.346 6.052 26.439 18.929 9.112 10.577 20.736 13.811 30.151 19.676 22.746 14.17 52.608 11.71 76.69 17.684 4.597 1.14 5.904 27.483 7.659 32.64"
     fill="none"
     stroke="#000"
     stroke-width="3.5"
     id="path1175"
     style="stroke:#ffb380" />
  <path
     d="m162.97 349.26c2.985.224 11.753.565 16.547 1.395 5.615.972 7.329 5.73 3.859 8.105-9.766 6.684-19.095-4.549-30.979 3.602-6.007 4.12.913 20.114-5.005 25.688-5.734 5.401-16.221 5.264-20.627 9.842-6.111 6.35-13.902 5.071-14.646 4.894-1.823-.436-5.649-2.84-.323-10.912 4.161-6.306 17.957-4.099 23.373-10.018 4.459-4.873 2.605-18.992 2.173-20.153-1.646-4.439 2.342-13.23 7.015-12.8 4.21.378 14.745.068 18.613.357zm-5.24-91.73c-4.25.935 17.947-2.95 27.903-.215 6.1 1.675 2.919 4.781.011 5.819-3.434 1.225-42.548 5.071-45.221 3.24-4.033-2.763-6.591-6.232-6.591-10.948 2.484-3.368.883-3.5 5.679-1.968 6.437 2.055 15.837-7.645 19.258-17.822 1.883-5.602.673-22.517-5.435-28.268-8.219-7.74-10.466-8.271-22.86-11.197-1.692-.399-10.512 1.073-11.177-2.729-.585-3.341-2.042-9.481 1.536-12.929 8.754-8.435 4.943-15.268 4.332-17.507-3.333-12.221-13.033-26.159-12.166-32.858 1.283-9.911 15.583-8.067 22.297 6.199 2.655 5.642 3.059 40.563 9.578 47.422 9.058 9.531 15.834 14.568 18.033 19.012 7.583 15.327 8.818 54.751-5.177 54.749z"
     fill="#9393ac"
     id="path1177" />
  <path
     d="m164.38 17.526 11.424 106.69 5.024 35.743c2.784 20.237-.011 44.189 5.877 65.467 4.739 17.127 19.197 24.083 31.751 39.667 20.638 1.041 27.795-2.615 48.65-4.585 9.534-.9 24.846-5.664 36.738-4.642 17.541 1.507 27.065 2.348 32.431 4.203 6.181 2.136 11.583 4.485 16.548 7.23m45.757 74.771-24.749 3.536c-8.093 1.156-46.986-14.93-74.953-14.496-21.175.329-29.581-.87-47.73 6.718l1.061 16.263c6.323 5.758 15.014 11.74 19.092 10.607 10.06-2.797 5.693-4.419 18.385-2.828 7.907.991 15.769 5.06 22.627 5.657 17.839 8.592 11.067 8.726 16.642 16.741"
     fill="none"
     stroke="#000"
     stroke-width="4"
     id="path1179"
     style="stroke:#ffb380" />
  <g
     fill-rule="evenodd"
     id="g1187">
    <path
       d="m129.09 354.95c.461.028 3.505 13.646 1.675 18.532-4.362 11.652-19.988 12.485-17.301 12.154-10.264-1.724-9.533 6.395-19.502-13.357-4.268-8.457-2.067-16.68-4.531-21.872-1.659-3.496-6.854-4.811-10.283-9.189-5.814-7.425-10.718-18.783-13.715-27.534-17.856-52.128 5.414-110.77 48.164-106.87 8.816.804 13.162-.318 22.363 4.984 10.903 6.283 7.379 11.141 10.925 16.891 5.284 8.568-9.51-10.11-41.137-3.422-13.2 2.792-27.436 30.898-28.44 40.835-2.396 23.709 7.744 45.761 14.83 55.739 8.564 12.06 22.782 32.258 36.952 33.109z"
       fill="#dca480"
       id="path1181" />
    <path
       d="m 225.92,275.96 c 0,0 52.98631,-10.23277 78.84431,-10.94377 14.889,-0.41 48.25769,3.84177 48.25769,3.84177 -4.634,5.973 -9.974,15.21 -7.187,24.519 0,0 -31.216,-7.367 -46.265,-7.687 -12.608,-0.267 -32.087,4.286 -47.681,6.78 -15.53,2.483 -30.03,4.674 -30.03,4.674 z"
       fill="#bcd35f"
       id="path1183"
       sodipodi:nodetypes="cccccccc" />
    <path
       d="m 88.33,25.265 17.83792,15.54054 c 9.227,14.624 15.9305,27.886935 21.32562,40.631179 5.54152,13.090084 10.28981,23.463171 14.56538,37.111821 L 125.392,111.944 l -7.88,-12 z m -16.44,181.04 c 9.128,-18.956 16.97,-49.537 31.113,-66.822 5.043,6.14 11.06,11.631 10.692,21.377 -7.536,6.58 -28.709,29.391 -37.084,40.88 -1.636,2.244 -3.219,1.744 -4.721,4.565 z"
       fill="#dca480"
       id="path1185"
       sodipodi:nodetypes="ccsccccccccc" />
  </g>
  <g
     fill="none"
     id="g1199">
    <path
       d="m 137.43,17.06 c 10.444,92.704 5.322,115.06 7.322,118.62 -1.501,-8.666 -0.944,-16.654 -9.336,-20.086 -13.06224,-5.72432 -20.43615,-5.53995 -28.10415,0.77105 -4.104,3.378 -3.87685,13.49795 -4.55985,20.31495 0.836,3.221 6.206,5.5 8.524,10.532 1.96,4.256 5.608,11.783 5.417,24.07 -0.04,2.575 -6.8,8.867 -7.816,11.188 -2.468,5.639 -1.776,15.594 1.125,18.96 1.668,3.558 5.755,4.001 8.728,4.259 2.894,0.252 5.444,0.566 6.698,0.882 15.375,3.868 12.988,4.588 17.237,10.164 5.328,6.991 4.533,19.569 3.207,22.146 -3.848,7.598 -8.905,5.54 -22.499,6.359 -2.35,14.95 3.163,21.039 10.55,29.793 26.105,-1.799 45.575,1.111 65.479,0.5 21.914,-0.673 52.444,-4.145 74.114,-7.475 14.704,-2.259 30.673,-5.876 44.75,-3 10.646,2.175 34.441,4.07 34.441,4.07 m 38.803,73.292 c 0.154,0.385 -38.459,-8.806 -56.243,-13.86 -26.675,-7.581 -53.788,-6.825 -79.879,-0.257 -17.378,4.498 -24.593,6.529 -42.118,10.411 -32.336,6.421 -45.65,4.758 -69.896,1.488 -16.73,-0.542 -10.555,33.982 -13.543,37.663 -3.298,4.063 -15.413,6.899 -19.658,7.314 -1.865,0.183 -4.596,3.28 -5.211,4.595 -1.618,3.461 -3.355,6.362 1.755,17.064 0.933,1.954 1.154,9.092 1.287,11.688 1.224,23.755 8.118,56.77 24.405,49.642 9.658,-3.856 12.03,-29.642 12.03,-29.642 l 7,51.5"
       stroke="#000"
       stroke-width="4"
       id="path1189"
       style="stroke:#ffb380"
       sodipodi:nodetypes="ccccccsccccccccccsccccccsccscccc" />
    <g
       stroke="#a00"
       id="g1197">
      <path
         d="m 142.72153,119.6073 c 0,0 -5.967,-16.224 -12.824,-32.017999 C 121.83553,69.021301 113.949,47.102 99.123,32.353 92.464,25.729 82.96,24.272 73.667,25.635 59.296,27.744 38.938,56.973 30.263,77.254 c -7.041,16.46 -6.811,48.576 -7.425,66.468 -1.169,34.059 15.474,105.36 15.474,105.36"
         id="path1191"
         style="stroke-width:4"
         sodipodi:nodetypes="ccccccc" />
      <path
         d="m145.39 461.19s.171 12.654-3.119 17.534c-5.17 7.67-12.91 10.49-21.772 11.819-13.032 1.954-27.869-1.286-38.855-8.898-12.482-8.649-17.457-23.792-19.781-39.3-2.395-15.987-7.38-85.725-10.519-86.195"
         stroke-width="4.09"
         id="path1193" />
      <path
         d="m93.81 104.48c-17.176 19.753-34.804 69.481-38.891 90.863-3.945 19.888-11.048 33.875-15.203 51.619-2.987 12.755-6.188 25.802-5.657 38.891.598 14.74 3.694 29.065 8.132 43.134 5.28 16.739 3.095 14.027 10.253 30.052 4.815 10.78 16.263 27.577 16.263 27.577"
         stroke-width="4"
         id="path1195" />
    </g>
  </g>
  <path
     d="m69.23 66.089 8.971-1.588c13.084 18.242 7.726 16.157 12.432 29.372-7.578-7.201-6.014-11.381-19.653-.4-16.404 15.022-16.573 76.199-17.742 100.92-.342 7.23-4.212 15.274-5.007 18.549-4.088-9.74-3.467-37.062-3.486-61.655-.03-37.686 3.358-75.526 24.485-85.198z"
     fill="#dca480"
     fill-rule="evenodd"
     id="path1201" />
  <g
     fill="none"
     id="g1209">
    <path
       d="m102.3 129.94s-4.117-20.648-10.253-36.416c-4.018-10.326-6.62-30.051-17.678-30.759-6.688-.429-17.182 9.971-17.182 9.971-11.148 16.611-13.358 48.777-12.87 77.003"
       stroke="#a00"
       stroke-width="4"
       id="path1203" />
    <path
       d="m64.12 245.55s-5.303 20.245-5.303 28.991c0 9.718 2.828 28.638 2.828 28.638m-.005 3.531c4.523 8.936 9.313 33.103 22.113 40.234 11.309 6.3 5.577 22.861 13.286 30.619 2.65 2.523 4.938 9.677 8.564 9.182m27.809-47.508s7.85-18.955 10.783-26.163c2.79-6.855-1.061-22.627-1.061-22.627m-22.451-44.548s-7.943.288-11.314 2.121c-5.712 3.107-13.435 14.142-13.435 14.142m17.453-56.654s-14.481 4.27-20.238 6.536c-12.52 4.928-22.699 19.97-26.206 26.784"
       stroke="#a00"
       stroke-width="2.2"
       id="path1205" />
    <path
       d="m 529.8663,449.85353 c 0,0 -15.9743,-30.09253 -21.6063,-37.79353 -11.756,-16.077 -23.506,-28.89 -38.5,-42 -9.035,-7.899 -17.141,-18.126 -28.5,-22 -7.414,-2.529 -15.788,1.375 -23.5,0 -6.645,-1.185 -19,-7 -19,-7 m 23.39,-76.19 8.839,4.95 m 129.34409,160.38064 c 0,0 -17.91909,-15.45864 -28.07109,-26.13764 -12.543,-13.193 -26.12,-22.135 -39,-35 -9.785,-9.773 -21.004,-20.997 -30.006,-31.495 -6.788,-7.916 -16.934,-15.677 -19.132,-25.871 -0.912,-4.228 -1.429,-15.81 -2.498,-25.045 -2.304,-6.232 -3.143,-10.921 -3.625,-14.725 m -19.512,-12.272 c -14.343,0.414 -28.207,-15.639 -31.692,-31.759 l -3.29,-15.215 c -0.817,-3.78 -18.221,-6.838 -31.942,-3.801 -7.377,1.633 -16.313,4.21 -18.274,10.026 -1.676,4.967 4.509,14.608 8.656,25.637 0.978,2.601 6.381,19.822 6.381,19.822"
       stroke="#800000"
       stroke-width="4"
       id="path1207"
       sodipodi:nodetypes="cccccccccccsccccccccsc" />
  </g>
  <g
     stroke="#000"
     id="g1217">
    <g
       id="path1211"
       style="opacity:1">
      <path
         style="color:#000000;font-style:normal;font-variant:normal;font-weight:normal;font-stretch:normal;font-size:medium;line-height:normal;font-family:'DejaVu Sans', sans-serif;font-variant-ligatures:normal;font-variant-position:normal;font-variant-caps:normal;font-variant-numeric:normal;font-variant-alternates:normal;font-variant-east-asian:normal;font-feature-settings:normal;font-variation-settings:normal;text-indent:0;text-align:start;text-decoration:none;text-decoration-line:none;text-decoration-style:solid;text-decoration-color:#000000;letter-spacing:normal;word-spacing:normal;text-transform:none;writing-mode:lr-tb;direction:ltr;text-orientation:mixed;dominant-baseline:auto;baseline-shift:baseline;text-anchor:start;white-space:normal;shape-padding:0;shape-margin:0;inline-size:0;clip-rule:nonzero;display:inline;overflow:visible;visibility:visible;isolation:auto;mix-blend-mode:normal;color-interpolation:sRGB;color-interpolation-filters:linearRGB;solid-color:#000000;solid-opacity:1;vector-effect:none;fill:#e6e6e6;fill-opacity:1;fill-rule:nonzero;stroke:none;stroke-width:2.35;stroke-linecap:butt;stroke-linejoin:miter;stroke-miterlimit:4;stroke-dasharray:none;stroke-dashoffset:0;stroke-opacity:1.0;color-rendering:auto;image-rendering:auto;shape-rendering:auto;text-rendering:auto;enable-background:accumulate;stop-color:#000000;stop-opacity:1;"
         d="m 425.35,255.46 c -0.34966,-0.007 -0.69944,-0.005 -1.049,0.006 l -1.526,0.469 c -1.862,1.068 -3.458,2.639 -3.977,4.591 -2.669,3.07 -6.847,6.499 -4.36,11.109 -0.094,0.718 -6.429,4.199 -6.344,4.824 0.134,0.993 0.914,3.412 3.071,3.469 2.599,-1.166 5.572,-3.197 6.509,-3.933 1.584,0.669 3.674,0.732 6.551,1.538 5.628,0.513 10.587,-3.282 14.765,-6.45 1.892,-1.398 5.925,0.856 7.301,-2.25 1.674,-4.114 -3.416,-7.179 -6.46,-8.905 -4.878,-2.479 -9.293,-4.371 -14.481,-4.468 z m 0.953,4.496 c 0.094,0.005 0.191,0.02 0.297,0.04 1.198,0.22 -0.29,-0.454 -0.29,0.053 0,0.286 1.253,-0.158 0.279,-0.033 -1.288,0.169 -2.606,2.38 -2.277,2.703 1.673,1.757 6.98,5.502 10.201,5.49 1.94,-2.062 2.747,-3.117 3.739,-3.192 0.315,0.493 0.806,0.405 -0.361,0.273 -0.854,-0.096 -1.033,0.073 -1.826,1.212 -1.7,2.417 -5.466,4.759 -9.12,5.669 -2.351,0.588 -5.908,0.544 -7.33,-0.095 -1.505,-0.668 -1.97,-1.278 -1.933,-2.541 0.038,-1.601 1.139,-3.128 4.74,-6.573 2.693,-2.584 3.224,-3.041 3.881,-3.006 z"
         id="path2264" />
      <path
         style="color:#000000;font-style:normal;font-variant:normal;font-weight:normal;font-stretch:normal;font-size:medium;line-height:normal;font-family:'DejaVu Sans', sans-serif;font-variant-ligatures:normal;font-variant-position:normal;font-variant-caps:normal;font-variant-numeric:normal;font-variant-alternates:normal;font-variant-east-asian:normal;font-feature-settings:normal;font-variation-settings:normal;text-indent:0;text-align:start;text-decoration:none;text-decoration-line:none;text-decoration-style:solid;text-decoration-color:#000000;letter-spacing:normal;word-spacing:normal;text-transform:none;writing-mode:lr-tb;direction:ltr;text-orientation:mixed;dominant-baseline:auto;baseline-shift:baseline;text-anchor:start;white-space:normal;shape-padding:0;shape-margin:0;inline-size:0;clip-rule:nonzero;display:inline;overflow:visible;visibility:visible;isolation:auto;mix-blend-mode:normal;color-interpolation:sRGB;color-interpolation-filters:linearRGB;solid-color:#000000;solid-opacity:1;vector-effect:none;fill:#000000;fill-opacity:1;fill-rule:nonzero;stroke:none;stroke-linecap:butt;stroke-linejoin:miter;stroke-miterlimit:4;stroke-dasharray:none;stroke-dashoffset:0;stroke-opacity:1.0;color-rendering:auto;image-rendering:auto;shape-rendering:auto;text-rendering:auto;enable-background:accumulate;stop-color:#000000;stop-opacity:1;"
         d="M 425.37109 254.28516 C 425.00197 254.27782 424.63269 254.27942 424.26367 254.29102 L 424.10742 254.29688 L 422.30469 254.84961 L 422.18945 254.91602 C 420.14744 256.08727 418.29459 257.84581 417.66211 260.22461 L 417.91211 259.75586 C 416.63467 261.22523 414.86208 262.88159 413.67188 264.9082 C 412.60894 266.71811 412.17091 268.99423 413.0918 271.34961 C 412.97124 271.44604 412.87849 271.52668 412.70703 271.65039 C 412.13834 272.0607 411.34756 272.58026 410.55469 273.09961 C 409.76181 273.61896 408.96799 274.13853 408.34375 274.59375 C 408.03163 274.82136 407.76531 275.02655 407.53125 275.24805 C 407.41422 275.3588 407.30356 275.46908 407.18555 275.63867 C 407.06754 275.80826 406.85381 276.05926 406.92969 276.61719 C 407.02034 277.28775 407.27135 278.24663 407.88672 279.1875 C 408.5025 280.129 409.62122 281.06352 411.13477 281.10352 L 411.40234 281.10938 L 411.64648 281 C 414.15608 279.87411 416.64873 278.19855 417.90625 277.26172 C 419.62536 277.83163 421.47141 277.98139 423.9082 278.66406 L 424.01172 278.69336 L 424.11914 278.70312 C 430.32628 279.26891 435.51637 275.19183 439.68945 272.02734 C 440.07259 271.7454 441.30015 271.7729 442.83398 271.77344 C 443.60138 271.77371 444.44329 271.7303 445.2832 271.38477 C 446.12312 271.03923 446.91382 270.32756 447.36523 269.30859 L 447.37305 269.29297 L 447.37891 269.27539 C 447.89495 268.00717 447.89789 266.71127 447.5332 265.58594 C 447.16852 264.46061 446.48028 263.50367 445.67578 262.66992 C 444.06679 261.00242 441.94731 259.77784 440.41016 258.90625 L 440.38672 258.89258 L 440.36328 258.88086 C 435.44587 256.38183 430.83324 254.38771 425.37305 254.28516 L 425.37109 254.28516 z M 425.32617 256.63477 L 425.32812 256.63477 C 430.23626 256.72653 434.44972 258.51338 439.2793 260.9668 C 440.78255 261.81993 442.7131 262.98327 443.98438 264.30078 C 444.62363 264.96328 445.08483 265.65019 445.29883 266.31055 C 445.51083 266.96472 445.51491 267.59264 445.20312 268.37109 C 444.97059 268.88494 444.74518 269.06427 444.38867 269.21094 C 444.02627 269.36003 443.48334 269.42406 442.83398 269.42383 C 441.53527 269.42337 439.80069 269.02318 438.29102 270.13867 L 438.28516 270.14258 L 438.2793 270.14648 C 434.10621 273.31076 429.39432 276.80467 424.36133 276.36133 C 421.4885 275.58214 419.36247 275.43228 418.13086 274.91211 L 417.49219 274.64258 L 416.94727 275.07031 C 416.17867 275.67403 413.38417 277.51955 411.02734 278.64648 C 410.52466 278.5694 410.15699 278.36438 409.85352 277.90039 C 409.60111 277.51448 409.51464 277.10641 409.41992 276.73828 C 409.52283 276.65548 409.58452 276.59719 409.72852 276.49219 C 410.27112 276.0965 411.0498 275.58323 411.8418 275.06445 C 412.6338 274.54568 413.43913 274.02049 414.08203 273.55664 C 414.40348 273.32472 414.68264 273.11134 414.92383 272.89258 C 415.04442 272.7832 415.15645 272.67457 415.27148 272.5293 C 415.38652 272.38402 415.54648 272.22278 415.60352 271.78711 L 415.65234 271.41211 L 415.47266 271.07617 C 414.4175 269.12029 414.75297 267.70554 415.69727 266.09766 C 416.64156 264.48977 418.29399 262.89751 419.68555 261.29688 L 419.86328 261.0918 L 419.93359 260.82812 C 420.33335 259.32461 421.64854 257.96663 423.29688 257.00391 L 424.48438 256.64062 C 424.76504 256.63395 425.04547 256.62916 425.32617 256.63477 z M 426.41211 258.6875 C 426.21082 258.70674 425.93745 258.75399 425.64062 258.99023 C 425.61432 259.01117 425.62053 259.05961 425.5957 259.08398 C 425.19168 259.21058 424.78964 259.24721 424.40039 259.55273 C 423.76066 260.05486 422.95874 260.81853 421.60938 262.11328 C 419.78944 263.85438 418.5769 265.1242 417.76367 266.25195 C 416.95139 267.37838 416.53387 268.44437 416.50781 269.50391 C 416.48556 270.2838 416.64563 271.0975 417.13477 271.74023 C 417.62415 272.38329 418.30528 272.77919 419.13672 273.14844 C 419.13764 273.14885 419.13775 273.14998 419.13867 273.15039 C 420.17376 273.61408 421.46833 273.73933 422.91602 273.75781 C 424.36536 273.77632 425.91139 273.63974 427.22852 273.31055 C 430.05972 272.60546 432.85265 271.16816 434.94141 269.38281 L 435.02344 269.38281 L 435.20898 269.18555 C 435.24632 269.1522 435.26982 269.11366 435.30664 269.08008 L 435.36914 269.01367 C 436.35195 267.96905 437.04681 267.18826 437.54102 266.72656 C 437.76934 266.51325 437.78774 266.55668 437.91016 266.47852 C 438.06052 266.49812 438.21529 266.51879 438.28906 266.53125 C 438.3406 266.53995 438.36544 266.54554 438.45117 266.55664 C 438.49404 266.56219 438.50016 266.59597 438.78516 266.55664 C 438.82078 266.55172 438.91364 266.53136 438.91406 266.53125 C 438.91448 266.53114 439.10124 266.46694 439.10156 266.4668 C 439.10188 266.46666 439.36306 266.30877 439.36328 266.30859 C 439.3635 266.30842 439.64832 265.97482 439.64844 265.97461 C 439.64856 265.9744 439.79685 265.51001 439.79688 265.50977 C 439.7969 265.50952 439.7696 265.11357 439.76953 265.11328 C 439.76946 265.113 439.6779 264.86165 439.67773 264.86133 C 439.67757 264.861 439.6147 264.75104 439.58789 264.71289 C 439.37342 264.40769 439.34529 264.45594 439.3125 264.43164 C 439.27971 264.40734 439.2687 264.39885 439.25977 264.39258 C 439.24361 264.38124 439.24036 264.38061 439.23828 264.37891 C 439.23806 264.37873 439.23653 264.37712 439.23633 264.37695 L 438.86328 263.79297 L 438.16406 263.8457 C 437.64062 263.88528 437.19184 264.09639 436.77148 264.36914 C 436.6062 264.42476 436.43649 264.3633 436.28906 264.46484 C 435.761 264.82856 435.50649 265.24712 435.10352 265.82617 C 434.85417 266.18069 434.25945 266.52449 433.89062 266.88672 C 432.69713 266.70633 431.03475 266.07067 429.43359 265.11719 C 427.78878 264.1377 426.45285 263.03466 425.64062 262.26758 C 425.69634 262.17166 425.71755 262.107 425.79297 262.00391 C 426.08522 261.60443 426.4484 261.39179 426.60156 261.30469 C 426.81837 261.29303 426.99928 261.26615 427.16406 261.21484 C 427.26359 261.18385 427.35147 261.15894 427.51562 261.06445 C 427.52035 261.06173 427.53219 261.0476 427.53711 261.04492 C 427.63339 261.0083 427.67085 261.04802 427.81641 260.92578 C 427.98648 260.78295 428.18266 260.50035 428.22852 260.18555 C 428.27437 259.87074 428.18444 259.60515 428.09961 259.44727 C 427.92995 259.1315 427.7957 259.07377 427.70312 259.00977 C 427.51798 258.88175 427.41195 258.84693 427.29102 258.80469 C 427.04914 258.72021 426.81468 258.64901 426.41211 258.6875 z M 423.46094 263.5293 C 423.46572 263.53432 423.47955 263.54183 423.48438 263.54688 C 423.48799 263.5505 423.4846 263.55302 423.48828 263.55664 L 423.46094 263.5293 z M 423.50586 263.5625 C 424.4882 264.58527 426.22467 265.94227 428.23047 267.13672 C 429.35675 267.80742 430.53274 268.3722 431.71289 268.79102 C 430.17505 269.76786 428.39856 270.59831 426.66016 271.03125 C 425.62666 271.28973 424.21902 271.42444 422.94727 271.4082 C 421.67551 271.39197 420.4818 271.1774 420.0957 271.00391 L 420.09375 271.00391 L 420.0918 271.00195 C 419.4195 270.70355 419.11543 270.46039 419.00586 270.31641 C 418.89629 270.17243 418.8433 270.05226 418.85742 269.57031 L 418.85742 269.56641 L 418.85742 269.5625 C 418.87024 269.02226 419.02095 268.5242 419.66797 267.62695 C 420.31499 266.7297 421.45331 265.51445 423.23438 263.81055 L 423.23633 263.81055 C 423.37472 263.67776 423.37861 263.68412 423.50586 263.5625 z "
         id="path2266" />
    </g>
    <path
       d="m364.02 224.68c13.033 11.52 8.554 21.221 5.031 25.781-.796 5.8 6.707 1.685 7.563 7.094.709 2.764-1.851 5.988 1.665 7.884 4.951 2.222 8.322 4.715 11.21 8.866 5.451 2.957 9.647 7.011 12.972 8.161 2.266.573 6.814.736 8.776-1.323 1.376-3.683-2.46-5.19-4.123-6.432-4.49 1.928-11.783-5.417-15.531-12.938-2.157-4.923-9.136-6.604-8.125-12.875.642-14.652 1.242-17.873-6.063-25.719-4.454-3.589-15.804-1.414-13.375 1.501z"
       fill="#e6e6e6"
       stroke-width="2.5"
       id="path1213" />
    <path
       d="m553.76 415.56s-9.812-9.922-23-23.5c-15.545-16.005-50-44.5-50-44.5m35.5 87.5s-16.154-21.428-25-31.5c-10.422-11.867-20.52-24.32-33-34-5.309-4.118-11.1-7.954-17.5-10-9.573-3.06-20.215-.706-30-3-9.192-2.155-26.5-10-26.5-10"
       fill="none"
       stroke-width="4"
       id="path1215"
       style="stroke:#ffccaa" />
  </g>
  <path
     d="m222.42 345.92c6.791-2.137-.419 12.11-20.068 15.792-8.51 1.595-14.31-2.82-15.318-7.073-1.022-4.313 3.775-7.128 7.901-6.082 3.717.942 24.147-1.587 27.485-2.637z"
     fill="#9393ac"
     id="path1219" />
  <path
     d="m233.68 342.97c8.641-1.978 13.108-3.058 13.798 2.118.447 3.357-4.025 7.92-11.61 10.045-3.961 1.11-12.439 3.366-13.353-3.069-.763-5.365 1.825-6.955 11.165-9.094z"
     fill="#9393ac"
     id="path1221" />
  <g
     fill="none"
     id="g1229">
    <path
       d="m400.61 338.3c-10.597 7.826-31.658-5.299-43.694-21.262-13.305-17.646-13.993-38.413-4.542-46.506 9.407-8.055 25.27-2.154 40.956 17.916 13.61 17.412 17.672 42.177 7.28 49.852z"
       stroke="#008000"
       stroke-dasharray="1.99,3.97"
       stroke-width="1.99"
       id="path1223" />
    <path
       d="m399.49 337.69c-7.756 8.738-29.963-4.437-42.34-20.601-13.209-17.251-14.602-38.691-4.305-47.34"
       stroke="#008000"
       stroke-width="1.99"
       id="path1225" />
    <path
       d="m408.82 260.77c-11.405-1.532-22.577-6.964-43.605-1.264"
       stroke="#867979"
       stroke-width="5"
       id="path1227" />
  </g>
  <g
     fill-rule="evenodd"
     id="g1239">
    <path
       d="m385.78 215.88 3.404-6.687c-.914 9.224.367 44.913 28.704 45.655 1.894.05 5.538 1.611 7.407 1.925 8.131 1.366 11.784 6.414 16.766 11.838 1.73 1.884 2.042 5.178 2.558 7.799.495 2.511 1.449 4.426 1.651 8.431.384 7.61.801 16.728 3.383 22.833 8.059 19.054 24.664 38.068 33.075 39.833l-4.723 4.351c-11.492-15.04-29.873-32.319-33.008-44.643l-1.853-21.916-2.034-7.282c-.739-1.538-.93-6.473-2.055-7.597-4.7-4.696-7.373-9.709-15.102-10.699-2.189-.28-4.295-2.04-6.768-1.776-27.012-3.951-29.187-26.15-31.405-42.065z"
       fill="#fff"
       opacity=".68"
       id="path1231"
       style="fill:none" />
    <g
       fill="#8f5c8a"
       id="g1237">
      <path
         d="m456.69 319.44c41.932 21.1 78.987-.677 83.146-30.73-1.707 6.467.74 30.952-32.646 42.98-18.427 2.535-32.61-.766-45.75-5.5z"
         id="path1233" />
      <path
         d="m519.8 285.67c.363 6.239 1.965 12.478-2.121 18.717-3.551 6.195-8.917 6.944-13.783 9.192 10.958-7.329 13.787-12.297 15.904-27.909zm-13.86 8.14c-.379 7.294 1.652 15.706-9.75 20.125-8.204 3.179-14.6 2.527-23.159-4.5 21.484 4.419 27.061 2.408 32.909-15.625z"
         id="path1235" />
    </g>
  </g>
  <path
     d="m512.87 188.92c15.909 12.786 50.015 17.072 99.416 22.788-1.348 2.047.566 7.003-4.206 8.018-12.3 2.616-39.88-1.535-65.945-5.039-16.097-2.164-28.713 12.116-33.434 10.217-12.314-4.954 4.206-48.066 4.169-35.984z"
     fill="#fce94f"
     id="path1241" />
  <path
     d="m153.77 18.694 9.082-.43c3.292 53.031 10.87 107.57 9.808 161.69h-5.358c-8.375-50.746-8.591-108.8-13.532-161.26z"
     fill="#de8787"
     fill-rule="evenodd"
     id="path1243" />
  <path
     d="m167.18 179.45 5.592-1.076-2.151 55.709-3.872-29.253z"
     fill="#ac9393"
     fill-rule="evenodd"
     id="path1245" />
</svg>
