<?xml version="1.0" encoding="utf-8"?>
<!-- Generator: Adobe Illustrator 21.0.0, SVG Export Plug-In . SVG Version: 6.00 Build 0)  -->
<svg version="1.1" id="Layer_1" xmlns="http://www.w3.org/2000/svg" xmlns:xlink="http://www.w3.org/1999/xlink" x="0px" y="0px"
	 viewBox="0 0 512 512" style="enable-background:new 0 0 512 512;" xml:space="preserve">
<g>
	<path d="M192,0c-40.8,0-73.8,29.6-82,68c-49.8,8.9-88.7,50.4-88.7,102.7c0,5.3,0.6,9.9,1.3,14.7C8.9,205.6,0,229.4,0,256
		c0,38.3,19.1,70.6,46,94c-1.9,7.6-3.3,15.2-3.3,23.3c0,52.8,43.2,96,96,96h1.3c12.4,24.1,33.9,42.7,62.7,42.7
		c20.8,0,39.8-8.8,53.3-22.7c13.6,13.9,32.5,22.7,53.3,22.7c28.8,0,50.3-18.6,62.7-42.7h1.3c50.1,0,91.2-39,95.3-88h0.7l-0.7-4
		l0.7-4c0-7.9-2.8-14.7-4.7-22C492.3,327.8,512,295,512,256c0-26.6-8.9-50.4-22.7-70.7c0.8-4.8,1.3-9.4,1.3-14.7
		c0-52.3-38.9-93.8-88.7-102.7c-8.3-38.4-41.3-68-82-68c-25.6,0-48.3,11.9-64,30C240.3,11.9,217.6,0,192,0z M192,42.7
		c23.8,0,42.7,18.8,42.7,42.7V128c0,35.6-28.4,64-64,64v42.7c24.2,0,46.1-8.3,64-22v224.7c0,17.9-14.1,32-32,32
		c-15.9,0-28.7-11-31.3-26l-4-20.7l-20.7,3.3c-3.8,0.6-6.1,0.7-8,0.7c-29.7,0-53.3-23.7-53.3-53.3c0-6.6,1.1-12.8,3.3-18.7l0.7-1.3
		c6.6-16.4,20.9-28.4,38.7-32l-8.7-42c-22.3,4.5-41.6,16.3-55.3,33.3c-13.4-15-21.3-34.8-21.3-56.7c0-20,6.8-37.8,18.7-52.7l6.7-8
		l-2-10.7c-1.2-5-2-9.4-2-14c0-35.6,28.4-64,64-64h21.3V85.3C149.3,61.5,168.2,42.7,192,42.7z M320,42.7c23.8,0,42.7,18.8,42.7,42.7
		v21.3H384c35.6,0,64,28.4,64,64c0,4.6-0.8,9-2,14l-2,10.7l6.7,8c11.8,14.8,18.7,32.7,18.7,52.7c0,25.6-10.9,48.4-28.7,64
		c-14.6-12.9-33.2-21.3-54-21.3c-20.2,0-38.3,7.2-52.7,19.3l27.3,32.7c6.9-5.8,15.4-9.3,25.3-9.3c20.6,0,37,15.4,39.3,35.3
		c-1.8,28.1-24.2,50-52.7,50c-1.9,0-4.3-0.1-8-0.7l-20.7-3.3l-4,20.7c-2.7,15-15.4,26-31.3,26c-17.9,0-32-14.1-32-32V212.7
		c17.9,13.7,39.8,22,64,22V192c-35.6,0-64-28.4-64-64V85.3C277.3,61.5,296.2,42.7,320,42.7z"/>
</g>
</svg>
