<?xml version="1.0" encoding="UTF-8" standalone="no"?>
<svg
   xmlns:dc="http://purl.org/dc/elements/1.1/"
   xmlns:cc="http://creativecommons.org/ns#"
   xmlns:rdf="http://www.w3.org/1999/02/22-rdf-syntax-ns#"
   xmlns:svg="http://www.w3.org/2000/svg"
   xmlns="http://www.w3.org/2000/svg"
   xmlns:sodipodi="http://sodipodi.sourceforge.net/DTD/sodipodi-0.dtd"
   xmlns:inkscape="http://www.inkscape.org/namespaces/inkscape"
   width="1250.9"
   height="1000.66"
   id="svg4013"
   sodipodi:version="0.32"
   inkscape:version="1.0.2-2 (e86c870879, 2021-01-15)"
   version="1.0"
   sodipodi:docname="Organ_of_corti.svg"
   inkscape:output_extension="org.inkscape.output.svg.inkscape">
  <defs
     id="defs4015">
    <clipPath
       clipPathUnits="userSpaceOnUse"
       id="clipPath329">
      <path
         d="M 300.509,260.257 C 300.509,260.257 295.276,262.297 288.87,257.684 C 282.461,253.072 285.282,253.585 277.849,250.765 C 270.417,247.946 265.805,248.458 259.396,243.333 C 252.989,238.206 256.066,237.182 249.146,236.925 C 242.226,236.669 235.562,236.157 223.261,237.438 C 210.959,238.72 187.126,240.77 174.825,238.463 C 162.523,236.157 162.523,235.9 156.884,234.619 C 151.247,233.337 142.533,230.518 141.764,230.262 C 140.996,230.006 134.077,232.569 131.513,230.776 C 128.951,228.981 126.643,225.905 129.719,224.624 C 132.794,223.343 141.501,223.834 146.121,223.855 C 150.18,223.874 172.239,225.085 182.491,222.522 C 192.741,219.96 211.985,212.322 224.286,214.629 C 236.587,216.936 252.22,226.931 259.91,232.312 C 267.598,237.695 267.341,236.925 267.341,236.925 C 267.341,236.925 279.9,232.312 282.461,227.956 C 285.025,223.599 290.92,201.303 280.925,192.589 C 270.928,183.876 252.734,176.186 246.839,175.931 C 240.945,175.675 235.306,172.344 233.256,170.549 C 231.207,168.755 230.18,166.193 230.18,166.193 C 230.18,166.193 234.025,164.399 239.151,164.399 C 244.277,164.399 251.707,164.912 261.959,164.656 C 272.211,164.399 275.03,164.399 281.949,162.861 C 288.87,161.323 298.31,161.342 300.509,162.87 L 300.509,260.257"
         id="path331" />
    </clipPath>
    <clipPath
       clipPathUnits="userSpaceOnUse"
       id="clipPath349">
      <path
         d="M 66.5,88.76 L 301.472,88.76 L 301.472,263.895 L 66.5,263.895 L 66.5,88.76 z"
         id="path351" />
    </clipPath>
    <clipPath
       clipPathUnits="userSpaceOnUse"
       id="clipPath363">
      <path
         d="M 66.5,88.76 L 301.472,88.76 L 301.472,263.895 L 66.5,263.895 L 66.5,88.76 z"
         id="path365" />
    </clipPath>
    <clipPath
       clipPathUnits="userSpaceOnUse"
       id="clipPath411">
      <path
         d="M 66.5,88.76 L 301.472,88.76 L 301.472,263.895 L 66.5,263.895 L 66.5,88.76 z"
         id="path413" />
    </clipPath>
    <clipPath
       clipPathUnits="userSpaceOnUse"
       id="clipPath429">
      <path
         d="M 66.5,88.76 L 301.472,88.76 L 301.472,263.895 L 66.5,263.895 L 66.5,88.76 z"
         id="path431" />
    </clipPath>
    <linearGradient
       x1="0"
       y1="0"
       x2="1"
       y2="0"
       gradientUnits="userSpaceOnUse"
       gradientTransform="matrix(15.476415,0,0,-7.8223407,93.35257,112.72737)"
       spreadMethod="pad"
       id="linearGradient451">
      <stop
         style="stop-opacity:1;stop-color:#fffbf2"
         offset="0"
         id="stop453" />
      <stop
         style="stop-opacity:1;stop-color:#fff0c2"
         offset="1"
         id="stop455" />
    </linearGradient>
    <clipPath
       clipPathUnits="userSpaceOnUse"
       id="clipPath443">
      <path
         d="M 300.509,135.956 C 300.509,135.956 300.515,135.194 293.745,136.324 C 286.973,137.452 283.024,136.512 278.322,139.521 C 273.621,142.53 269.106,142.718 266.661,144.411 C 264.216,146.103 265.91,144.975 262.148,147.796 C 258.385,150.617 255,150.617 255,150.617 C 255,150.617 254.922,153.337 252.509,153.739 C 248.545,154.398 248.228,151.747 249.357,150.241 C 250.487,148.736 252.367,147.983 254.248,148.547 C 254.248,148.547 255.187,147.043 258.573,144.975 C 261.959,142.906 261.207,144.411 264.216,141.966 C 267.225,139.521 270.611,136.512 275.689,135.571 C 280.767,134.629 280.579,135.005 283.4,134.254 C 286.221,133.501 290.922,132.374 293.932,132.185 C 296.942,131.998 300.509,132.381 300.509,132.381 L 300.509,135.956"
         id="path445" />
    </clipPath>
    <clipPath
       clipPathUnits="userSpaceOnUse"
       id="clipPath463">
      <path
         d="M 66.5,88.76 L 301.472,88.76 L 301.472,263.895 L 66.5,263.895 L 66.5,88.76 z"
         id="path465" />
    </clipPath>
    <linearGradient
       x1="0"
       y1="0"
       x2="1"
       y2="0"
       gradientUnits="userSpaceOnUse"
       gradientTransform="matrix(17.626845,0,0,-9.085926,91.203829,112.43315)"
       spreadMethod="pad"
       id="linearGradient481">
      <stop
         style="stop-opacity:1;stop-color:#fffbf2"
         offset="0"
         id="stop483" />
      <stop
         style="stop-opacity:1;stop-color:#fff0c2"
         offset="1"
         id="stop485" />
    </linearGradient>
    <clipPath
       clipPathUnits="userSpaceOnUse"
       id="clipPath473">
      <path
         d="M 242.399,151.558 C 242.399,151.558 244.622,153.405 246.348,151.934 C 247.766,150.725 248.229,147.984 248.229,147.984 C 248.229,147.984 251.05,147.985 252.931,146.667 C 254.812,145.351 256.318,144.036 259.138,142.342 C 261.959,140.649 261.958,141.025 265.909,138.767 C 269.859,136.51 270.422,134.818 273.997,134.254 C 277.569,133.69 278.51,134.443 281.519,133.314 C 284.528,132.185 283.211,131.056 286.785,131.433 C 290.359,131.809 296.001,131.056 297.13,131.056 C 298.258,131.056 300.509,130.876 300.509,130.876 L 300.509,126.74 C 300.509,126.74 299.2,126.918 294.874,127.107 C 290.547,127.294 286.974,127.86 284.905,128.988 C 282.836,130.116 282.835,130.494 279.451,130.494 C 276.066,130.494 275.877,129.553 271.74,130.68 C 267.601,131.809 264.029,132.749 262.523,134.442 C 261.018,136.135 259.138,137.076 257.822,137.452 C 256.504,137.828 254.999,138.39 253.683,139.144 C 252.368,139.897 250.297,141.965 249.168,143.282 C 248.042,144.598 247.288,146.103 247.288,146.103 C 247.288,146.103 243.904,146.292 242.962,146.856 C 242.022,147.42 240.477,149.461 242.399,151.558"
         id="path475" />
    </clipPath>
    <clipPath
       clipPathUnits="userSpaceOnUse"
       id="clipPath493">
      <path
         d="M 66.5,88.76 L 301.472,88.76 L 301.472,263.895 L 66.5,263.895 L 66.5,88.76 z"
         id="path495" />
    </clipPath>
    <inkscape:perspective
       sodipodi:type="inkscape:persp3d"
       inkscape:vp_x="0 : 526.18109 : 1"
       inkscape:vp_y="0 : 1000 : 0"
       inkscape:vp_z="744.09448 : 526.18109 : 1"
       inkscape:persp3d-origin="372.04724 : 350.78739 : 1"
       id="perspective4021" />
  </defs>
  <sodipodi:namedview
     id="base"
     pagecolor="#000000"
     bordercolor="#666666"
     borderopacity="1.0"
     gridtolerance="10000"
     guidetolerance="10"
     objecttolerance="10"
     inkscape:pageopacity="0"
     inkscape:pageshadow="2"
     inkscape:zoom="2.8"
     inkscape:cx="535.85775"
     inkscape:cy="347.88247"
     inkscape:document-units="px"
     inkscape:current-layer="layer1"
     showgrid="false"
     inkscape:window-width="1920"
     inkscape:window-height="1017"
     inkscape:window-x="1912"
     inkscape:window-y="-8"
     inkscape:document-rotation="0"
     inkscape:window-maximized="1" />
  <metadata
     id="metadata4018">
    <rdf:RDF>
      <cc:Work
         rdf:about="">
        <dc:format>image/svg+xml</dc:format>
        <dc:type
           rdf:resource="http://purl.org/dc/dcmitype/StillImage" />
        <dc:title />
      </cc:Work>
    </rdf:RDF>
  </metadata>
  <g
     inkscape:label="Layer 1"
     inkscape:groupmode="layer"
     id="layer1"
     transform="translate(19.448608,116.54076)">
    <g
       transform="matrix(4.21875,0,0,-4.21875,-102.42728,1142.2804)"
       id="g325"
       style="font-size:16px;font-style:normal;font-variant:normal;font-weight:normal;font-stretch:normal;text-align:start;line-height:125%;writing-mode:lr-tb;text-anchor:start;font-family:Calibri;-inkscape-font-specification:Calibri">
      <g
         id="g327"
         clip-path="url(#clipPath329)"
         style="font-size:16px;font-style:normal;font-variant:normal;font-weight:normal;font-stretch:normal;text-align:start;line-height:125%;writing-mode:lr-tb;text-anchor:start;font-family:Calibri;-inkscape-font-specification:Calibri">
        <path
           d="M 300.509,260.257 C 300.509,260.257 295.276,262.297 288.87,257.684 C 282.461,253.072 285.282,253.585 277.849,250.765 C 270.417,247.946 265.805,248.458 259.396,243.333 C 252.989,238.206 256.066,237.182 249.146,236.925 C 242.226,236.669 235.562,236.157 223.261,237.438 C 210.959,238.72 187.126,240.77 174.825,238.463 C 162.523,236.157 162.523,235.9 156.884,234.619 C 151.247,233.337 142.533,230.518 141.764,230.262 C 140.996,230.006 134.077,232.569 131.513,230.776 C 128.951,228.981 126.643,225.905 129.719,224.624 C 132.794,223.343 141.501,223.834 146.121,223.855 C 150.18,223.874 172.239,225.085 182.491,222.522 C 192.741,219.96 211.985,212.322 224.286,214.629 C 236.587,216.936 252.22,226.931 259.91,232.312 C 267.598,237.695 267.341,236.925 267.341,236.925 C 267.341,236.925 279.9,232.312 282.461,227.956 C 285.025,223.599 290.92,201.303 280.925,192.589 C 270.928,183.876 252.734,176.186 246.839,175.931 C 240.945,175.675 235.306,172.344 233.256,170.549 C 231.207,168.755 230.18,166.193 230.18,166.193 C 230.18,166.193 234.025,164.399 239.151,164.399 C 244.277,164.399 251.707,164.912 261.959,164.656 C 272.211,164.399 275.03,164.399 281.949,162.861 C 288.87,161.323 298.31,161.342 300.509,162.87 L 300.509,260.257"
           style="font-size:16px;font-style:normal;font-variant:normal;font-weight:normal;font-stretch:normal;text-align:start;line-height:125%;writing-mode:lr-tb;text-anchor:start;fill:#f3f4f9;fill-opacity:1;fill-rule:nonzero;stroke:none;font-family:Calibri;-inkscape-font-specification:Calibri"
           id="path333" />
        <g
           id="g335"
           style="font-size:16px;font-style:normal;font-variant:normal;font-weight:normal;font-stretch:normal;text-align:start;line-height:125%;writing-mode:lr-tb;text-anchor:start;font-family:Calibri;-inkscape-font-specification:Calibri">
          <path
             d="M 300.509,260.257 C 300.509,260.257 295.276,262.297 288.87,257.684 C 282.461,253.072 285.282,253.585 277.849,250.765 C 270.417,247.946 265.805,248.458 259.396,243.333 C 252.989,238.206 255.31699,237.4816 248.39699,237.2246 C 241.47699,236.9686 235.562,236.157 223.261,237.438 C 210.959,238.72 187.126,240.77 174.825,238.463 C 162.523,236.157 162.523,235.9 156.884,234.619 C 151.247,233.337 142.533,230.518 141.764,230.262 C 140.996,230.006 134.077,232.569 131.513,230.776 C 128.951,228.981 126.643,225.905 129.719,224.624 C 132.794,223.343 141.501,223.834 146.121,223.855 C 150.18,223.874 172.239,225.085 182.491,222.522 C 192.741,219.96 211.985,212.322 224.286,214.629 C 236.587,216.936 252.22,226.931 259.91,232.312 C 267.598,237.695 267.341,236.925 267.341,236.925 C 267.341,236.925 279.9,232.312 282.461,227.956 C 285.025,223.599 290.92,201.303 280.925,192.589 C 270.928,183.876 252.734,176.186 246.839,175.931 C 240.945,175.675 235.306,172.344 233.256,170.549 C 231.207,168.755 230.18,166.193 230.18,166.193 C 230.18,166.193 234.025,164.399 239.151,164.399 C 244.277,164.399 251.707,164.912 261.959,164.656 C 272.211,164.399 275.03,164.399 281.949,162.861 C 288.87,161.323 298.31,161.342 300.509,162.87 L 300.509,260.257"
             id="path343"
             style="font-size:16px;font-style:normal;font-variant:normal;font-weight:normal;font-stretch:normal;text-align:start;line-height:125%;writing-mode:lr-tb;text-anchor:start;fill:#d45500;fill-opacity:1;font-family:Calibri;-inkscape-font-specification:Calibri"
             sodipodi:nodetypes="ccscccccscssssccccsscscscc" />
        </g>
      </g>
    </g>
    <g
       transform="matrix(4.21875,0,0,-4.21875,-102.42728,1142.2804)"
       id="g345"
       style="font-size:16px;font-style:normal;font-variant:normal;font-weight:normal;font-stretch:normal;text-align:start;line-height:125%;writing-mode:lr-tb;text-anchor:start;font-family:Calibri;-inkscape-font-specification:Calibri">
      <g
         id="g347"
         clip-path="url(#clipPath349)"
         style="font-size:16px;font-style:normal;font-variant:normal;font-weight:normal;font-stretch:normal;text-align:start;line-height:125%;writing-mode:lr-tb;text-anchor:start;font-family:Calibri;-inkscape-font-specification:Calibri">
        <path
           d="M 300.509,260.257 C 300.509,260.257 296.02501,265.14322 289.61901,260.53022 C 283.21001,255.91822 285.282,255.83202 277.849,253.01202 C 270.417,250.19302 264.60659,249.95601 258.19759,244.83101 C 251.79059,239.70401 254.56799,237.7812 247.64799,237.5242 C 240.72799,237.2682 235.562,236.157 223.261,237.438 C 210.959,238.72 187.126,240.77 174.825,238.463 C 162.523,236.157 162.523,235.9 156.884,234.619 C 151.247,233.337 142.533,230.518 141.764,230.262 C 140.996,230.006 134.077,232.569 131.513,230.776 C 128.951,228.981 126.643,225.905 129.719,224.624 C 132.794,223.343 141.501,223.834 146.121,223.855 C 150.18,223.874 172.23896,225.08482 182.491,222.522 C 188.69359,220.97147 198.18976,217.56252 207.44786,215.62317 C 213.48899,214.3577 219.42876,213.71805 224.286,214.629 C 236.587,216.936 252.22,226.931 259.91,232.312 C 267.598,237.695 267.341,236.925 267.341,236.925 C 267.341,236.925 279.9,232.312 282.461,227.956 C 285.025,223.599 290.92,201.303 280.925,192.589 C 270.928,183.876 252.734,176.186 246.839,175.931 C 240.945,175.675 235.306,172.344 233.256,170.549 C 231.207,168.755 230.18,166.193 230.18,166.193 C 230.18,166.193 234.025,164.399 239.151,164.399 C 244.277,164.399 251.707,164.912 261.959,164.656 C 272.211,164.399 275.03,164.399 281.949,162.861 C 288.87,161.323 298.31,161.342 300.509,162.87 L 300.509,260.257 z"
           style="font-size:16px;font-style:normal;font-variant:normal;font-weight:normal;font-stretch:normal;text-align:start;line-height:125%;writing-mode:lr-tb;text-anchor:start;fill:none;stroke:#ffffff;stroke-width:0.75;stroke-linecap:round;stroke-linejoin:round;stroke-miterlimit:4;stroke-dasharray:none;stroke-opacity:1;font-family:Calibri;-inkscape-font-specification:Calibri"
           id="path353"
           sodipodi:nodetypes="ccscccccscsssssccccsscscscc" />
      </g>
    </g>
    <path
       d="M 180.44834,329.74489 C 180.44834,329.74489 214.81007,329.74489 220.88928,337.35128 C 226.97694,344.94926 234.57491,347.99096 234.57491,347.99096 L 249.78771,351.03269 L 257.38991,354.07864 L 269.55678,351.03269 C 269.55678,351.03269 284.76539,343.43471 298.45521,341.91176 C 312.14084,340.38878 319.74726,335.82409 324.30771,331.26364 C 328.87241,326.69894 341.03928,293.24426 345.59976,290.19832 C 350.16866,287.16082 350.16866,287.16082 350.16866,287.16082 C 350.16866,287.16082 357.76241,265.86457 365.36882,255.22066 C 372.97944,244.57676 391.22553,230.88691 391.22553,230.88691 C 391.22553,230.88691 403.39664,220.24301 414.03632,214.16378 C 424.68444,208.07614 432.92366,204.67159 437.48414,204.67159 C 442.04882,204.67159 455.10164,203.51566 455.10164,203.51566 C 455.10164,203.51566 479.43539,200.46551 488.56053,201.99269 C 497.68569,203.51566 522.02366,195.90926 528.10709,212.63659 C 528.10709,212.63659 592.28694,208.29551 630.00257,212.63659 C 650.45507,214.99489 653.61069,215.98628 667.60851,219.47941 C 685.50021,223.95971 713.64771,230.88691 727.33757,240.01207 C 741.02319,249.13721 741.02319,250.66019 745.58366,252.17894 C 750.14834,253.70191 756.23178,252.17894 756.23178,252.17894 C 756.23178,252.17894 757.75053,247.61426 769.91741,249.13721 C 782.08851,250.66019 791.21789,258.26239 794.25539,270.42926 C 797.29709,282.60034 797.30132,288.68378 807.94521,294.76721 C 818.58914,300.84644 842.92289,306.93409 858.13146,322.13846 C 873.33584,337.35128 882.46521,358.63909 882.46521,358.63909 C 882.46521,358.63909 887.23241,351.35332 893.10914,358.63909 C 901.90944,369.55721 911.35944,379.93114 911.35944,379.93114 L 911.35944,384.50003 C 911.35944,384.50003 914.40959,381.44989 926.57226,381.44989 C 938.73491,381.44989 946.33709,382.96864 955.46646,381.44989 C 964.58741,379.93114 972.19382,379.93114 972.19382,379.93114 L 975.23553,386.01878 C 975.23553,386.01878 970.67084,381.44989 984.36069,376.88941 C 998.04632,372.32894 996.52757,373.84769 1005.6569,369.28301 C 1014.7779,364.72253 1022.3885,357.11191 1026.949,360.15784 C 1026.949,360.15784 1025.4302,364.72676 1036.0742,354.07864 C 1046.7181,343.43051 1058.8807,334.30534 1066.4871,329.74489 C 1074.0935,325.18019 1080.177,309.97159 1087.7792,313.01332 C 1095.3856,316.05503 1080.177,319.10096 1089.2979,290.19832 C 1098.4273,261.30409 1099.946,255.22066 1099.946,255.22066 C 1099.946,255.22066 1094.2381,255.79441 1092.7151,246.67346 C 1091.1963,237.54832 1083.2187,226.32644 1083.2187,212.63659 C 1083.2187,198.94676 1080.177,179.18614 1087.7792,177.65894 C 1087.7792,177.65894 1093.8668,191.34878 1099.946,205.03019 C 1106.0295,218.72426 1122.7652,261.30409 1110.5942,294.76721 C 1098.4273,328.22614 1058.8807,372.32894 1025.4218,386.01878 C 991.96709,399.70441 970.67084,408.82534 947.86007,410.34832 C 925.04507,411.87551 900.71132,420.99221 883.98396,428.59864 C 867.25664,436.20503 867.25241,445.32596 847.48334,445.32596 C 827.71428,445.32596 800.33882,454.45534 750.14834,454.45534 C 699.96209,454.45534 491.60226,459.02426 461.18084,457.49707 C 430.76789,455.97409 369.92928,451.40941 325.83069,460.53878 C 281.72789,469.65971 202.64319,492.47051 202.64319,492.47051 L 180.44834,498.56239 L 180.44834,329.74489"
       style="font-size:16px;font-style:normal;font-variant:normal;font-weight:normal;font-stretch:normal;text-align:start;line-height:125%;writing-mode:lr-tb;text-anchor:start;fill:#ffcc00;fill-opacity:1;fill-rule:nonzero;stroke:none;font-family:Calibri;-inkscape-font-specification:Calibri"
       id="path355" />
    <path
       d="M 180.44834,416.43596 C 180.44834,416.43596 287.88726,439.39441 349.72146,441.66832 C 406.46789,443.75659 458.00414,444.48221 458.00414,444.48221 C 458.00414,444.48221 546.42069,446.08114 562.06382,445.88707 C 577.70694,445.69301 631.19646,446.52832 662.55444,444.11519 C 701.53991,441.11566 788.18882,441.06926 795.10334,440.52082 C 802.01366,439.97239 857.37632,438.85441 857.37632,438.85441 C 857.37632,438.85441 855.67616,447.11471 777.70944,453.11378 C 736.82976,456.25676 643.68819,456.99926 584.59616,457.07096 C 525.50414,457.13846 470.66039,458.54753 448.15757,457.13846 C 425.65896,455.72941 359.56382,452.91971 341.28396,457.13846 C 323.00414,461.35721 180.44834,498.56239 180.44834,498.56239 L 180.44834,416.43596"
       style="font-size:16px;font-style:normal;font-variant:normal;font-weight:normal;font-stretch:normal;text-align:start;line-height:125%;writing-mode:lr-tb;text-anchor:start;fill:#ff9955;fill-opacity:1;fill-rule:nonzero;stroke:none;font-family:Calibri;-inkscape-font-specification:Calibri"
       id="path357" />
    <g
       transform="matrix(4.21875,0,0,-4.21875,-102.42728,1142.2804)"
       id="g359"
       style="font-size:16px;font-style:normal;font-variant:normal;font-weight:normal;font-stretch:normal;text-align:start;line-height:125%;writing-mode:lr-tb;text-anchor:start;font-family:Calibri;-inkscape-font-specification:Calibri">
      <g
         id="g361"
         clip-path="url(#clipPath363)"
         style="font-size:16px;font-style:normal;font-variant:normal;font-weight:normal;font-stretch:normal;text-align:start;line-height:125%;writing-mode:lr-tb;text-anchor:start;font-family:Calibri;-inkscape-font-specification:Calibri">
        <path
           d="M 67.052,192.601 C 67.052,192.601 75.197,192.601 76.638,190.798 C 78.081,188.997 79.882,188.276 79.882,188.276 L 83.488,187.555 L 85.29,186.833 L 88.174,187.555 C 88.174,187.555 91.779,189.356 95.024,189.717 C 98.268,190.078 100.071,191.16 101.152,192.241 C 102.234,193.323 105.118,201.253 106.199,201.975 C 107.282,202.695 107.282,202.695 107.282,202.695 C 107.282,202.695 109.082,207.743 110.885,210.266 C 112.689,212.789 117.014,216.034 117.014,216.034 C 117.014,216.034 119.899,218.557 122.421,219.998 C 124.945,221.441 126.898,222.248 127.979,222.248 C 129.061,222.248 132.155,222.522 132.155,222.522 C 132.155,222.522 137.923,223.245 140.086,222.883 C 142.249,222.522 148.018,224.325 149.46,220.36 C 149.46,220.36 164.673,221.389 173.613,220.36 C 178.461,219.801 179.209,219.566 182.527,218.738 C 186.768,217.676 193.44,216.034 196.685,213.871 C 199.929,211.708 199.929,211.347 201.01,210.987 C 202.092,210.626 203.534,210.987 203.534,210.987 C 203.534,210.987 203.894,212.069 206.778,211.708 C 209.663,211.347 211.827,209.545 212.547,206.661 C 213.268,203.776 213.269,202.334 215.792,200.892 C 218.315,199.451 224.083,198.008 227.688,194.404 C 231.292,190.798 233.456,185.752 233.456,185.752 C 233.456,185.752 234.586,187.479 235.979,185.752 C 238.065,183.164 240.305,180.705 240.305,180.705 L 240.305,179.622 C 240.305,179.622 241.028,180.345 243.911,180.345 C 246.794,180.345 248.596,179.985 250.76,180.345 C 252.922,180.705 254.725,180.705 254.725,180.705 L 255.446,179.262 C 255.446,179.262 254.364,180.345 257.609,181.426 C 260.853,182.507 260.493,182.147 262.657,183.229 C 264.819,184.31 266.623,186.114 267.704,185.392 C 267.704,185.392 267.344,184.309 269.867,186.833 C 272.39,189.357 275.273,191.52 277.076,192.601 C 278.879,193.683 280.321,197.288 282.123,196.567 C 283.926,195.846 280.321,195.124 282.483,201.975 C 284.647,208.824 285.007,210.266 285.007,210.266 C 285.007,210.266 283.654,210.13 283.293,212.292 C 282.933,214.455 281.042,217.115 281.042,220.36 C 281.042,223.605 280.321,228.289 282.123,228.651 C 282.123,228.651 283.566,225.406 285.007,222.163 C 286.449,218.917 290.416,208.824 287.531,200.892 C 284.647,192.961 275.273,182.507 267.342,179.262 C 259.412,176.018 254.364,173.856 248.957,173.495 C 243.549,173.133 237.781,170.972 233.816,169.169 C 229.851,167.366 229.85,165.204 225.164,165.204 C 220.478,165.204 213.989,163.04 202.092,163.04 C 190.196,163.04 140.807,161.957 133.596,162.319 C 126.387,162.68 111.966,163.762 101.513,161.598 C 91.059,159.436 72.313,154.029 72.313,154.029 L 67.052,152.585 L 67.052,192.601 z M 67.414,180.345 C 67.414,180.345 70.871,179.622 74.114,179.262 C 77.359,178.902 78.801,179.262 78.801,179.262 L 80.244,179.262 C 80.244,179.262 81.324,176.74 84.929,176.018 C 88.536,175.297 89.617,175.297 91.059,175.297 C 92.5,175.297 95.745,176.74 95.745,176.74 C 95.745,176.74 98.989,175.297 102.234,176.018 C 105.478,176.74 107.641,178.902 107.641,178.902 C 107.641,178.902 108.723,182.506 106.199,183.949 C 103.675,185.392 100.43,185.752 100.071,186.833 C 99.71,187.915 98.265,190.237 98.265,190.237 M 79.882,188.276 C 79.882,188.276 81.685,179.262 80.244,179.262 M 85.29,186.833 C 85.29,186.833 87.092,184.671 88.536,183.229 C 89.977,181.787 92.14,179.622 93.221,178.542 C 94.303,177.459 95.745,176.74 95.745,176.74 M 67.052,172.052 C 67.052,172.052 78.44,169.89 84.929,168.448 C 91.419,167.006 122.421,164.843 127.108,165.204 C 131.795,165.564 145.854,165.204 150.18,165.204 C 154.506,165.204 172.89,164.482 178.659,165.204 C 184.428,165.924 213.628,166.285 214.71,166.285 C 215.792,166.285 229.491,167.006 229.491,167.006"
           style="font-size:16px;font-style:normal;font-variant:normal;font-weight:normal;font-stretch:normal;text-align:start;line-height:125%;writing-mode:lr-tb;text-anchor:start;fill:none;stroke:#000000;stroke-width:0.75;stroke-linecap:round;stroke-linejoin:round;stroke-miterlimit:4;stroke-dasharray:none;stroke-opacity:1;font-family:Calibri;-inkscape-font-specification:Calibri"
           id="path367" />
        <path
           d="M 284.287,140.058 C 275.364,142.762 268.334,148.44 258.601,153.037 C 248.867,157.632 236.971,154.659 228.319,167.908 C 224.916,173.119 224.263,181.966 223.993,188.455 C 223.993,188.455 224.384,193.672 222.492,195.024 C 221.121,196.003 219.717,196.738 218.634,197.276 L 218.639,197.283 C 218.639,197.283 213.658,201.302 212.693,205.641 C 211.728,209.98 209.961,210.945 207.389,211.427 C 207.389,211.427 204.179,212.314 203.534,210.987 C 202.888,209.659 204.496,207.409 206.103,205.641 C 207.71,203.873 211.728,200.176 213.818,190.051 L 213.825,190.061 C 214.41,186.628 215.083,182.799 215.881,180.885 C 217.233,177.641 223.181,165.474 227.237,161.418 C 231.292,157.363 240.756,146.548 243.459,144.114 C 246.164,141.68 253.734,134.921 268.604,130.055 C 273.653,128.403 279.15,127.622 282.393,127.351 C 287.168,126.953 300.509,125.729 300.509,125.729 L 300.509,138.166 C 300.509,138.166 293.208,137.354 284.287,140.058"
           style="font-size:16px;font-style:normal;font-variant:normal;font-weight:normal;font-stretch:normal;text-align:start;line-height:125%;writing-mode:lr-tb;text-anchor:start;fill:#e7a8af;fill-opacity:1;fill-rule:nonzero;stroke:none;font-family:Calibri;-inkscape-font-specification:Calibri"
           id="path369" />
        <path
           d="M 284.287,140.058 C 275.364,142.762 268.334,148.44 258.601,153.037 C 248.867,157.632 236.971,154.659 228.319,167.908 C 224.916,173.119 224.263,181.966 223.993,188.455 C 223.993,188.455 224.384,193.672 222.492,195.024 C 221.121,196.003 219.717,196.738 218.634,197.276 L 218.639,197.283 C 218.639,197.283 213.658,201.302 212.693,205.641 C 211.728,209.98 209.961,210.945 207.389,211.427 C 207.389,211.427 204.179,212.314 203.534,210.987 C 202.888,209.659 204.496,207.409 206.103,205.641 C 207.71,203.873 211.728,200.176 213.818,190.051 L 213.825,190.061 C 214.41,186.628 215.083,182.799 215.881,180.885 C 217.233,177.641 223.181,165.474 227.237,161.418 C 231.292,157.363 240.756,146.548 243.459,144.114 C 246.164,141.68 253.734,134.921 268.604,130.055 C 273.653,128.403 279.15,127.622 282.393,127.351 C 287.168,126.953 300.509,125.729 300.509,125.729 L 300.509,138.166 C 300.509,138.166 293.208,137.354 284.287,140.058 z"
           style="font-size:16px;font-style:normal;font-variant:normal;font-weight:normal;font-stretch:normal;text-align:start;line-height:125%;writing-mode:lr-tb;text-anchor:start;fill:#803300;stroke:#000000;font-family:Calibri;-inkscape-font-specification:Calibri"
           id="path371" />
      </g>
    </g>
    <path
       d="M 272.06271,403.04566 C 272.06271,403.04566 243.63257,414.03128 233.29241,426.31207 M 278.52164,402.40019 C 278.52164,402.40019 281.10771,428.88971 279.81678,434.06191 M 301.14257,398.52316 C 301.14257,398.52316 301.78803,412.74034 297.91101,421.13989 C 294.03396,429.53519 292.09334,435.99832 292.09334,435.99832 M 317.94164,401.10503 C 317.94164,401.10503 324.40053,411.44941 325.05021,420.49019 C 325.69991,429.53519 330.21819,439.23409 330.21819,439.23409 M 339.91289,395.93707 C 339.91289,395.93707 361.23866,410.15426 362.52539,440.52503 M 350.24882,389.47394 C 350.24882,389.47394 383.85116,403.68691 390.95976,411.44519 C 398.06834,419.19926 407.76303,431.48003 406.46789,443.75659 M 351.54396,286.73471 C 351.54396,286.73471 359.29803,300.30221 369.63819,311.28784 C 379.97414,322.27346 381.91476,331.96394 383.85539,342.94957 C 385.78757,353.93519 388.37366,361.69346 397.42289,370.08878 C 406.46789,378.49253 425.21178,388.18721 425.85726,390.76909 M 391.22553,230.88691 C 391.22553,230.88691 397.42289,235.03816 398.71803,248.60989 C 400.00476,262.17316 399.35928,304.82894 401.94539,311.28784 C 404.52726,317.75096 420.68507,341.01739 424.56209,342.30832 C 428.43491,343.59926 443.30178,324.21409 444.59694,317.10551 C 445.88366,309.99269 441.36116,289.32082 440.71991,280.26739 C 440.06601,271.22239 439.42896,262.82707 444.59694,250.54628 C 449.76491,238.26551 452.99646,209.19409 452.99646,204.02191 M 425.85726,343.59926 C 425.85726,343.59926 426.50271,388.18301 426.50271,398.52316 C 426.50271,408.86332 424.56209,443.10691 424.56209,443.10691 M 494.99834,203.37644 C 494.99834,203.37644 500.16632,202.73096 491.12132,211.77596 C 482.07209,220.82096 477.54959,229.86596 472.38584,238.91519 C 467.21366,247.96019 460.10084,260.88221 460.10084,269.28596 C 460.10084,277.68551 464.63178,286.73471 467.21366,289.31659 C 469.79553,291.89846 471.73194,296.42519 471.73194,296.42519 L 474.96771,322.27346 C 474.96771,322.27346 469.15428,350.70784 462.04569,364.92503 C 454.93289,379.13378 448.47819,380.43316 447.82851,391.41457 C 447.17882,402.40019 447.82428,406.92269 441.36539,421.13989 C 434.90646,435.35707 436.84289,443.75659 436.84289,443.75659 M 528.10709,212.63659 C 528.10709,212.63659 531.18257,215.00753 520.84241,226.63864 C 510.50646,238.26551 500.81601,245.37409 494.99834,256.35971 C 489.18069,267.34534 470.44101,294.48878 470.44101,294.48878 M 501.45726,304.82894 C 501.45726,304.82894 501.45726,286.08503 504.03914,275.74489 C 506.62944,265.40894 506.62944,257.00941 517.61084,242.79221 C 528.60069,228.57926 549.04053,221.71534 549.04053,221.71534 C 549.04053,221.71534 569.91914,216.49676 567.67896,232.16096 C 567.67896,232.16096 583.33896,218.73691 591.54444,220.97707 C 599.74569,223.21301 601.98584,232.16096 601.98584,232.16096 C 601.98584,232.16096 608.69366,223.95971 616.15241,224.70221 C 623.61116,225.44894 637.03944,227.68489 638.52444,238.12628 C 638.52444,238.12628 648.21914,229.92082 664.62584,237.37957 M 474.96771,324.20989 C 474.96771,324.20989 487.24428,316.46003 496.28928,309.99269 C 505.33428,303.53801 513.02084,297.70346 513.02084,297.70346 C 513.02084,297.70346 528.84116,287.15659 538.86069,278.71909 C 554.83289,265.26971 565.22789,232.84019 565.22789,232.84019"
       style="font-size:16px;font-style:normal;font-variant:normal;font-weight:normal;font-stretch:normal;text-align:start;line-height:125%;writing-mode:lr-tb;text-anchor:start;fill:none;stroke:#000000;stroke-width:3.1640625;stroke-linecap:round;stroke-linejoin:round;stroke-miterlimit:4;stroke-dasharray:none;stroke-opacity:1;font-family:Calibri;-inkscape-font-specification:Calibri"
       id="path373" />
    <path
       d="M 666.23741,238.91519 C 666.23741,238.91519 695.95851,247.96019 701.12646,265.40894 C 706.29444,282.85346 706.30289,313.22846 690.79053,339.07253 C 675.27819,364.92082 652.02021,395.93707 644.91164,401.75051 C 637.80303,407.56394 634.57146,411.44519 624.88101,410.15003 C 615.18632,408.85909 598.38303,398.51894 600.32366,386.23816 C 602.26851,373.96582 613.89539,353.93519 620.99976,343.59503 C 628.11257,333.25909 629.40771,311.92909 633.28053,304.82894 C 637.16178,297.72034 652.66991,269.93144 657.18819,260.88644 C 661.71069,251.83721 666.23741,238.91519 666.23741,238.91519"
       style="font-size:16px;font-style:normal;font-variant:normal;font-weight:normal;font-stretch:normal;text-align:start;line-height:125%;writing-mode:lr-tb;text-anchor:start;fill:#ffffff;fill-opacity:1;fill-rule:nonzero;stroke:none;font-family:Calibri;-inkscape-font-specification:Calibri"
       id="path375" />
    <path
       d="M 666.23741,238.91519 C 666.23741,238.91519 695.95851,247.96019 701.12646,265.40894 C 706.29444,282.85346 706.30289,313.22846 690.79053,339.07253 C 675.27819,364.92082 652.02021,395.93707 644.91164,401.75051 C 637.80303,407.56394 634.57146,411.44519 624.88101,410.15003 C 615.18632,408.85909 598.38303,398.51894 600.32366,386.23816 C 602.26851,373.96582 613.89539,353.93519 620.99976,343.59503 C 628.11257,333.25909 629.40771,311.92909 633.28053,304.82894 C 637.16178,297.72034 652.66991,269.93144 657.18819,260.88644 C 661.71069,251.83721 666.23741,238.91519 666.23741,238.91519 z"
       style="font-size:16px;font-style:normal;font-variant:normal;font-weight:normal;font-stretch:normal;text-align:start;line-height:125%;writing-mode:lr-tb;text-anchor:start;fill:none;stroke:#000000;stroke-width:3.1640625;stroke-linecap:round;stroke-linejoin:round;stroke-miterlimit:4;stroke-dasharray:none;stroke-opacity:1;font-family:Calibri;-inkscape-font-specification:Calibri"
       id="path377" />
    <path
       d="M 628.11257,326.47114 C 628.11257,326.47114 665.79444,320.11346 690.79053,339.07253 L 686.36928,346.10096 C 686.36928,346.10096 685.29351,338.78566 661.39851,336.19957 C 632.72366,333.09878 624.60257,335.58784 624.60257,335.58784 L 628.11257,326.47114"
       style="font-size:16px;font-style:normal;font-variant:normal;font-weight:normal;font-stretch:normal;text-align:start;line-height:125%;writing-mode:lr-tb;text-anchor:start;fill:#ebc3c6;fill-opacity:1;fill-rule:nonzero;stroke:none;font-family:Calibri;-inkscape-font-specification:Calibri"
       id="path379" />
    <path
       d="M 628.11257,326.47114 C 628.11257,326.47114 665.79444,320.11346 690.79053,339.07253 L 686.36928,346.10096 C 686.36928,346.10096 685.29351,338.78566 661.39851,336.19957 C 632.72366,333.09878 624.60257,335.58784 624.60257,335.58784 L 628.11257,326.47114 z M 626.73303,330.16676 C 627.37851,329.95159 673.88601,328.23034 688.30991,341.36332"
       style="font-size:16px;font-style:normal;font-variant:normal;font-weight:normal;font-stretch:normal;text-align:start;line-height:125%;writing-mode:lr-tb;text-anchor:start;fill:#c83737;stroke:#000000;stroke-width:3.1640625;stroke-linecap:round;stroke-linejoin:round;stroke-miterlimit:4;stroke-dasharray:none;stroke-opacity:1;font-family:Calibri;-inkscape-font-specification:Calibri"
       id="path381" />
    <path
       d="M 684.86741,348.03739 C 684.86741,348.03739 669.57866,340.93301 654.93539,340.93301 C 640.29632,340.93301 622.42569,340.72207 622.42569,340.72207 L 615.54069,352.12957 C 615.54069,352.12957 668.07257,347.60707 678.83459,356.43691 L 684.86741,348.03739"
       style="font-size:16px;font-style:normal;font-variant:normal;font-weight:normal;font-stretch:normal;text-align:start;line-height:125%;writing-mode:lr-tb;text-anchor:start;fill:#ebc3c6;fill-opacity:1;fill-rule:nonzero;stroke:none;font-family:Calibri;-inkscape-font-specification:Calibri"
       id="path383" />
    <path
       d="M 684.86741,348.03739 C 684.86741,348.03739 669.57866,340.93301 654.93539,340.93301 C 640.29632,340.93301 622.42569,340.72207 622.42569,340.72207 L 615.54069,352.12957 C 615.54069,352.12957 668.07257,347.60707 678.83459,356.43691 L 684.86741,348.03739 z"
       style="font-size:16px;font-style:normal;font-variant:normal;font-weight:normal;font-stretch:normal;text-align:start;line-height:125%;writing-mode:lr-tb;text-anchor:start;fill:#c83737;stroke:#000000;stroke-width:3.1640625;stroke-linecap:round;stroke-linejoin:round;stroke-miterlimit:4;stroke-dasharray:none;stroke-opacity:1;font-family:Calibri;-inkscape-font-specification:Calibri"
       id="path385" />
    <path
       d="M 761.86803,313.87394 C 761.86803,313.87394 746.35991,295.13003 734.72882,304.17503 C 723.09771,313.22426 718.57101,327.44144 705.64896,346.18114 C 692.72694,364.92503 670.75991,388.18721 672.69632,400.46378 C 674.63694,412.73614 697.90334,437.28926 713.40726,437.93894 C 728.91116,438.58019 747.00116,436.64801 757.34132,425.65816 C 767.68569,414.67676 790.29819,395.93284 781.90289,359.74864 C 773.49914,323.56441 761.86803,313.87394 761.86803,313.87394"
       style="font-size:16px;font-style:normal;font-variant:normal;font-weight:normal;font-stretch:normal;text-align:start;line-height:125%;writing-mode:lr-tb;text-anchor:start;fill:#ffffff;fill-opacity:1;fill-rule:nonzero;stroke:none;font-family:Calibri;-inkscape-font-specification:Calibri"
       id="path387" />
    <path
       d="M 761.86803,313.87394 C 761.86803,313.87394 746.35991,295.13003 734.72882,304.17503 C 723.09771,313.22426 718.57101,327.44144 705.64896,346.18114 C 692.72694,364.92503 670.75991,388.18721 672.69632,400.46378 C 674.63694,412.73614 697.90334,437.28926 713.40726,437.93894 C 728.91116,438.58019 747.00116,436.64801 757.34132,425.65816 C 767.68569,414.67676 790.29819,395.93284 781.90289,359.74864 C 773.49914,323.56441 761.86803,313.87394 761.86803,313.87394 z M 852.98039,318.40066 C 852.98039,318.40066 850.39851,311.93332 847.81664,324.20989 C 845.23053,336.49066 847.81664,374.61128 847.16271,383.01503 C 846.52146,391.41457 858.15678,426.95753 868.49271,437.93894 M 882.46521,358.63909 C 882.46521,358.63909 877.53771,375.90644 873.66491,386.89207 C 869.78366,397.87769 860.09319,419.20346 870.42914,437.93894 M 911.35944,384.50003 C 911.35944,384.50003 903.38601,417.89989 876.88803,432.76676 M 975.23553,386.01878 L 975.11319,405.63176 M 1028.7462,361.04378 L 1036.5002,380.43316 M 1089.4877,313.87394 C 1092.1118,315.43066 1094.4195,317.71721 1097.2418,319.04191 M 1099.1782,255.07301 C 1103.7218,253.68503 1108.2612,253.80316 1112.7499,252.48691 M 613.24991,406.27721 C 606.75726,415.25051 596.71664,413.71489 588.84021,419.83207 C 580.72334,426.14332 581.19584,437.39051 577.70694,445.69301 M 548.29382,215.75003 C 548.29382,215.75003 594.90678,213.16816 612.42726,214.26503 C 636.28851,215.75426 679.53914,226.19566 693.70569,232.90346 C 707.88069,239.61971 730.24851,253.78628 735.47132,270.19301 C 739.96851,284.34691 740.68569,295.54769 737.70303,302.25971 M 556.49507,218.73691 C 556.49507,218.73691 623.61116,210.53144 683.26851,235.88614 C 724.73039,253.51207 738.44553,276.90503 726.51491,302.25971 C 714.59271,327.61019 676.56069,379.80878 667.60851,391.73941 C 658.66053,403.67426 642.25803,432.75409 640.02209,443.94221 M 675.06303,387.27176 C 675.06303,387.27176 648.22334,428.28644 646.72991,443.94221 M 630.32319,444.68894 C 630.32319,444.68894 654.92694,399.94489 677.29896,369.37159 C 699.67101,338.79832 722.78976,305.98489 722.04303,284.35957 C 721.29632,262.73426 695.94584,242.60239 671.33789,235.88614 C 646.72991,229.17832 610.19132,218.73691 566.19396,221.71534 M 691.47396,250.80364 C 691.47396,250.80364 713.84178,263.48096 711.60584,288.83989 C 709.36569,314.18614 682.52178,352.21394 675.80976,361.16614 M 655.67366,389.50346 C 655.67366,389.50346 615.40991,437.97691 596.76726,446.18239 M 660.89646,392.49034 C 660.89646,392.49034 626.59382,434.99426 610.93382,446.18239"
       style="font-size:16px;font-style:normal;font-variant:normal;font-weight:normal;font-stretch:normal;text-align:start;line-height:125%;writing-mode:lr-tb;text-anchor:start;fill:none;stroke:#000000;stroke-width:3.1640625;stroke-linecap:round;stroke-linejoin:round;stroke-miterlimit:4;stroke-dasharray:none;stroke-opacity:1;font-family:Calibri;-inkscape-font-specification:Calibri"
       id="path389" />
    <path
       d="M 593.78039,223.21301 C 593.78039,223.21301 578.12459,220.23034 571.41257,231.41426 C 564.69632,242.60239 559.47771,253.03957 556.49507,265.71691 C 553.51241,278.39426 545.31116,290.32489 543.82194,293.30753 C 542.32851,296.29019 538.63709,311.06003 538.60334,318.66644 C 538.56116,326.80864 535.62069,347.75051 537.85664,346.25707 C 540.08834,344.76364 560.22444,326.86769 566.93646,319.41316 C 573.64851,311.95019 578.12459,300.76628 579.61382,290.32489 C 581.10303,279.88769 589.30428,264.22769 592.28694,257.51566 C 595.26959,250.80364 608.69366,229.17832 593.78039,223.21301"
       style="font-size:16px;font-style:normal;font-variant:normal;font-weight:normal;font-stretch:normal;text-align:start;line-height:125%;writing-mode:lr-tb;text-anchor:start;fill:#e7a8af;fill-opacity:1;fill-rule:nonzero;stroke:none;font-family:Calibri;-inkscape-font-specification:Calibri"
       id="path391" />
    <path
       d="M 593.78039,223.21301 C 593.78039,223.21301 578.12459,220.23034 571.41257,231.41426 C 564.69632,242.60239 559.47771,253.03957 556.49507,265.71691 C 553.51241,278.39426 545.31116,290.32489 543.82194,293.30753 C 542.32851,296.29019 538.63709,311.06003 538.60334,318.66644 C 538.56116,326.80864 535.62069,347.75051 537.85664,346.25707 C 540.08834,344.76364 560.22444,326.86769 566.93646,319.41316 C 573.64851,311.95019 578.12459,300.76628 579.61382,290.32489 C 581.10303,279.88769 589.30428,264.22769 592.28694,257.51566 C 595.26959,250.80364 608.69366,229.17832 593.78039,223.21301 z"
       style="font-size:16px;font-style:normal;font-variant:normal;font-weight:normal;font-stretch:normal;text-align:start;line-height:125%;writing-mode:lr-tb;text-anchor:start;fill:#ff6600;stroke:#000000;stroke-width:3.1640625;stroke-linecap:butt;stroke-linejoin:miter;stroke-miterlimit:4;stroke-dasharray:none;stroke-opacity:1;font-family:Calibri;-inkscape-font-specification:Calibri"
       id="path393" />
    <path
       d="M 627.33632,228.43159 C 627.33632,228.43159 612.42726,220.97707 603.47507,235.14364 C 594.52709,249.31441 601.23914,257.51566 593.03789,271.68221 C 584.83664,285.85721 572.15507,303.74894 572.90178,314.93284 C 573.64851,326.12096 573.64851,349.98221 573.64851,349.98221 C 573.64851,349.98221 589.30428,334.32644 593.78039,329.85034 C 598.25646,325.37426 604.96851,311.20769 609.44459,294.05846 C 613.91226,276.90503 622.86444,265.71691 625.10039,261.24503 C 627.33632,256.76894 644.48553,237.37957 627.33632,228.43159"
       style="font-size:16px;font-style:normal;font-variant:normal;font-weight:normal;font-stretch:normal;text-align:start;line-height:125%;writing-mode:lr-tb;text-anchor:start;fill:#e7a8af;fill-opacity:1;fill-rule:nonzero;stroke:none;font-family:Calibri;-inkscape-font-specification:Calibri"
       id="path395" />
    <path
       d="M 627.33632,228.43159 C 627.33632,228.43159 612.42726,220.97707 603.47507,235.14364 C 594.52709,249.31441 601.23914,257.51566 593.03789,271.68221 C 584.83664,285.85721 572.15507,303.74894 572.90178,314.93284 C 573.64851,326.12096 573.64851,349.98221 573.64851,349.98221 C 573.64851,349.98221 589.30428,334.32644 593.78039,329.85034 C 598.25646,325.37426 604.96851,311.20769 609.44459,294.05846 C 613.91226,276.90503 622.86444,265.71691 625.10039,261.24503 C 627.33632,256.76894 644.48553,237.37957 627.33632,228.43159 z"
       style="font-size:16px;font-style:normal;font-variant:normal;font-weight:normal;font-stretch:normal;text-align:start;line-height:125%;writing-mode:lr-tb;text-anchor:start;fill:#ff6600;stroke:#000000;stroke-width:3.1640625;stroke-linecap:butt;stroke-linejoin:miter;stroke-miterlimit:4;stroke-dasharray:none;stroke-opacity:1;font-family:Calibri;-inkscape-font-specification:Calibri"
       id="path397" />
    <path
       d="M 661.64319,238.12628 C 661.64319,238.12628 650.45507,232.16519 641.50289,238.12628 C 632.55914,244.08739 634.04834,254.53301 628.08303,264.97019 C 622.11771,275.41159 615.40991,291.07159 611.67632,295.54769 C 607.94694,300.02378 600.49241,317.91551 594.52709,332.09051 C 588.56178,346.25707 590.79771,361.17034 590.79771,361.17034 C 590.79771,361.17034 617.64584,345.50614 619.87757,340.28753 C 622.11771,335.07316 626.75834,331.22566 631.52132,313.01332 C 636.28428,294.80519 647.46819,277.65176 649.70834,273.17566 C 651.94851,268.69957 669.84444,245.58926 661.64319,238.12628"
       style="font-size:16px;font-style:normal;font-variant:normal;font-weight:normal;font-stretch:normal;text-align:start;line-height:125%;writing-mode:lr-tb;text-anchor:start;fill:#e7a8af;fill-opacity:1;fill-rule:nonzero;stroke:none;font-family:Calibri;-inkscape-font-specification:Calibri"
       id="path399" />
    <path
       d="M 661.64319,238.12628 C 661.64319,238.12628 650.45507,232.16519 641.50289,238.12628 C 632.55914,244.08739 634.04834,254.53301 628.08303,264.97019 C 622.11771,275.41159 615.40991,291.07159 611.67632,295.54769 C 607.94694,300.02378 600.49241,317.91551 594.52709,332.09051 C 588.56178,346.25707 590.79771,361.17034 590.79771,361.17034 C 590.79771,361.17034 617.64584,345.50614 619.87757,340.28753 C 622.11771,335.07316 626.75834,331.22566 631.52132,313.01332 C 636.28428,294.80519 647.46819,277.65176 649.70834,273.17566 C 651.94851,268.69957 669.84444,245.58926 661.64319,238.12628 z"
       style="font-size:16px;font-style:normal;font-variant:normal;font-weight:normal;font-stretch:normal;text-align:start;line-height:125%;writing-mode:lr-tb;text-anchor:start;fill:#ff6600;stroke:#000000;stroke-width:3.1640625;stroke-linecap:butt;stroke-linejoin:miter;stroke-miterlimit:4;stroke-dasharray:none;stroke-opacity:1;font-family:Calibri;-inkscape-font-specification:Calibri"
       id="path401" />
    <path
       d="M 545.18882,272.39096 C 545.18882,272.39096 498.21303,333.27176 498.25521,349.38316 C 498.31428,369.51926 493.11257,382.78721 479.68851,396.21551 C 466.26444,409.63957 467.75789,418.58332 467.75789,427.53128 C 467.75789,436.48769 464.77944,443.93801 464.77944,443.93801 M 537.58241,345.44284 C 537.58241,345.44284 525.10334,358.41128 522.86741,372.57784 C 520.63146,386.74864 521.44991,390.99269 511.75101,400.68316 C 502.06053,410.38207 493.11257,445.43144 493.11257,445.43144 M 573.64851,349.98221 C 573.64851,349.98221 555.26319,367.90769 552.29319,380.09566 C 548.71569,394.74316 555.00584,402.17659 546.80459,408.88864 C 538.60334,415.60909 529.65539,443.93801 529.65539,443.93801 M 590.79771,361.17034 C 590.79771,361.17034 572.15507,375.33691 570.66164,388.01003 C 569.17664,400.68316 566.18976,411.12457 560.22866,418.58753 C 554.26334,426.04628 546.80459,441.69784 546.80459,445.43144 M 547.55132,344.01691 C 547.55132,344.01691 540.83928,345.50614 535.62069,364.89551 C 530.39789,384.28066 531.14039,389.50346 522.19664,402.18082 C 513.24866,414.85816 503.54976,437.97691 504.29646,444.68894 M 580.36053,347.74628 C 580.36053,347.74628 575.88866,354.45409 567.68319,367.13144 C 559.47771,379.80878 557.98428,379.81301 557.24601,390.99691 C 556.49928,402.18082 559.47771,405.17191 552.76991,411.12878 C 546.05789,417.08989 537.10569,440.21707 536.36741,442.45301 M 607.20444,355.20082 C 607.20444,355.20082 583.34319,374.59019 580.36053,385.03159 C 577.37789,395.47301 579.61382,401.43832 573.64851,408.14614 C 567.68319,414.85816 558.73101,431.26489 555.00584,436.48769"
       style="font-size:16px;font-style:normal;font-variant:normal;font-weight:normal;font-stretch:normal;text-align:start;line-height:125%;writing-mode:lr-tb;text-anchor:start;fill:none;stroke:#000000;stroke-width:3.1640625;stroke-linecap:round;stroke-linejoin:round;stroke-miterlimit:4;stroke-dasharray:none;stroke-opacity:1;font-family:Calibri;-inkscape-font-specification:Calibri"
       id="path403" />
    <path
       d="M 561.11882,310.79003 C 561.11882,314.58269 558.03914,317.65394 554.25069,317.65394 C 550.45803,317.65394 547.38678,314.58269 547.38678,310.79003 C 547.38678,306.99739 550.45803,303.92614 554.25069,303.92614 C 558.03914,303.92614 561.11882,306.99739 561.11882,310.79003 z M 593.80991,313.40566 C 593.80991,317.19409 590.73021,320.26957 586.94601,320.26957 C 583.14914,320.26957 580.07789,317.19409 580.07789,313.40566 C 580.07789,309.61721 583.14914,306.54176 586.94601,306.54176 C 590.73021,306.54176 593.80991,309.61721 593.80991,313.40566 z M 617.02146,328.44551 C 617.02146,332.23816 613.94178,335.30519 610.15757,335.30519 C 606.36069,335.30519 603.28944,332.23816 603.28944,328.44551 C 603.28944,324.65284 606.36069,321.57739 610.15757,321.57739 C 613.94178,321.57739 617.02146,324.65284 617.02146,328.44551 z M 542.96132,318.38801 C 542.30741,320.24426 541.08396,321.99082 540.33303,323.85128 C 539.40914,326.13364 538.87757,328.51721 538.50632,330.91769 C 538.02539,334.09441 537.30819,337.93346 537.97896,341.16503 M 537.97896,343.91144 C 538.60334,343.31659 538.54428,342.11003 538.75944,341.26207 C 539.06319,340.07659 539.50194,338.90801 539.81834,337.73096 C 540.46803,335.32628 541.35396,333.02707 542.30319,330.72364 C 543.10476,328.77457 543.94007,327.16721 545.31539,325.58519 C 546.41646,324.31114 548.14616,322.72066 548.71569,321.13441 M 555.39396,322.70378 C 554.74007,328.05316 548.48366,330.92614 545.43771,334.85801 C 544.04553,336.65519 542.89382,338.51566 541.64507,340.38034 C 540.91944,341.46878 539.43866,343.60346 537.97896,343.51909 M 585.89976,325.84253 C 585.52851,327.39926 584.17007,328.89269 583.41069,330.29332 C 582.46569,332.01878 581.71476,333.87503 580.91741,335.67644 C 580.11584,337.50316 579.27209,339.19909 578.27226,340.92878 C 576.93914,343.24909 575.75366,346.00816 574.11678,348.10489 M 598.85976,334.87909 C 598.46319,335.71864 597.34944,336.52019 596.70396,337.26691 C 595.72101,338.40176 595.02491,339.46909 594.26976,340.75159 C 593.27414,342.47707 592.39664,344.05909 592.04646,346.05034 C 591.35459,349.96114 591.68789,354.00269 590.86944,357.92191 M 577.78289,323.09614 C 577.77866,330.90503 577.89678,337.93769 575.16303,345.21926 M 603.83366,339.19909 C 599.31959,341.26207 596.39178,344.51051 594.31616,348.92332 C 593.59896,350.43784 592.89866,351.90596 592.40928,353.50909 C 591.94521,355.01096 592.07601,356.59721 591.65834,358.05269 M 608.80757,342.47284 C 607.68116,344.48941 604.56351,345.83941 602.64396,347.05864 C 600.72021,348.28207 598.99476,349.96534 597.80507,351.89332 C 596.21039,354.46676 594.48491,357.01066 591.65834,358.44503"
       style="font-size:16px;font-style:normal;font-variant:normal;font-weight:normal;font-stretch:normal;text-align:start;line-height:125%;writing-mode:lr-tb;text-anchor:start;fill:#800000;stroke:#000000;stroke-width:3.1640625;stroke-linecap:round;stroke-linejoin:round;stroke-miterlimit:4;stroke-dasharray:none;stroke-opacity:1;font-family:Calibri;-inkscape-font-specification:Calibri"
       id="path405" />
    <g
       transform="matrix(4.21875,0,0,-4.21875,-102.42728,1142.2804)"
       id="g407"
       style="font-size:16px;font-style:normal;font-variant:normal;font-weight:normal;font-stretch:normal;text-align:start;line-height:125%;writing-mode:lr-tb;text-anchor:start;stroke:#ffffff;font-family:Calibri;-inkscape-font-specification:Calibri">
      <g
         id="g409"
         clip-path="url(#clipPath411)"
         style="font-size:16px;font-style:normal;font-variant:normal;font-weight:normal;font-stretch:normal;text-align:start;line-height:125%;writing-mode:lr-tb;text-anchor:start;stroke:#ffffff;font-family:Calibri;-inkscape-font-specification:Calibri">
        <path
           d="M 266.915,236.903 C 266.915,236.903 276.721,245.11 285.672,242.446 C 294.625,239.781 298.569,233.812 298.355,228.91 M 251.248,237.117 C 251.248,237.117 261.585,237.117 266.808,239.994 M 257.215,239.036 C 258.581,238.999 260.289,240.35 261.373,241.086 C 262.999,242.19 264.526,243.516 266.253,244.455 C 269.797,246.383 273.728,246.102 277.359,247.667 M 279.917,248.414 C 283.991,249.226 286.888,252.592 290.303,254.566 C 293.365,256.336 296.684,257.127 300.06,257.686 M 274.162,244.364 C 279.181,244.215 283.304,247.594 287.671,249.372 C 290.203,250.404 292.939,251.29 295.584,251.824 C 297.185,252.147 298.036,252.251 300.7,251.931 M 285.139,245.963 C 287.706,247.325 292.21,247.021 294.865,246.089 C 296.417,245.545 299.899,244.401 300.38,242.552 M 291.428,243.937 C 292.998,243.636 295.091,242.522 296.311,241.511 C 297.189,240.784 298.905,239.735 298.887,238.502 M 280.237,242.871 C 280.237,242.871 288.977,239.567 293.667,232.746 M 275.441,241.592 C 275.441,241.592 282.493,240.778 288.657,232.853 C 294.625,225.18 295.158,224.433 295.691,223.474 C 296.223,222.515 298.996,217.719 298.888,210.472 M 272.244,240.207 C 272.244,240.207 281.729,237.863 286.631,230.829 M 269.578,238.501 C 269.578,238.501 282.369,234.878 287.165,225.287 M 289.083,227.95 C 289.083,227.95 293.345,221.663 294.091,213.776"
           style="font-size:16px;font-style:normal;font-variant:normal;font-weight:normal;font-stretch:normal;text-align:start;line-height:125%;writing-mode:lr-tb;text-anchor:start;fill:none;stroke:#ffffff;stroke-width:0.75;stroke-linecap:round;stroke-linejoin:round;stroke-miterlimit:4;stroke-dasharray:none;stroke-opacity:1;font-family:Calibri;-inkscape-font-specification:Calibri"
           id="path415" />
        <path
           d="M 294.198,208.448 C 294.198,208.448 295.101,198.189 290.574,191.395 M 288.252,222.522 C 288.252,222.522 293.478,212.068 290.054,199.991 M 299.068,202.515 C 299.068,202.515 300.87,182.868 287.17,170.07 M 281.402,167.006 C 281.402,167.006 280.863,165.923 273.652,165.023 M 236.159,168.807 C 236.881,168.989 250.4,168.807 259.592,174.215 M 232.375,167.006 C 232.375,167.006 244.27,163.762 261.575,170.07 M 265,176.199 C 265,176.199 272.209,178.362 275.995,181.966 M 289.333,196.927 C 289.333,196.927 285.007,188.817 280.501,185.392 M 286.99,186.292 C 286.99,186.292 281.042,178.723 275.274,175.659 M 270.586,173.675 L 265,171.332 M 290.054,185.571 C 290.054,185.571 285.909,178.901 282.123,175.837 M 277.797,172.593 C 277.797,172.593 273.291,168.267 264.279,166.285 M 288.792,176.559 C 288.792,176.559 286.449,172.594 281.042,169.709"
           style="font-size:16px;font-style:normal;font-variant:normal;font-weight:normal;font-stretch:normal;text-align:start;line-height:125%;writing-mode:lr-tb;text-anchor:start;fill:none;stroke:#ffffff;stroke-width:0.75;stroke-linecap:round;stroke-linejoin:round;stroke-miterlimit:4;stroke-dasharray:none;stroke-opacity:1;font-family:Calibri;-inkscape-font-specification:Calibri"
           id="path417" />
      </g>
    </g>
    <path
       d="M 1150.8959,257.50301 C 1150.8959,257.50301 1153.1782,278.79503 1151.6552,288.68378"
       style="font-size:16px;font-style:normal;font-variant:normal;font-weight:normal;font-stretch:normal;text-align:start;line-height:125%;writing-mode:lr-tb;text-anchor:start;fill:none;stroke:#ffffff;stroke-width:3.1640625;stroke-linecap:round;stroke-linejoin:round;stroke-miterlimit:4;stroke-dasharray:none;stroke-opacity:1;font-family:Calibri;-inkscape-font-specification:Calibri"
       id="path419" />
    <path
       d="M 1149.3771,306.93409 C 1149.3771,306.93409 1141.0156,354.83801 1131.8862,367.76846"
       style="font-size:16px;font-style:normal;font-variant:normal;font-weight:normal;font-stretch:normal;text-align:start;line-height:125%;writing-mode:lr-tb;text-anchor:start;fill:none;stroke:#ffffff;stroke-width:3.1640625;stroke-linecap:round;stroke-linejoin:round;stroke-miterlimit:4;stroke-dasharray:none;stroke-opacity:1;font-family:Calibri;-inkscape-font-specification:Calibri"
       id="path421" />
    <path
       d="M 495.63959,170.86253 C 495.63959,170.86253 463.78803,186.59426 450.13194,180.84409"
       style="font-size:16px;font-style:normal;font-variant:normal;font-weight:normal;font-stretch:normal;text-align:start;line-height:125%;writing-mode:lr-tb;text-anchor:start;fill:none;stroke:#ffffff;stroke-width:3.1640625;stroke-linecap:round;stroke-linejoin:round;stroke-miterlimit:4;stroke-dasharray:none;stroke-opacity:1;font-family:Calibri;-inkscape-font-specification:Calibri"
       id="path423" />
    <g
       transform="matrix(4.21875,0,0,-4.21875,-102.42728,1142.2804)"
       id="g425"
       style="font-size:16px;font-style:normal;font-variant:normal;font-weight:normal;font-stretch:normal;text-align:start;line-height:125%;writing-mode:lr-tb;text-anchor:start;stroke:#ffffff;font-family:Calibri;-inkscape-font-specification:Calibri">
      <g
         id="g427"
         style="font-size:16px;font-style:normal;font-variant:normal;font-weight:normal;font-stretch:normal;text-align:start;line-height:125%;writing-mode:lr-tb;text-anchor:start;stroke:#ffffff;font-family:Calibri;-inkscape-font-specification:Calibri">
        <path
           d="M 129.306,226.576 C 130.956,225.153 134.279,225.959 136.29,226.103 C 138.919,226.29 141.547,225.851 143.956,224.702 M 143.88,228.822 C 146.49,228.142 150.363,226.996 152.228,224.905 M 147.216,231.196 C 149.961,231.338 153.209,230.01 155.564,228.811 M 157.532,234.016 C 161.537,233.389 167.485,232.359 170.137,229.077 M 247.707,235.019 C 252.115,234.37 256.221,233.885 260.654,234.167 M 236.861,235.72 C 239.685,235.956 241.716,234.133 244.015,232.957 C 246.372,231.751 249.348,230.95 252.022,230.951 M 227.895,236.029 C 231.715,236.475 234.95,231.955 238.626,231.26 M 242.842,230.154 C 244.349,229.942 245.953,229.211 247.479,229 C 248.863,228.807 250.754,228.929 252.041,228.451 M 214.01,237.531 C 217.818,237.264 221.265,235.861 224.742,234.464 C 227.138,233.501 230.004,231.45 232.242,230.026 C 236.97,227.019 240.073,225.947 246.375,224.584 M 219.047,234.369 C 222.876,232.958 226.079,230.255 229.771,228.449 C 232.672,227.029 237.142,224.476 240.341,224.148 M 203.387,238.168 C 207.087,236.624 209.62,235.648 212.922,233.351 C 215.636,231.465 218.506,229.344 221.445,227.948 M 225.328,226.406 C 228.735,223.85 235.551,221.04 239.126,221.125 M 201.357,235.548 C 201.357,235.548 208.34,231.8 214.985,226.52 C 221.628,221.239 230.997,218.172 232.531,218.002 M 178.889,238.244 C 178.889,238.244 191.666,238.244 209.212,225.126 M 169.286,236.679 C 169.286,236.679 178.655,235.997 188.025,228.331 M 192.527,227.332 C 192.527,227.332 205.131,217.112 212.627,215.579 M 202.715,225.213 C 202.715,225.213 214.471,216.526 222.988,215.503 M 163.93,235.518 C 163.93,235.518 169.212,235.177 175.344,231.088 M 177.618,231.37 C 177.618,231.37 183.581,227.792 187.329,224.726 C 191.076,221.66 194.481,219.616 195.334,219.275 M 171.616,228.482 C 176.646,225.075 175.886,226.131 177.613,224.02 M 163.408,229.503 C 163.408,229.503 168.548,226.024 169.912,224.83 M 159.181,228.28 C 159.181,228.28 161.955,226.368 163.148,224.834 M 147.161,229.77 C 147.161,229.77 151.93,228.407 153.975,226.533"
           style="font-size:16px;font-style:normal;font-variant:normal;font-weight:normal;font-stretch:normal;text-align:start;line-height:125%;writing-mode:lr-tb;text-anchor:start;fill:none;stroke:#ffffff;stroke-width:0.75;stroke-linecap:round;stroke-linejoin:round;stroke-miterlimit:4;stroke-dasharray:none;stroke-opacity:1;font-family:Calibri;-inkscape-font-specification:Calibri"
           id="path433" />
        <path
           d="M 67.232,170.07 C 67.232,170.07 86.187,165.84 112.955,164.218 M 67.593,155.2 C 67.593,155.2 93.672,163.31 103.946,163.04 M 67.323,158.444 C 67.323,158.444 89.346,163.31 99.89,163.31 M 67.323,167.636 C 67.323,167.636 82.586,163.852 99.08,163.582 M 67.323,164.663 C 67.323,164.663 81.505,162.77 92.049,162.77 M 67.323,161.418 C 67.323,161.418 74.746,161.688 76.909,161.958"
           style="font-size:16px;font-style:normal;font-variant:normal;font-weight:normal;font-stretch:normal;text-align:start;line-height:125%;writing-mode:lr-tb;text-anchor:start;fill:none;stroke:#ffffff;stroke-width:0.75;stroke-linecap:round;stroke-linejoin:round;stroke-miterlimit:4;stroke-dasharray:none;stroke-opacity:1;font-family:Calibri;-inkscape-font-specification:Calibri"
           id="path435" />
      </g>
    </g>
    <path
       d="M 706.80491,238.86878 C 706.80491,238.86878 747.86601,258.26659 761.55584,290.19832 C 775.24569,322.13846 800.33882,379.17176 800.33882,399.70441 C 800.33882,420.23707 804.16521,431.99894 799.60476,441.11989 M 746.72694,254.84096 C 746.72694,254.84096 770.68101,279.93409 778.66709,303.88816 C 786.64896,327.84644 803.75601,389.43596 811.74632,403.13003 C 819.72396,416.81144 835.22789,437.97691 835.22789,437.97691 M 689.69366,228.60457 C 689.69366,228.60457 747.86601,241.15534 770.68101,299.32769 C 793.49601,357.50003 803.75601,390.57926 803.75601,390.57926 C 803.75601,390.57926 816.30678,425.94082 826.57521,437.34832 M 808.32069,439.62644 C 808.32069,439.62644 809.46396,408.82957 803.75601,390.57926 M 816.30678,439.62644 L 807.18584,407.68628 M 835.22789,437.97691 C 835.22789,437.97691 831.65039,429.99926 818.35289,407.39096 C 805.05959,384.78269 799.94646,361.70191 798.84116,355.71128 C 797.74428,349.72909 794.62241,333.56284 790.93101,320.37926 C 787.72053,308.90846 773.52866,286.10191 773.52866,286.10191 C 773.52866,286.10191 787.93146,291.46394 799.89584,291.90269 M 740.02334,249.25957 C 740.02334,249.25957 768.45771,271.61471 790.40366,270.28159 M 754.20257,262.78489 C 754.20257,262.78489 775.97553,277.71926 793.04039,276.60971 M 761.96084,272.31503 C 761.96084,272.31503 779.27882,283.27534 795.67709,285.04721"
       style="font-size:16px;font-style:normal;font-variant:normal;font-weight:normal;font-stretch:normal;text-align:start;line-height:125%;writing-mode:lr-tb;text-anchor:start;fill:none;stroke:#000000;stroke-width:3.1640625;stroke-linecap:round;stroke-linejoin:round;stroke-miterlimit:4;stroke-dasharray:none;stroke-opacity:1;font-family:Calibri;-inkscape-font-specification:Calibri"
       id="path437" />
    <g
       transform="matrix(4.21875,0,0,-4.21875,-102.42728,1142.2804)"
       id="g439"
       style="font-size:16px;font-style:normal;font-variant:normal;font-weight:normal;font-stretch:normal;text-align:start;line-height:125%;writing-mode:lr-tb;text-anchor:start;font-family:Calibri;-inkscape-font-specification:Calibri">
      <g
         id="g441"
         clip-path="url(#clipPath443)"
         style="font-size:16px;font-style:normal;font-variant:normal;font-weight:normal;font-stretch:normal;text-align:start;line-height:125%;writing-mode:lr-tb;text-anchor:start;font-family:Calibri;-inkscape-font-specification:Calibri">
        <path
           d="M 300.509,135.956 C 300.509,135.956 300.515,135.194 293.745,136.324 C 286.973,137.452 283.024,136.512 278.322,139.521 C 273.621,142.53 269.106,142.718 266.661,144.411 C 264.216,146.103 265.91,144.975 262.148,147.796 C 258.385,150.617 255,150.617 255,150.617 C 255,150.617 254.922,153.337 252.509,153.739 C 248.545,154.398 248.228,151.747 249.357,150.241 C 250.487,148.736 252.367,147.983 254.248,148.547 C 254.248,148.547 255.187,147.043 258.573,144.975 C 261.959,142.906 261.207,144.411 264.216,141.966 C 267.225,139.521 270.611,136.512 275.689,135.571 C 280.767,134.629 280.579,135.005 283.4,134.254 C 286.221,133.501 290.922,132.374 293.932,132.185 C 296.942,131.998 300.509,132.381 300.509,132.381 L 300.509,135.956"
           style="font-size:16px;font-style:normal;font-variant:normal;font-weight:normal;font-stretch:normal;text-align:start;line-height:125%;writing-mode:lr-tb;text-anchor:start;fill:#fffbf2;fill-opacity:1;fill-rule:nonzero;stroke:none;font-family:Calibri;-inkscape-font-specification:Calibri"
           id="path447" />
        <g
           id="g449"
           style="font-size:16px;font-style:normal;font-variant:normal;font-weight:normal;font-stretch:normal;text-align:start;line-height:125%;writing-mode:lr-tb;text-anchor:start;font-family:Calibri;-inkscape-font-specification:Calibri">
          <path
             d="M 300.509,135.956 C 300.509,135.956 300.515,135.194 293.745,136.324 C 286.973,137.452 283.024,136.512 278.322,139.521 C 273.621,142.53 269.106,142.718 266.661,144.411 C 264.216,146.103 265.91,144.975 262.148,147.796 C 258.385,150.617 255,150.617 255,150.617 C 255,150.617 254.922,153.337 252.509,153.739 C 248.545,154.398 248.228,151.747 249.357,150.241 C 250.487,148.736 252.367,147.983 254.248,148.547 C 254.248,148.547 255.187,147.043 258.573,144.975 C 261.959,142.906 261.207,144.411 264.216,141.966 C 267.225,139.521 270.611,136.512 275.689,135.571 C 280.767,134.629 280.579,135.005 283.4,134.254 C 286.221,133.501 290.922,132.374 293.932,132.185 C 296.942,131.998 300.509,132.381 300.509,132.381 L 300.509,135.956"
             style="font-size:16px;font-style:normal;font-variant:normal;font-weight:normal;font-stretch:normal;text-align:start;line-height:125%;writing-mode:lr-tb;text-anchor:start;fill:#ffffff;stroke:none;font-family:Calibri;-inkscape-font-specification:Calibri"
             id="path457" />
        </g>
      </g>
    </g>
    <g
       transform="matrix(4.21875,0,0,-4.21875,-102.42728,1142.2804)"
       id="g459"
       style="font-size:16px;font-style:normal;font-variant:normal;font-weight:normal;font-stretch:normal;text-align:start;line-height:125%;writing-mode:lr-tb;text-anchor:start;font-family:Calibri;-inkscape-font-specification:Calibri">
      <g
         id="g461"
         clip-path="url(#clipPath463)"
         style="font-size:16px;font-style:normal;font-variant:normal;font-weight:normal;font-stretch:normal;text-align:start;line-height:125%;writing-mode:lr-tb;text-anchor:start;font-family:Calibri;-inkscape-font-specification:Calibri">
        <path
           d="M 300.509,135.956 C 300.509,135.956 300.515,135.194 293.745,136.324 C 286.973,137.452 283.024,136.512 278.322,139.521 C 273.621,142.53 269.106,142.718 266.661,144.411 C 264.216,146.103 265.91,144.975 262.148,147.796 C 258.385,150.617 255,150.617 255,150.617 C 255,150.617 254.922,153.337 252.509,153.739 C 248.545,154.398 248.228,151.747 249.357,150.241 C 250.487,148.736 252.367,147.983 254.248,148.547 C 254.248,148.547 255.187,147.043 258.573,144.975 C 261.959,142.906 261.207,144.411 264.216,141.966 C 267.225,139.521 270.611,136.512 275.689,135.571 C 280.767,134.629 280.579,135.005 283.4,134.254 C 286.221,133.501 290.922,132.374 293.932,132.185 C 296.942,131.998 300.509,132.381 300.509,132.381 L 300.509,135.956 z"
           style="font-size:16px;font-style:normal;font-variant:normal;font-weight:normal;font-stretch:normal;text-align:start;line-height:125%;writing-mode:lr-tb;text-anchor:start;fill:none;stroke:#f6ca00;stroke-width:0.75;stroke-linecap:round;stroke-linejoin:round;stroke-miterlimit:4;stroke-dasharray:none;stroke-opacity:1;font-family:Calibri;-inkscape-font-specification:Calibri"
           id="path467" />
      </g>
    </g>
    <g
       transform="matrix(4.21875,0,0,-4.21875,-102.42728,1142.2804)"
       id="g469"
       style="font-size:16px;font-style:normal;font-variant:normal;font-weight:normal;font-stretch:normal;text-align:start;line-height:125%;writing-mode:lr-tb;text-anchor:start;font-family:Calibri;-inkscape-font-specification:Calibri">
      <g
         id="g471"
         clip-path="url(#clipPath473)"
         style="font-size:16px;font-style:normal;font-variant:normal;font-weight:normal;font-stretch:normal;text-align:start;line-height:125%;writing-mode:lr-tb;text-anchor:start;font-family:Calibri;-inkscape-font-specification:Calibri">
        <path
           d="M 242.399,151.558 C 242.399,151.558 244.622,153.405 246.348,151.934 C 247.766,150.725 248.229,147.984 248.229,147.984 C 248.229,147.984 251.05,147.985 252.931,146.667 C 254.812,145.351 256.318,144.036 259.138,142.342 C 261.959,140.649 261.958,141.025 265.909,138.767 C 269.859,136.51 270.422,134.818 273.997,134.254 C 277.569,133.69 278.51,134.443 281.519,133.314 C 284.528,132.185 283.211,131.056 286.785,131.433 C 290.359,131.809 296.001,131.056 297.13,131.056 C 298.258,131.056 300.509,130.876 300.509,130.876 L 300.509,126.74 C 300.509,126.74 299.2,126.918 294.874,127.107 C 290.547,127.294 286.974,127.86 284.905,128.988 C 282.836,130.116 282.835,130.494 279.451,130.494 C 276.066,130.494 275.877,129.553 271.74,130.68 C 267.601,131.809 264.029,132.749 262.523,134.442 C 261.018,136.135 259.138,137.076 257.822,137.452 C 256.504,137.828 254.999,138.39 253.683,139.144 C 252.368,139.897 250.297,141.965 249.168,143.282 C 248.042,144.598 247.288,146.103 247.288,146.103 C 247.288,146.103 243.904,146.292 242.962,146.856 C 242.022,147.42 240.477,149.461 242.399,151.558"
           style="font-size:16px;font-style:normal;font-variant:normal;font-weight:normal;font-stretch:normal;text-align:start;line-height:125%;writing-mode:lr-tb;text-anchor:start;fill:#fffbf2;fill-opacity:1;fill-rule:nonzero;stroke:none;font-family:Calibri;-inkscape-font-specification:Calibri"
           id="path477" />
        <g
           id="g479"
           style="font-size:16px;font-style:normal;font-variant:normal;font-weight:normal;font-stretch:normal;text-align:start;line-height:125%;writing-mode:lr-tb;text-anchor:start;font-family:Calibri;-inkscape-font-specification:Calibri">
          <path
             d="M 242.399,151.558 C 242.399,151.558 244.622,153.405 246.348,151.934 C 247.766,150.725 248.229,147.984 248.229,147.984 C 248.229,147.984 251.05,147.985 252.931,146.667 C 254.812,145.351 256.318,144.036 259.138,142.342 C 261.959,140.649 261.958,141.025 265.909,138.767 C 269.859,136.51 270.422,134.818 273.997,134.254 C 277.569,133.69 278.51,134.443 281.519,133.314 C 284.528,132.185 283.211,131.056 286.785,131.433 C 290.359,131.809 296.001,131.056 297.13,131.056 C 298.258,131.056 300.509,130.876 300.509,130.876 L 300.509,126.74 C 300.509,126.74 299.2,126.918 294.874,127.107 C 290.547,127.294 286.974,127.86 284.905,128.988 C 282.836,130.116 282.835,130.494 279.451,130.494 C 276.066,130.494 275.877,129.553 271.74,130.68 C 267.601,131.809 264.029,132.749 262.523,134.442 C 261.018,136.135 259.138,137.076 257.822,137.452 C 256.504,137.828 254.999,138.39 253.683,139.144 C 252.368,139.897 250.297,141.965 249.168,143.282 C 248.042,144.598 247.288,146.103 247.288,146.103 C 247.288,146.103 243.904,146.292 242.962,146.856 C 242.022,147.42 240.477,149.461 242.399,151.558"
             style="font-size:16px;font-style:normal;font-variant:normal;font-weight:normal;font-stretch:normal;text-align:start;line-height:125%;writing-mode:lr-tb;text-anchor:start;fill:#ffffff;stroke:none;font-family:Calibri;-inkscape-font-specification:Calibri"
             id="path487" />
        </g>
      </g>
    </g>
    <g
       transform="matrix(4.21875,0,0,-4.21875,-102.42728,1142.2804)"
       id="g489"
       style="font-size:16px;font-style:normal;font-variant:normal;font-weight:normal;font-stretch:normal;text-align:start;line-height:125%;writing-mode:lr-tb;text-anchor:start;font-family:Calibri;-inkscape-font-specification:Calibri">
      <g
         id="g491"
         clip-path="url(#clipPath493)"
         style="font-size:16px;font-style:normal;font-variant:normal;font-weight:normal;font-stretch:normal;text-align:start;line-height:125%;writing-mode:lr-tb;text-anchor:start;font-family:Calibri;-inkscape-font-specification:Calibri">
        <path
           d="M 242.399,151.558 C 242.399,151.558 244.622,153.405 246.348,151.934 C 247.766,150.725 248.229,147.984 248.229,147.984 C 248.229,147.984 251.05,147.985 252.931,146.667 C 254.812,145.351 256.318,144.036 259.138,142.342 C 261.959,140.649 261.958,141.025 265.909,138.767 C 269.859,136.51 270.422,134.818 273.997,134.254 C 277.569,133.69 278.51,134.443 281.519,133.314 C 284.528,132.185 283.211,131.056 286.785,131.433 C 290.359,131.809 296.001,131.056 297.13,131.056 C 298.258,131.056 300.509,130.876 300.509,130.876 L 300.509,126.74 C 300.509,126.74 299.2,126.918 294.874,127.107 C 290.547,127.294 286.974,127.86 284.905,128.988 C 282.836,130.116 282.835,130.494 279.451,130.494 C 276.066,130.494 275.877,129.553 271.74,130.68 C 267.601,131.809 264.029,132.749 262.523,134.442 C 261.018,136.135 259.138,137.076 257.822,137.452 C 256.504,137.828 254.999,138.39 253.683,139.144 C 252.368,139.897 250.297,141.965 249.168,143.282 C 248.042,144.598 247.288,146.103 247.288,146.103 C 247.288,146.103 243.904,146.292 242.962,146.856 C 242.022,147.42 240.477,149.461 242.399,151.558 z M 242.817,150.33 C 242.512,149.936 242.553,149.355 242.902,148.997 C 243.264,148.62 243.573,148.756 244.084,148.81 C 244.985,148.901 244.888,148.62 245.442,148.004 C 245.931,147.46 246.653,146.968 247.229,147.723 M 250.237,152.536 C 250.974,153.027 252.906,152.403 253.165,151.539 C 253.26,151.218 252.942,150.914 253.087,150.549 C 253.24,150.17 253.75,149.958 254.114,149.862 M 244.42,151.199 C 243.66,150.592 244.818,150.325 245.204,150.249 C 246.02,150.084 246.789,149.463 246.16,148.591 M 250.169,151.6 C 249.811,150.515 250.649,150.415 251.435,150.33 C 251.794,150.291 251.852,150.371 252.108,150.116 C 252.372,149.852 252.196,149.318 252.709,149.393 M 255.518,149.393 C 256.565,148.721 258.121,148.494 259.291,147.975 C 260.488,147.445 261.485,146.736 262.456,145.863 C 264.176,144.318 266.011,142.723 268.2,141.842 C 270.859,140.772 273.63,140.033 276.249,138.846 C 278.269,137.929 280.174,136.833 282.375,136.43 C 283.017,136.312 283.724,136.286 284.328,136.025 C 284.328,136.025 285.932,135.492 287.537,135.558 C 289.141,135.625 292.148,135.158 294.889,134.824 C 297.629,134.489 300.312,134.752 300.509,134.821 M 248.431,146.453 C 248.417,145.707 249.419,144.907 249.887,144.362 C 250.393,143.775 250.881,143.157 251.423,142.588 C 252.768,141.181 254.437,140.24 256.184,139.449 C 258.135,138.563 260.192,137.832 262.142,136.961 C 263.238,136.472 264.266,135.768 264.943,134.755 C 264.943,134.755 265.477,133.686 267.082,133.151 C 268.686,132.617 271.159,131.815 273.031,131.815 C 274.903,131.815 279.115,131.814 280.317,131.48 M 285.464,129.743 C 285.464,129.743 289.007,128.806 292.282,128.539 C 295.557,128.271 300.509,128.002 300.509,128.002 M 287.001,130.277 C 287.001,130.277 290.611,130.477 292.951,130.143 C 295.291,129.809 300.509,129.472 300.509,129.472 M 249.634,146.586 C 249.634,146.586 252.175,145.986 253.78,144.448 C 255.383,142.91 257.458,141.572 260.129,140.236 C 262.803,138.9 265.21,138.097 266.614,136.895 C 268.018,135.692 270.824,133.687 273.097,133.286 C 275.371,132.884 280.383,133.353 282.188,132.083 M 250.37,145.117 C 250.37,145.117 251.774,143.712 254.046,142.108 C 256.32,140.504 259.061,139.367 261.734,138.364 C 264.408,137.363 265.613,136.092 266.28,135.357 C 266.948,134.622 269.821,133.218 270.624,133.017 M 256.186,148.057 C 256.186,148.057 258.125,146.253 259.662,145.584 C 261.2,144.916 263.873,143.645 265.411,142.242 C 266.949,140.837 270.691,138.966 273.499,137.963 C 276.306,136.962 280.049,135.892 280.317,135.826 C 280.317,135.826 282.256,135.492 283.66,135.09 C 285.064,134.689 292.818,133.486 295.826,133.286 C 298.833,133.084 300.509,133.417 300.509,133.417"
           style="font-size:16px;font-style:normal;font-variant:normal;font-weight:normal;font-stretch:normal;text-align:start;line-height:125%;writing-mode:lr-tb;text-anchor:start;fill:none;stroke:#f6ca00;stroke-width:0.75;stroke-linecap:round;stroke-linejoin:round;stroke-miterlimit:4;stroke-dasharray:none;stroke-opacity:1;font-family:Calibri;-inkscape-font-specification:Calibri"
           id="path497" />
      </g>
    </g>
    <path
       d="M 820.86726,325.84253 C 833.56991,327.53846 838.83069,349.84721 838.26116,365.76878 C 838.04601,371.94503 838.53116,382.96441 830.84882,384.59284 C 822.56741,386.33519 817.22226,380.28971 813.15959,374.24426 C 808.10976,366.73489 806.04257,355.81676 806.04257,346.88566 C 806.04257,338.50721 806.41803,330.94721 814.88084,326.69894 C 814.88084,326.69894 816.58944,325.27301 820.86726,325.84253 z"
       style="font-size:16px;font-style:normal;font-variant:normal;font-weight:normal;font-stretch:normal;text-align:start;line-height:125%;writing-mode:lr-tb;text-anchor:start;fill:none;stroke:#000000;stroke-width:3.1640625;stroke-linecap:round;stroke-linejoin:round;stroke-miterlimit:4;stroke-dasharray:none;stroke-opacity:1;font-family:Calibri;-inkscape-font-specification:Calibri"
       id="path499" />
    <path
       d="M 620.49351,346.10096 C 620.49351,346.10096 628.76421,345.69797 639.3308,345.78244 C 654.39275,345.9029 674.11944,347.01397 681.20553,351.69503"
       style="font-size:16px;font-style:normal;font-variant:normal;font-weight:normal;font-stretch:normal;text-align:start;line-height:125%;writing-mode:lr-tb;text-anchor:start;fill:#c83737;stroke:#000000;stroke-width:3.1640625;stroke-linecap:round;stroke-linejoin:round;stroke-miterlimit:4;stroke-dasharray:none;stroke-opacity:1;font-family:Calibri;-inkscape-font-specification:Calibri"
       id="path501"
       sodipodi:nodetypes="csc" />
    <path
       d="M 730.72521,362.25034 L 703.37928,349.54346 L 708.33209,342.86941 C 708.33209,342.86941 724.05116,347.17676 737.61866,353.63566 C 746.41896,357.82489 754.84382,364.40614 783.47646,372.36691 C 783.47646,372.36691 784.55226,386.35628 780.46007,393.46489 C 780.46007,393.46489 761.50944,386.14114 752.67959,381.62284 C 743.85396,377.10878 724.26632,368.92019 710.48366,366.76864 C 710.48366,366.76864 697.67976,364.34284 693.49896,363.20378 L 699.29553,354.93082 L 730.72521,362.25034"
       style="font-size:16px;font-style:normal;font-variant:normal;font-weight:normal;font-stretch:normal;text-align:start;line-height:125%;writing-mode:lr-tb;text-anchor:start;fill:#ebc3c6;fill-opacity:1;fill-rule:nonzero;stroke:none;font-family:Calibri;-inkscape-font-specification:Calibri"
       id="path503" />
    <path
       d="M 730.72521,362.25034 L 703.37928,349.54346 L 708.33209,342.86941 C 708.33209,342.86941 724.05116,347.17676 737.61866,353.63566 C 746.41896,357.82489 754.84382,364.40614 783.47646,372.36691 C 783.47646,372.36691 784.55226,386.35628 780.46007,393.46489 C 780.46007,393.46489 761.50944,386.14114 752.67959,381.62284 C 743.85396,377.10878 724.26632,368.92019 710.48366,366.76864 C 710.48366,366.76864 697.67976,364.34284 693.49896,363.20378 L 699.29553,354.93082 L 730.72521,362.25034 z M 698.05944,359.01878 C 698.05944,359.01878 724.67553,363.96316 737.60601,369.66691 C 750.52803,375.36644 781.70882,387.15364 781.70882,387.15364 M 707.56851,346.85614 C 707.56851,346.85614 732.28194,356.36096 738.36116,360.92144 C 744.44882,365.48614 779.04678,379.55566 782.46396,379.93114"
       style="font-size:16px;font-style:normal;font-variant:normal;font-weight:normal;font-stretch:normal;text-align:start;line-height:125%;writing-mode:lr-tb;text-anchor:start;fill:#c83737;stroke:#000000;stroke-width:3.1640625;stroke-linecap:round;stroke-linejoin:round;stroke-miterlimit:4;stroke-dasharray:none;stroke-opacity:1;font-family:Calibri;-inkscape-font-specification:Calibri"
       id="path505" />
    <path
       d="M 390.63069,275.76176 C 390.63069,282.62989 386.33178,288.19019 381.04146,288.19019 C 375.74271,288.19019 371.45226,282.62989 371.45226,275.76176 C 371.45226,268.90207 375.74271,263.33332 381.04146,263.33332 C 386.33178,263.33332 390.63069,268.90207 390.63069,275.76176"
       style="font-size:16px;font-style:normal;font-variant:normal;font-weight:normal;font-stretch:normal;text-align:start;line-height:125%;writing-mode:lr-tb;text-anchor:start;fill:#d40000;fill-opacity:1;fill-rule:nonzero;stroke:none;font-family:Calibri;-inkscape-font-specification:Calibri"
       id="path507" />
    <path
       d="M 433.24007,307.01003 C 433.24007,314.27471 429.26601,320.15566 424.36382,320.15566 C 419.45741,320.15566 415.48334,314.27471 415.48334,307.01003 C 415.48334,299.75801 419.45741,293.87284 424.36382,293.87284 C 429.26601,293.87284 433.24007,299.75801 433.24007,307.01003"
       style="font-size:16px;font-style:normal;font-variant:normal;font-weight:normal;font-stretch:normal;text-align:start;line-height:125%;writing-mode:lr-tb;text-anchor:start;fill:#d40000;fill-opacity:1;fill-rule:nonzero;stroke:none;font-family:Calibri;-inkscape-font-specification:Calibri"
       id="path509" />
    <path
       d="M 464.72459,322.23971 C 462.64053,329.79971 457.88601,335.09426 454.10178,334.04801 C 450.32601,333.00176 448.94646,326.02816 451.03053,318.46394 C 453.11039,310.90394 457.86491,305.61364 461.64491,306.65989 C 465.43334,307.69769 466.80444,314.67551 464.72459,322.23971"
       style="font-size:16px;font-style:normal;font-variant:normal;font-weight:normal;font-stretch:normal;text-align:start;line-height:125%;writing-mode:lr-tb;text-anchor:start;fill:#aa0000;fill-opacity:1;fill-rule:nonzero;stroke:none;font-family:Calibri;-inkscape-font-specification:Calibri"
       id="path511" />
    <path
       d="M 492.46709,249.79114 C 492.46709,254.50346 488.80944,258.31721 484.29539,258.31721 C 479.78976,258.31721 476.13209,254.50346 476.13209,249.79114 C 476.13209,245.09144 479.78976,241.26926 484.29539,241.26926 C 488.80944,241.26926 492.46709,245.09144 492.46709,249.79114"
       style="font-size:16px;font-style:normal;font-variant:normal;font-weight:normal;font-stretch:normal;text-align:start;line-height:125%;writing-mode:lr-tb;text-anchor:start;fill:#d40000;fill-opacity:1;fill-rule:nonzero;stroke:none;font-family:Calibri;-inkscape-font-specification:Calibri"
       id="path513" />
    <path
       d="M 544.67414,255.59191 C 544.67414,260.30426 541.01646,264.11801 536.50241,264.11801 C 531.99678,264.11801 528.33914,260.30426 528.33914,255.59191 C 528.33914,250.89221 531.99678,247.07003 536.50241,247.07003 C 541.01646,247.07003 544.67414,250.89221 544.67414,255.59191"
       style="font-size:16px;font-style:normal;font-variant:normal;font-weight:normal;font-stretch:normal;text-align:start;line-height:125%;writing-mode:lr-tb;text-anchor:start;fill:#d40000;fill-opacity:1;fill-rule:nonzero;stroke:none;font-family:Calibri;-inkscape-font-specification:Calibri"
       id="path515" />
    <path
       d="M 484.16459,358.95128 C 481.98771,365.25832 477.81959,369.53614 474.84959,368.50676 C 471.88382,367.48159 471.25101,361.54159 473.42789,355.23878 C 475.60476,348.94441 479.77709,344.66239 482.74289,345.68753 C 485.70866,346.71269 486.34569,352.65269 484.16459,358.95128"
       style="font-size:16px;font-style:normal;font-variant:normal;font-weight:normal;font-stretch:normal;text-align:start;line-height:125%;writing-mode:lr-tb;text-anchor:start;fill:#d40000;fill-opacity:1;fill-rule:nonzero;stroke:none;font-family:Calibri;-inkscape-font-specification:Calibri"
       id="path517" />
    <path
       d="M 392.04819,383.36096 C 392.04819,390.03082 386.47944,395.43082 379.61976,395.43082 C 372.75584,395.43082 367.19132,390.03082 367.19132,383.36096 C 367.19132,376.69114 372.75584,371.28691 379.61976,371.28691 C 386.47944,371.28691 392.04819,376.69114 392.04819,383.36096"
       style="font-size:16px;font-style:normal;font-variant:normal;font-weight:normal;font-stretch:normal;text-align:start;line-height:125%;writing-mode:lr-tb;text-anchor:start;fill:#d40000;fill-opacity:1;fill-rule:nonzero;stroke:none;font-family:Calibri;-inkscape-font-specification:Calibri"
       id="path519" />
    <path
       d="M 338.77803,382.65221 C 338.77803,388.54159 333.37803,393.30034 326.70819,393.30034 C 320.04257,393.30034 314.63414,388.54159 314.63414,382.65221 C 314.63414,376.76707 320.04257,371.99989 326.70819,371.99989 C 333.37803,371.99989 338.77803,376.76707 338.77803,382.65221"
       style="font-size:16px;font-style:normal;font-variant:normal;font-weight:normal;font-stretch:normal;text-align:start;line-height:125%;writing-mode:lr-tb;text-anchor:start;fill:#aa0000;fill-opacity:1;fill-rule:nonzero;stroke:none;font-family:Calibri;-inkscape-font-specification:Calibri"
       id="path521" />
    <path
       d="M 517.75007,363.12364 C 517.75007,369.20284 515.53101,374.13034 512.78459,374.13034 C 510.03819,374.13034 507.81069,369.20284 507.81069,363.12364 C 507.81069,357.04019 510.03819,352.11269 512.78459,352.11269 C 515.53101,352.11269 517.75007,357.04019 517.75007,363.12364"
       style="font-size:16px;font-style:normal;font-variant:normal;font-weight:normal;font-stretch:normal;text-align:start;line-height:125%;writing-mode:lr-tb;text-anchor:start;fill:#d40000;fill-opacity:1;fill-rule:nonzero;stroke:none;font-family:Calibri;-inkscape-font-specification:Calibri"
       id="path523" />
    <path
       d="M 548.01959,380.19691 C 546.76664,385.33957 543.89366,389.05628 541.61132,388.49096 C 539.32476,387.93409 538.48521,383.31457 539.74664,378.17191 C 541.00382,373.02926 543.87678,369.31253 546.16334,369.86941 C 548.44569,370.43471 549.28101,375.05003 548.01959,380.19691"
       style="font-size:16px;font-style:normal;font-variant:normal;font-weight:normal;font-stretch:normal;text-align:start;line-height:125%;writing-mode:lr-tb;text-anchor:start;fill:#aa0000;fill-opacity:1;fill-rule:nonzero;stroke:none;font-family:Calibri;-inkscape-font-specification:Calibri"
       id="path525" />
    <path
       d="M 596.58584,402.53941 C 596.58584,407.24332 593.56101,411.05707 589.84007,411.05707 C 586.11491,411.05707 583.09007,407.24332 583.09007,402.53941 C 583.09007,397.82707 586.11491,394.00909 589.84007,394.00909 C 593.56101,394.00909 596.58584,397.82707 596.58584,402.53941"
       style="font-size:16px;font-style:normal;font-variant:normal;font-weight:normal;font-stretch:normal;text-align:start;line-height:125%;writing-mode:lr-tb;text-anchor:start;fill:#aa0000;fill-opacity:1;fill-rule:nonzero;stroke:none;font-family:Calibri;-inkscape-font-specification:Calibri"
       id="path527" />
    <path
       d="M 681.67803,431.76269 C 679.48851,437.22176 672.83976,439.69394 666.83226,437.28082 C 660.82476,434.87191 657.73664,428.48471 659.93039,423.02566 C 662.11991,417.57082 668.76444,415.09441 674.77194,417.51176 C 680.77944,419.92066 683.87178,426.30784 681.67803,431.76269"
       style="font-size:16px;font-style:normal;font-variant:normal;font-weight:normal;font-stretch:normal;text-align:start;line-height:125%;writing-mode:lr-tb;text-anchor:start;fill:#d40000;fill-opacity:1;fill-rule:nonzero;stroke:none;font-family:Calibri;-inkscape-font-specification:Calibri"
       id="path529" />
    <path
       d="M 792.05741,424.90721 C 792.05741,430.78816 788.03271,435.56378 783.06726,435.56378 C 778.09757,435.56378 774.07709,430.78816 774.07709,424.90721 C 774.07709,419.01364 778.09757,414.23801 783.06726,414.23801 C 788.03271,414.23801 792.05741,419.01364 792.05741,424.90721"
       style="font-size:16px;font-style:normal;font-variant:normal;font-weight:normal;font-stretch:normal;text-align:start;line-height:125%;writing-mode:lr-tb;text-anchor:start;fill:#aa0000;fill-opacity:1;fill-rule:nonzero;stroke:none;font-family:Calibri;-inkscape-font-specification:Calibri"
       id="path531" />
    <path
       d="M 873.15866,361.35596 C 873.15866,366.78551 869.50521,371.18144 865.00382,371.18144 C 860.50241,371.18144 856.85319,366.78551 856.85319,361.35596 C 856.85319,355.93066 860.50241,351.53471 865.00382,351.53471 C 869.50521,351.53471 873.15866,355.93066 873.15866,361.35596"
       style="font-size:16px;font-style:normal;font-variant:normal;font-weight:normal;font-stretch:normal;text-align:start;line-height:125%;writing-mode:lr-tb;text-anchor:start;fill:#d40000;fill-opacity:1;fill-rule:nonzero;stroke:none;font-family:Calibri;-inkscape-font-specification:Calibri"
       id="path533" />
    <path
       d="M 891.13476,405.44614 C 889.00428,410.69003 884.50709,413.81614 881.08569,412.42394 C 877.66007,411.03596 876.60959,405.66128 878.74007,400.41739 C 880.85789,395.17769 885.35928,392.05159 888.78491,393.44378 C 892.21476,394.83596 893.26521,400.20644 891.13476,405.44614"
       style="font-size:16px;font-style:normal;font-variant:normal;font-weight:normal;font-stretch:normal;text-align:start;line-height:125%;writing-mode:lr-tb;text-anchor:start;fill:#d40000;fill-opacity:1;fill-rule:nonzero;stroke:none;font-family:Calibri;-inkscape-font-specification:Calibri"
       id="path535" />
    <path
       d="M 951.21396,393.71801 C 951.40803,396.48128 947.99084,402.95284 938.92476,403.42114 C 933.04382,403.72066 930.14553,398.01691 929.94303,395.24941 C 929.74896,392.49034 933.75678,388.74832 939.62928,388.32221 C 945.50178,387.90457 951.01569,390.95894 951.21396,393.71801"
       style="font-size:16px;font-style:normal;font-variant:normal;font-weight:normal;font-stretch:normal;text-align:start;line-height:125%;writing-mode:lr-tb;text-anchor:start;fill:#aa0000;fill-opacity:1;fill-rule:nonzero;stroke:none;font-family:Calibri;-inkscape-font-specification:Calibri"
       id="path537" />
    <path
       d="M 1007.9857,387.11989 C 1005.6527,391.10239 1001.3285,392.90801 998.34584,391.15301 C 995.35896,389.40221 994.83164,384.74471 997.18146,380.76644 C 999.51444,376.77971 1003.8302,374.98253 1006.8213,376.73332 C 1009.804,378.49253 1010.3313,383.13316 1007.9857,387.11989"
       style="font-size:16px;font-style:normal;font-variant:normal;font-weight:normal;font-stretch:normal;text-align:start;line-height:125%;writing-mode:lr-tb;text-anchor:start;fill:#aa0000;fill-opacity:1;fill-rule:nonzero;stroke:none;font-family:Calibri;-inkscape-font-specification:Calibri"
       id="path539" />
    <path
       d="M 1063.0488,352.79614 C 1061.9182,356.90941 1058.4673,359.55878 1055.3496,358.69394 C 1052.232,357.83753 1050.6288,353.80019 1051.7595,349.68691 C 1052.8943,345.56941 1056.341,342.92846 1059.4629,343.78066 C 1062.5806,344.64128 1064.1879,348.67441 1063.0488,352.79614"
       style="font-size:16px;font-style:normal;font-variant:normal;font-weight:normal;font-stretch:normal;text-align:start;line-height:125%;writing-mode:lr-tb;text-anchor:start;fill:#d40000;fill-opacity:1;fill-rule:nonzero;stroke:none;font-family:Calibri;-inkscape-font-specification:Calibri"
       id="path541" />
    <path
       d="M 1109.3623,284.43971 C 1109.3623,288.93691 1106.831,292.58614 1103.7134,292.58614 C 1100.5999,292.58614 1098.0729,288.93691 1098.0729,284.43971 C 1098.0729,279.92989 1100.5999,276.28066 1103.7134,276.28066 C 1106.831,276.28066 1109.3623,279.92989 1109.3623,284.43971"
       style="font-size:16px;font-style:normal;font-variant:normal;font-weight:normal;font-stretch:normal;text-align:start;line-height:125%;writing-mode:lr-tb;text-anchor:start;fill:#d40000;fill-opacity:1;fill-rule:nonzero;stroke:none;font-family:Calibri;-inkscape-font-specification:Calibri"
       id="path543" />
    <path
       d="M 1104.5571,226.31378 C 1105.3334,232.03441 1103.089,237.06316 1099.541,237.54832 C 1096.0015,238.02926 1092.4957,233.78519 1091.7195,228.06034 C 1090.9432,222.34394 1093.1876,217.31519 1096.7356,216.83426 C 1100.2751,216.34909 1103.7809,220.59316 1104.5571,226.31378"
       style="font-size:16px;font-style:normal;font-variant:normal;font-weight:normal;font-stretch:normal;text-align:start;line-height:125%;writing-mode:lr-tb;text-anchor:start;fill:#d40000;fill-opacity:1;fill-rule:nonzero;stroke:none;font-family:Calibri;-inkscape-font-specification:Calibri"
       id="path545" />
    <path
       d="M 265.88226,381.51739 C 265.88226,387.49957 261.81959,392.35957 256.82039,392.35957 C 251.80428,392.35957 247.75007,387.49957 247.75007,381.51739 C 247.75007,375.53519 251.80428,370.68364 256.82039,370.68364 C 261.81959,370.68364 265.88226,375.53519 265.88226,381.51739"
       style="font-size:16px;font-style:normal;font-variant:normal;font-weight:normal;font-stretch:normal;text-align:start;line-height:125%;writing-mode:lr-tb;text-anchor:start;fill:#aa0000;fill-opacity:1;fill-rule:nonzero;stroke:none;font-family:Calibri;-inkscape-font-specification:Calibri"
       id="path547" />
    <path
       d="M 234.92084,406.94801 C 234.92084,412.80784 229.28039,417.56659 222.31944,417.56659 C 215.36271,417.56659 209.71803,412.80784 209.71803,406.94801 C 209.71803,401.08816 215.36271,396.33364 222.31944,396.33364 C 229.28039,396.33364 234.92084,401.08816 234.92084,406.94801"
       style="font-size:16px;font-style:normal;font-variant:normal;font-weight:normal;font-stretch:normal;text-align:start;line-height:125%;writing-mode:lr-tb;text-anchor:start;fill:#aa0000;fill-opacity:1;fill-rule:nonzero;stroke:none;font-family:Calibri;-inkscape-font-specification:Calibri"
       id="path549" />
    <path
       d="M 268.88601,424.38409 C 266.29991,428.23582 261.65507,429.64909 258.51209,427.54394 C 255.36491,425.43457 254.91351,420.59989 257.49539,416.74394 C 260.08569,412.88801 264.73053,411.47471 267.87351,413.58409 C 271.01646,415.69346 271.46789,420.52816 268.88601,424.38409"
       style="font-size:16px;font-style:normal;font-variant:normal;font-weight:normal;font-stretch:normal;text-align:start;line-height:125%;writing-mode:lr-tb;text-anchor:start;fill:#aa0000;fill-opacity:1;fill-rule:nonzero;stroke:none;font-family:Calibri;-inkscape-font-specification:Calibri"
       id="path551" />
    <path
       d="M 293.74709,416.90003 C 293.74709,421.17364 291.56601,424.64144 288.87444,424.64144 C 286.19132,424.64144 284.01444,421.17364 284.01444,416.90003 C 284.01444,412.62644 286.19132,409.15864 288.87444,409.15864 C 291.56601,409.15864 293.74709,412.62644 293.74709,416.90003"
       style="font-size:16px;font-style:normal;font-variant:normal;font-weight:normal;font-stretch:normal;text-align:start;line-height:125%;writing-mode:lr-tb;text-anchor:start;fill:#aa0000;fill-opacity:1;fill-rule:nonzero;stroke:none;font-family:Calibri;-inkscape-font-specification:Calibri"
       id="path553" />
    <path
       d="M 318.08928,425.27426 C 316.97976,430.15957 313.08164,433.43332 309.39444,432.58957 C 305.69882,431.75003 303.61053,427.10941 304.72428,422.22832 C 305.83803,417.34301 309.73616,414.06503 313.42757,414.90878 C 317.11476,415.75253 319.20726,420.38894 318.08928,425.27426"
       style="font-size:16px;font-style:normal;font-variant:normal;font-weight:normal;font-stretch:normal;text-align:start;line-height:125%;writing-mode:lr-tb;text-anchor:start;fill:#aa0000;fill-opacity:1;fill-rule:nonzero;stroke:none;font-family:Calibri;-inkscape-font-specification:Calibri"
       id="path555" />
    <path
       d="M 347.87789,422.46034 C 347.27039,428.40457 343.52834,432.89753 339.51209,432.48832 C 335.50851,432.07066 332.75366,426.91534 333.36116,420.96691 C 333.97289,415.01426 337.71914,410.52128 341.72694,410.93051 C 345.73476,411.34394 348.48959,416.50346 347.87789,422.46034"
       style="font-size:16px;font-style:normal;font-variant:normal;font-weight:normal;font-stretch:normal;text-align:start;line-height:125%;writing-mode:lr-tb;text-anchor:start;fill:#d40000;fill-opacity:1;fill-rule:nonzero;stroke:none;font-family:Calibri;-inkscape-font-specification:Calibri"
       id="path557" />
    <path
       d="M 388.38632,428.61971 C 388.38632,433.50082 384.32366,437.46221 379.32021,437.46221 C 374.30834,437.46221 370.25834,433.50082 370.25834,428.61971 C 370.25834,423.73441 374.30834,419.77301 379.32021,419.77301 C 384.32366,419.77301 388.38632,423.73441 388.38632,428.61971"
       style="font-size:16px;font-style:normal;font-variant:normal;font-weight:normal;font-stretch:normal;text-align:start;line-height:125%;writing-mode:lr-tb;text-anchor:start;fill:#d40000;fill-opacity:1;fill-rule:nonzero;stroke:none;font-family:Calibri;-inkscape-font-specification:Calibri"
       id="path559" />
    <path
       d="M 217.84757,361.67659 C 217.84757,367.13989 213.25757,371.56534 207.58757,371.56534 C 201.91334,371.56534 197.31491,367.13989 197.31491,361.67659 C 197.31491,356.21753 201.91334,351.80051 207.58757,351.80051 C 213.25757,351.80051 217.84757,356.21753 217.84757,361.67659"
       style="font-size:16px;font-style:normal;font-variant:normal;font-weight:normal;font-stretch:normal;text-align:start;line-height:125%;writing-mode:lr-tb;text-anchor:start;fill:#aa0000;fill-opacity:1;fill-rule:nonzero;stroke:none;font-family:Calibri;-inkscape-font-specification:Calibri"
       id="path561" />
    <path
       d="M 819.51303,334.16614 C 804.70944,334.40239 812.48459,360.51644 814.59396,367.70941 M 822.64334,375.76301 C 826.79039,377.72894 829.55366,379.34471 831.69678,374.43409 C 833.30834,370.75114 832.60382,365.36801 832.47726,361.37284 C 832.24944,354.08707 831.11882,342.34628 825.76944,336.84926 M 817.27289,345.34582 C 817.27289,353.72003 818.31914,358.88378 821.30178,366.37207 M 822.64334,347.58596 C 825.66819,351.93128 825.32646,356.35253 825.32646,361.45301"
       style="font-size:16px;font-style:normal;font-variant:normal;font-weight:normal;font-stretch:normal;text-align:start;line-height:125%;writing-mode:lr-tb;text-anchor:start;fill:none;stroke:#000000;stroke-width:3.1640625;stroke-linecap:round;stroke-linejoin:round;stroke-miterlimit:4;stroke-dasharray:none;stroke-opacity:1;font-family:Calibri;-inkscape-font-specification:Calibri"
       id="path569" />
    <path
       d="m 582.86226,210.72128 c 0.26577,-3.02062 1.8014,-6.28594 2.4089,-9.35296 0.31641,-1.62 0.43875,-3.09236 0.55476,-7.07274 0.16665,-5.08992 -0.50835,-7.63382 -0.71508,-10.30851 m 17.95923,25.91577 c 1.5525,-2.23593 1.32469,-6.45468 1.84359,-9.18 0.25735,-1.3542 0.12235,-2.0292 0.41976,-5.75647 -0.5421,-4.64696 -1.37741,-7.02634 -1.20866,-9.2243 m 11.39483,25.18171 c 1.43437,-3.59014 0.30375,-8.61469 1.20446,-14.81835 0.33539,-4.47399 0.14554,-6.76054 0.14554,-8.91634 m 22.11469,25.9833 c 1.22343,-1.96173 1.05891,-5.78393 1.27406,-8.11688 0.16032,-1.79719 0.35437,-3.58173 0.99985,-7.75196 0.45142,-5.31352 1.27407,-7.81946 1.78032,-10.61648 m 11.4539,28.72546 c 0,-4.98657 -0.28688,-9.06187 0.61383,-16.35186 0.002,-4.84314 0.0101,-7.05376 0.3396,-9.35298 m 17.62173,30.80952 c -0.42188,-2.58187 0.92389,-6.22687 1.06312,-8.9817 0.097,-1.87312 0.59907,-3.83485 1.75079,-8.13375 0.58641,-4.62375 0.8353,-7.45875 1.70016,-9.33187 m -56.75907,16.65139 c 0.0169,-2.59032 1.11796,-5.07514 1.22764,-7.70344 0.0633,-1.70015 -0.35857,-3.79688 0.0253,-7.48616 0.10547,-4.62586 0.66655,-8.62947 -0.17297,-11.02149 m 37.69452,32.53922 c 0,-4.725 -0.79733,-9.39515 0.96611,-16.6936 0.11812,-3.70405 1.00826,-5.81765 1.25719,-7.59374 0.16875,-1.215 0.2742,-2.3625 0.50202,-3.55641 m -35.78345,21.92062 c -0.96607,-3.0375 0.15188,-9.28546 1.05892,-14.81624 -0.23201,-4.96547 -0.16031,-10.06595 -0.16031,-12.47063 m 36.45,34.02423 c 1.08844,-3.83486 0.80577,-9.59345 2.33086,-16.23586 1.07366,-4.35587 1.02303,-6.59602 1.29303,-8.69275 0.17298,-1.28671 0.7847,-2.35407 1.01673,-3.56484 m -37.50468,21.96702 c 0.25733,-2.8603 0.70031,-5.71639 0.97875,-8.54295 0.10125,-1.05469 0.0886,-2.11782 0.72773,-5.72485 0.0738,-6.16359 0.41133,-9.3825 0.41133,-12.7322 m -35.17173,25.56563 c 0.46407,-2.10938 1.52719,-5.77125 1.79298,-8.56406 0.135,-1.40907 -0.0717,-2.79282 0.39444,-6.51796 -0.22569,-4.77986 -0.2721,-7.62329 -0.63069,-9.85923 m -11.75766,24.73875 c 1.46812,-1.96593 0.78048,-5.23968 1.20235,-7.59375 0.2742,-1.54827 0.84375,-3.15983 1.76976,-7.34483 0.46614,-5.71642 -0.65601,-8.66532 -0.69399,-11.66907 m 2.20641,26.60765 c 2.46797,-3.07125 1.58202,-7.93125 2.75695,-14.41124 0.30587,-5.43796 0.32697,-7.88064 0.0991,-10.32751 m 39.79548,27.39235 c 0.3164,-4.19766 2.34983,-8.49655 2.25491,-15.05039 0.20461,-5.82398 1.98915,-9.31711 2.01867,-12.62884 m 29.19375,34.00736 c 0.0464,-2.90673 0.945,-5.82188 1.62844,-8.5725 0.41343,-1.62843 0.62016,-3.55218 1.92586,-7.45032 0.66868,-5.32406 0.93445,-8.34468 1.7993,-10.93922 m 85.54359,55.78031 c -0.22782,-6.11295 -6.29437,-11.0742 -6.85546,-17.40233 m 29.53125,20.5664 c -3.94454,-3.10922 -2.85423,-11.4539 -2.68126,-16.34765 m -15.24842,12.1289 c -1.0758,-4.81359 -2.61143,-9.8297 -3.16407,-14.76563 m 11.07421,15.82031 c -0.74671,-4.94438 -2.41312,-9.82125 -3.16407,-14.76563"
       style="font-style:normal;font-variant:normal;font-weight:normal;font-stretch:normal;font-size:16px;line-height:125%;font-family:Calibri;-inkscape-font-specification:Calibri;text-align:start;writing-mode:lr-tb;text-anchor:start;fill:#008080;stroke:#008080;stroke-width:2.10938;stroke-linecap:round;stroke-linejoin:round;stroke-miterlimit:4;stroke-dasharray:none;stroke-opacity:1"
       id="path597"
       sodipodi:nodetypes="ccccscccccccccccccsccccccccccscccccccscccscccsccccccccccccccccccccc" />
  </g>
</svg>
