<?xml version="1.0" encoding="UTF-8" standalone="no"?>
<!-- Created with Inkscape (http://www.inkscape.org/) -->
<svg xmlns:dc="http://purl.org/dc/elements/1.1/" xmlns:cc="http://creativecommons.org/ns#" xmlns:rdf="http://www.w3.org/1999/02/22-rdf-syntax-ns#" xmlns:svg="http://www.w3.org/2000/svg" xmlns="http://www.w3.org/2000/svg" xmlns:sodipodi="http://sodipodi.sourceforge.net/DTD/sodipodi-0.dtd" xmlns:inkscape="http://www.inkscape.org/namespaces/inkscape" id="svg4330" version="1.1" inkscape:version="0.91 r13725" width="847.5" height="196.875" viewBox="0 0 847.5 196.875" sodipodi:docname="PiCreatures_plain.svg">
  <metadata id="metadata4336">
    <rdf:RDF>
      <cc:Work rdf:about="">
        <dc:format>image/svg+xml</dc:format>
        <dc:type rdf:resource="http://purl.org/dc/dcmitype/StillImage"/>
        <dc:title/>
      </cc:Work>
    </rdf:RDF>
  </metadata>
  <defs id="defs4334"/>
  <sodipodi:namedview pagecolor="#ffffff" bordercolor="#666666" borderopacity="1" objecttolerance="10" gridtolerance="10" guidetolerance="10" inkscape:pageopacity="0" inkscape:pageshadow="2" inkscape:window-width="1855" inkscape:window-height="1056" id="namedview4332" showgrid="false" inkscape:zoom="2" inkscape:cx="533.36234" inkscape:cy="147.10116" inkscape:window-x="65" inkscape:window-y="24" inkscape:window-maximized="1" inkscape:current-layer="layer1"/>
  <g inkscape:groupmode="layer" id="layer1" inkscape:label="Layer 1" style="display:inline">
    <path style="display:inline;opacity:1;fill:#0000ff;fill-opacity:1;stroke:none;stroke-width:2;stroke-linecap:round;stroke-miterlimit:4;stroke-dasharray:none;stroke-opacity:1" d="m 462.81807,58.272831 -0.78069,0.1652 c -0.21472,0.04543 -0.43664,0.107881 -0.61993,0.172298 -0.18328,0.06442 -0.3283,0.130649 -0.39167,0.182962 -0.2083,0.17198 -0.18717,0.196776 0.22115,0.258452 0.31768,0.04797 0.5833,0.218958 0.74249,0.436966 0.0398,0.05451 0.0729,0.111246 0.0986,0.170525 0.0772,0.178037 0.086,0.372549 0.005,0.551541 -0.24009,0.526908 -0.81088,0.6932 -1.24519,0.363254 -0.28636,-0.217585 -0.34348,-0.366041 -0.32151,-0.833971 0.0197,-0.420459 -0.0318,-0.578311 -0.20517,-0.472499 -0.0348,0.02124 -0.074,0.05354 -0.11901,0.09592 -0.0897,0.08445 -0.20112,0.210533 -0.33661,0.379243 -1.19102,1.483061 -0.64923,3.777016 1.10131,4.663677 0.24589,0.124547 0.48636,0.218463 0.72384,0.281544 0.23748,0.06307 0.47188,0.09499 0.70608,0.09681 0.46839,0.0032 0.93582,-0.115689 1.42193,-0.357925 0.22747,-0.113356 0.42767,-0.238576 0.60483,-0.379243 0.0888,-0.07047 0.17115,-0.144619 0.24868,-0.22381 0.0774,-0.07901 0.14956,-0.162422 0.21671,-0.251349 0.2686,-0.355702 0.45938,-0.795192 0.60128,-1.35887 l 0.22559,-0.89792 c -0.69142,-1.118866 -1.4204,-2.203172 -2.57752,-2.893597 l -1.00183,-0.453842 c -0.82943,-0.370571 -2.23826,-0.684764 -3.06945,-0.684764 l 4e-5,1.91e-4 c -0.33764,0 -1.03345,0.08851 -1.54627,0.197172 -0.17353,0.03674 -0.34425,0.08051 -0.51246,0.127894 -0.0626,0.01769 -0.12388,0.0377 -0.18563,0.05684 -0.10472,0.03229 -0.20839,0.06669 -0.31085,0.103025 -0.0761,0.02719 -0.15178,0.055 -0.22648,0.08437 -0.0693,0.02706 -0.13699,0.05634 -0.20516,0.08526 -0.0953,0.0407 -0.19139,0.08103 -0.28421,0.125229 -1.42284,0.677775 -2.54855,1.762922 -3.29237,3.061453 -0.0464,0.08224 -0.0933,0.164404 -0.13678,0.248679 -0.0206,0.03933 -0.0414,0.07847 -0.0613,0.118126 -0.3264,0.660896 -0.56325,1.380765 -0.69542,2.146658 -0.0723,0.419237 -0.10802,0.823158 -0.11457,1.221208 -9.1e-4,0.155396 0.002,0.310956 0.0106,0.467165 4.5e-4,0.0098 10e-4,0.01955 0.002,0.02933 0.0228,0.373112 0.0762,0.748017 0.15631,1.12173 0.0267,0.118381 0.052,0.236589 0.0853,0.35526 0.007,0.02751 0.0146,0.05509 0.0222,0.0826 0.18484,0.630569 0.46211,1.268446 0.83752,1.939722 l 0.0968,0.17319 c 0.34315,0.503403 0.64734,0.552973 1.43347,0.478711 0.49653,-0.04691 3.15817,-0.08569 5.91508,-0.08615 l 5.01272,-9.1e-4 0.39967,-0.551541 c 0.24708,-0.371148 0.58822,-1.115969 0.76825,-1.68127 4.6e-4,-0.0014 0.001,-0.0032 0.002,-0.0045 0.0659,-0.207595 0.12084,-0.425858 0.16697,-0.650123 0.0952,-0.465706 0.14885,-0.957367 0.16253,-1.450352 0.007,-0.246488 0.003,-0.493995 -0.01,-0.73805 -7e-5,-0.0014 6e-5,-0.0023 0,-0.0036 -0.005,-0.09257 -0.0187,-0.181893 -0.0267,-0.273549 -0.0129,-0.149657 -0.0223,-0.300774 -0.0426,-0.446739 -0.0655,-0.470721 -0.17002,-0.918606 -0.31085,-1.317125 -0.0704,-0.199263 -0.15021,-0.386227 -0.23892,-0.557761 l -0.22203,-0.429864" id="path5633" inkscape:connector-curvature="0" sodipodi:nodetypes="ccsccccccscccscccccscccccccccccccccccccccccccscccccccccccccc"/>
    <path style="display:inline;opacity:1;fill:#0000ff;fill-opacity:1;stroke:none;stroke-width:2;stroke-linecap:round;stroke-miterlimit:4;stroke-dasharray:none;stroke-opacity:1" d="m 484.87163,58.339249 -0.74234,-0.366396 c -0.8925,-0.411929 -1.84848,-0.620779 -2.80655,-0.644798 l -2e-5,-5e-5 c -0.13687,-0.0036 -0.27355,-0.0032 -0.41033,9.09e-4 -0.4377,0.01301 -0.87376,0.06345 -1.30292,0.150985 -1.93121,0.393922 -3.71738,1.525197 -4.82532,3.237308 -0.46104,0.712462 -0.79484,1.489518 -0.99916,2.293204 l 0,9.1e-4 c -0.11749,0.477328 -0.19048,0.974356 -0.22027,1.497421 -0.02,0.352132 -0.0185,0.687743 0.004,1.015155 0.01,0.128567 0.0227,0.256656 0.0391,0.384568 0.002,0.02037 0.005,0.04097 0.007,0.06128 0.0188,0.138175 0.0429,0.275095 0.0693,0.412102 0.006,0.03306 0.0116,0.06646 0.0186,0.09947 0.0185,0.08982 0.0421,0.179069 0.064,0.268219 0.029,0.113615 0.0563,0.227385 0.0915,0.34105 0.002,0.0056 0.004,0.01123 0.005,0.01687 0.15548,0.497605 0.37114,0.999125 0.65368,1.529394 l 0.0737,0.137661 c 0.41256,0.690898 0.73787,0.807415 1.58269,0.724731 0.44243,-0.04329 3.09834,-0.07904 5.90264,-0.07904 l 4.79957,0 c 0.16665,-0.02569 0.26828,-0.05391 0.3073,-0.08793 0.0484,-0.04225 0.0978,-0.09712 0.14743,-0.157206 l 0.25579,-0.403216 c 0.0547,-0.08625 0.10489,-0.176628 0.15542,-0.267338 0.30797,-0.616126 0.58992,-1.438411 0.76026,-2.217709 0.13942,-0.797197 0.16348,-1.628808 0.0693,-2.423763 -0.0987,-0.670886 -0.263,-1.346605 -0.47516,-1.842023 -0.0761,-0.177637 -0.1469,-0.312352 -0.2096,-0.404108 -0.0311,-0.04547 -0.0599,-0.08052 -0.087,-0.104802 0,0 -0.0772,-0.106844 -0.45386,-0.754061 -0.37663,-0.647217 -1.4834,-1.601946 -2.47365,-2.418806 z" id="path5629" inkscape:connector-curvature="0" sodipodi:nodetypes="cccccssccccccccccccccscccccccccczc"/>
    <path style="opacity:1;fill:#000000;fill-opacity:1;stroke:none;stroke-width:2;stroke-linecap:round;stroke-miterlimit:4;stroke-dasharray:none;stroke-opacity:1" d="m 463.19557,58.417791 c -0.90533,-0.06093 -0.91521,-0.03097 -1.15815,0.02042 -0.21473,0.04543 -0.43664,0.107881 -0.61993,0.172298 -0.18328,0.06442 -0.32831,0.13065 -0.39167,0.182962 -0.2083,0.17198 -0.18717,0.196777 0.22115,0.258452 0.31767,0.04797 0.5833,0.218959 0.74249,0.436967 0.0398,0.0545 0.0729,0.111245 0.0986,0.170524 0.0773,0.178038 0.0859,0.37255 0.005,0.551541 -0.24008,0.526909 -0.81087,0.6932 -1.24519,0.363255 -0.28636,-0.217585 -0.34347,-0.366042 -0.32151,-0.833971 0.0197,-0.42046 -0.0318,-0.578311 -0.20516,-0.4725 -0.0348,0.02124 -0.074,0.05354 -0.11901,0.09592 -0.0897,0.08445 -0.20113,0.210532 -0.33661,0.379242 -1.19103,1.483062 -0.64924,3.777017 1.1013,4.663678 0.21208,0.107412 0.4197,0.186963 0.62526,0.248679 0.27857,0.07738 0.56618,0.117403 0.85529,0.119013 0.13789,-0.0018 0.27553,-0.01205 0.4121,-0.0311 0.31541,-0.05183 0.63291,-0.153581 0.95921,-0.31618 0.22747,-0.113356 0.42767,-0.238576 0.60483,-0.379243 0.0888,-0.07047 0.17115,-0.144618 0.24868,-0.22381 0.0774,-0.07901 0.14956,-0.162422 0.21671,-0.251349 0.2686,-0.355701 0.45938,-0.795192 0.60128,-1.35887 0.006,0 0.10048,-0.589179 0.009,-1.389627 -0.0915,-0.800448 -1.39771,-2.345394 -2.30304,-2.406328 z" id="path5895" inkscape:connector-curvature="0" sodipodi:nodetypes="ccsccccccsccccccccccsczzc"/>
    <path style="opacity:1;fill:#000000;fill-opacity:1;stroke:none;stroke-width:2;stroke-linecap:round;stroke-miterlimit:4;stroke-dasharray:none;stroke-opacity:1" d="m 484.70568,58.292562 c -0.563,0.160043 -1.16215,0.226452 -1.6811,0.514539 -0.0766,0.443196 0.80742,0.128776 0.95634,0.57667 0.39062,0.429208 0.15032,1.183283 -0.40823,1.326051 -0.61745,0.266137 -1.16332,-0.461504 -1.01036,-1.035295 0.17255,-0.191043 0.17887,-0.799111 -0.16332,-0.4512 -1.32111,1.061133 -1.50028,3.291407 -0.30086,4.512374 0.89198,0.966671 2.41147,1.356241 3.61482,0.753288 1.01621,-0.462082 1.86414,-1.463303 1.86899,-2.618466 0.24526,-1.109521 -0.33825,-2.260996 -1.21533,-2.927279 -0.47849,-0.365574 -1.05885,-0.603513 -1.66095,-0.650682 z" id="circle5897" inkscape:connector-curvature="0"/>
    <path style="fill:#27a9df" d="m 465.07045,69.414869 -0.004,0.0053 -5.01272,9.09e-4 c -2.75691,4.55e-4 -5.41855,0.03924 -5.91508,0.08615 -0.35095,0.03315 -0.60301,0.03847 -0.80821,-0.0071 l -0.84197,0 c -0.42761,0.03142 -3.44122,0.05595 -7.20645,0.05595 -7.72015,0 -9.04365,0.07053 -11.45358,0.606609 -6.83086,1.519499 -13.84222,6.780196 -20.01092,15.014181 -4.69051,6.26089 -9.59202,14.315374 -9.59202,15.762002 0,1.05239 0.87607,1.63153 2.46906,1.63153 1.54225,0 1.80814,-0.24487 4.33861,-3.982468 1.8966,-2.801354 3.92475,-5.265152 6.21261,-7.547497 2.96576,-2.958615 5.21971,-4.649185 8.27756,-6.208173 2.74114,-1.397512 5.1274,-2.177602 8.16832,-2.670664 1.95005,-0.31619 18.20075,-0.466011 18.30833,-0.168752 0.11813,0.326398 -3.53313,12.372387 -6.03054,19.895454 -5.48591,16.5255 -13.7335,36.73368 -22.74286,55.72699 -2.34707,4.94802 -2.29098,4.78798 -2.28255,6.61672 0.006,1.29808 0.06,1.70432 0.31618,2.3536 1.08687,2.75462 4.18513,4.16277 7.57681,3.44424 2.57551,-0.54562 4.41888,-2.18613 5.9808,-5.32091 0.7189,-1.44282 1.60765,-3.91065 2.55343,-7.09365 0.46819,-1.57566 1.3103,-4.33816 1.87134,-6.13889 1.54782,-4.96804 2.64594,-8.88115 3.93539,-14.02301 3.03858,-12.11668 14.16166,-55.298027 14.28323,-55.448998 0.10809,-0.13421 2.83695,-0.170525 12.81246,-0.170525 10.85504,0 12.6845,0.0286 12.74851,0.195394 0.0411,0.107122 -0.60169,3.038089 -1.42904,6.513694 -4.55799,19.147595 -6.4888,29.024065 -7.58302,38.787295 -1.56436,13.95781 -0.93335,27.69973 1.62976,35.48871 1.33596,4.05987 3.12894,6.44581 5.36975,7.14517 3.80633,1.18796 9.07092,-2.09753 10.17909,-6.35205 0.43919,-1.68615 0.20339,-3.23776 -0.83575,-5.49854 -1.13616,-2.47184 -2.47433,-6.57331 -3.44691,-10.56455 -1.71934,-7.05585 -2.74532,-14.7604 -3.1556,-23.69762 -0.33858,-7.37553 0.4595,-18.15544 2.13156,-28.784062 0.44246,-2.812604 1.99548,-10.860945 2.40867,-12.48295 l 0.17407,-0.682099 14.59675,-0.07727 c 12.8632,-0.06815 14.70292,-0.103325 15.49288,-0.299305 3.82485,-0.948896 5.6582,-2.899268 5.94795,-6.327182 0.0936,-1.107288 -0.11491,-2.430229 -0.50357,-3.192011 -0.27539,-0.539877 -1.12906,-1.367746 -1.7319,-1.679492 -0.2129,-0.1101 -0.75358,-0.310769 -1.20167,-0.445852 -0.76136,-0.229513 -1.8851,-0.24878 -17.15106,-0.289538 -10.26061,-0.02742 -15.76203,-0.08483 -16.2425,-0.16786 l -0.83131,0 0,-0.0036 -4.76492,0 c -2.8043,0 -5.46021,0.03574 -5.90265,0.07904 -0.40116,0.03929 -0.68294,0.03129 -0.91479,-0.05951 l -0.69098,0 c -0.2479,0.07614 -1.77842,0.116348 -4.51891,0.116348 -2.51354,0 -4.44964,-0.101887 -4.57042,-0.108353 -0.11289,-0.0092 -0.30955,-0.03288 -0.40766,-0.03288 z" id="path5696" inkscape:connector-curvature="0"/>
    <path style="fill:#000000;fill-opacity:1" d="m 464.59174,77.400225 5.79785,0 5.79784,0 0.0435,0.532006 c 0.0273,0.333219 -0.024,0.574182 -0.13678,0.645684 -0.099,0.06276 -2.71377,0.115198 -5.81116,0.116348 -4.7118,0.0018 -5.64395,-0.02883 -5.70548,-0.189178 -0.0404,-0.105407 -0.0542,-0.397359 -0.0302,-0.648349 l 0.0444,-0.456511 z" id="path5893" inkscape:connector-curvature="0"/>
  </g>
</svg>