<?xml version="1.0" encoding="UTF-8" standalone="no"?>
<svg
   version="1.1"
   id="Layer_1"
   x="0px"
   y="0px"
   viewBox="0 0 480 480"
   style="enable-background:new 0 0 480 480;"
   xml:space="preserve"
   sodipodi:docname="Bubbles_thought_high.svg"
   inkscape:version="1.1.2 (b8e25be833, 2022-02-05)"
   xmlns:inkscape="http://www.inkscape.org/namespaces/inkscape"
   xmlns:sodipodi="http://sodipodi.sourceforge.net/DTD/sodipodi-0.dtd"
   xmlns="http://www.w3.org/2000/svg"
   xmlns:svg="http://www.w3.org/2000/svg"
   xmlns:rdf="http://www.w3.org/1999/02/22-rdf-syntax-ns#"
   xmlns:cc="http://creativecommons.org/ns#"
   xmlns:dc="http://purl.org/dc/elements/1.1/"><metadata
   id="metadata862"><rdf:RDF><cc:Work
       rdf:about=""><dc:format>image/svg+xml</dc:format><dc:type
         rdf:resource="http://purl.org/dc/dcmitype/StillImage" /></cc:Work></rdf:RDF></metadata><defs
   id="defs860" /><sodipodi:namedview
   pagecolor="#000000"
   bordercolor="#666666"
   borderopacity="1"
   objecttolerance="10"
   gridtolerance="10"
   guidetolerance="10"
   inkscape:pageopacity="0"
   inkscape:pageshadow="2"
   inkscape:window-width="1920"
   inkscape:window-height="1017"
   id="namedview858"
   showgrid="false"
   inkscape:zoom="1.4229167"
   inkscape:cx="101.55197"
   inkscape:cy="295.87115"
   inkscape:window-x="-8"
   inkscape:window-y="-8"
   inkscape:window-maximized="1"
   inkscape:current-layer="Layer_1"
   inkscape:pagecheckerboard="0" />
<style
   type="text/css"
   id="style847">
	.st0{fill:#FFFFFF;stroke:#000000;stroke-miterlimit:10;}
	.st1{fill:none;stroke:#000000;stroke-miterlimit:10;}
</style>
<circle
   class="st1"
   cx="98.82196"
   cy="76.140564"
   r="22.6"
   id="circle849"
   style="stroke:#ffffff" />
<circle
   class="st1"
   cx="51.360764"
   cy="55.981876"
   r="13.2"
   id="circle851"
   style="stroke:#ffffff" />
<circle
   class="st1"
   cx="19.557978"
   cy="62.926228"
   r="7"
   id="circle853"
   style="fill:none;stroke:#ffffff" />
<path
   class="st1"
   d="m 339.48082,48.494436 c 3,-1 6.4,-1.9 9.7,-1.9 16.8,0 30.4,13.6 30.4,30.4 0,1.9 -0.2,3.7 -0.5,5.5 v 0 c 10.8,4.5 21,16.2 20.5,28.600004 -0.4,9.1 -1.2,18.8 -11.3,27.7 v 0 c 8.5,6.8 8.7,29.6 4.7,39 -4.1,9.7 -11.8,19.6 -33.4,27.2 -8.2,19.4 -30.1,35.7 -52.4,35.7 -9.6,0 -18.9,-2.5 -26.7,-6.9 v 0 c -8.1,5.6 -17.7,8.8 -28.3,8.8 -18.9,0 -35.8,-10.6 -44.4,-26 v 0 c -22.5,0 -45.3,-15.3 -49.5,-36.6 v 0 c -19.2,-5.7 -33.1,-23.4 -33.1,-44.5 0,-9.7 2.9,-18.7 8,-26.2 v 0 c -2.7,-5.5 -4.2,-11.800004 -4.2,-18.300004 0,-21.9 17.3,-40 38.8,-41.6 v 0 c 7.3,-14.6 22.4,-24.7 39.9,-24.7 4.8,0 9.3,0.7 13.6,2.1 v 0 c 7.6,-8.3 18.7,-13.5 30.9,-13.5 12.8,0 24.2,5.7 31.9,14.8 v 0 c 6,-4.7 13.6,-7.6 21.7,-7.6 16.9,0.2 30.4,12 33.7,28 z"
   id="path855"
   style="fill:none;stroke:#ffffff" />
</svg>
