<?xml version="1.0" encoding="UTF-8" standalone="no"?>
<svg
   xml:space="preserve"
   style="enable-background:new -57 180.9 480 480;"
   viewBox="-57 180.9 480 480"
   y="0px"
   x="0px"
   sodipodi:docname="QuarterCreature_frustrated.svg"
   inkscape:version="1.1.2 (b8e25be833, 2022-02-05)"
   id="Layer_1"
   version="1.1"
   xmlns:inkscape="http://www.inkscape.org/namespaces/inkscape"
   xmlns:sodipodi="http://sodipodi.sourceforge.net/DTD/sodipodi-0.dtd"
   xmlns="http://www.w3.org/2000/svg"
   xmlns:svg="http://www.w3.org/2000/svg"
   xmlns:rdf="http://www.w3.org/1999/02/22-rdf-syntax-ns#"
   xmlns:cc="http://creativecommons.org/ns#"
   xmlns:dc="http://purl.org/dc/elements/1.1/">
  <metadata
   id="metadata5312">
    <rdf:RDF>
      <cc:Work
   rdf:about="">
        <dc:format>image/svg+xml</dc:format>
        <dc:type
   rdf:resource="http://purl.org/dc/dcmitype/StillImage" />
        
      </cc:Work>
    </rdf:RDF>
  </metadata>
  <defs
   id="defs5310" />
  <style
   id="style5297"
   type="text/css">
	.st0{fill:#FFFFFF;}
	.st1{fill:#4400FF;}
</style>
  <sodipodi:namedview
   inkscape:document-rotation="0"
   showguides="true"
   inkscape:snap-bbox-edge-midpoints="false"
   inkscape:window-x="-8"
   inkscape:window-maximized="1"
   inkscape:pageshadow="2"
   inkscape:window-height="1017"
   inkscape:window-width="1920"
   inkscape:window-y="-8"
   inkscape:current-layer="Layer_1"
   inkscape:pageopacity="0"
   inkscape:snap-bbox="true"
   inkscape:snap-global="true"
   inkscape:bbox-nodes="false"
   inkscape:snap-bbox-midpoints="false"
   inkscape:object-paths="true"
   inkscape:object-nodes="false"
   inkscape:snap-smooth-nodes="true"
   inkscape:snap-nodes="false"
   gridtolerance="10"
   guidetolerance="10"
   pagecolor="#000000"
   showgrid="false"
   borderopacity="1"
   objecttolerance="10"
   bordercolor="#666666"
   inkscape:cx="271.12499"
   inkscape:zoom="4.0000001"
   id="namedview17"
   inkscape:cy="258.24999"
   inkscape:pagecheckerboard="0" />
  <path
   style="opacity:1;vector-effect:none;fill:#ffffff;fill-opacity:1;fill-rule:evenodd"
   d="m 194.5,433.14999 c 0,7.1797 -5.8203,13 -13,13 -7.1797,0 -13,-5.8203 -13,-13 0,-7.1797 2.18135,-12.73415 9.72119,-9.6446 8.2032,3.36137 16.27881,2.4649 16.27881,9.6446 z"
   id="path83"
   inkscape:connector-curvature="0"
   sodipodi:nodetypes="sssss" />
  <path
   style="opacity:1;vector-effect:none;fill:#ffffff;fill-opacity:1;fill-rule:evenodd"
   d="m 221.25,432.39999 c 0,7.1797 -5.8203,13 -13,13 -7.1797,0 -13,-5.8203 -13,-13 0,-7.1797 -0.27721,-4.95969 11.05362,-8.94822 11.33083,-3.98853 14.94638,-2.48148 14.94638,8.94822 z"
   id="circle85"
   inkscape:connector-curvature="0"
   sodipodi:nodetypes="ssszs" />
  <path
   style="stroke-width:0.6561"
   d="m 180.00575,427.36957 c -0.43288,-0.73785 -1.31017,-1.03998 -2.07676,-0.66607 -0.76665,0.37395 -1.09889,1.33899 -0.72507,2.10554 0.37394,0.76659 1.33895,1.09883 2.10555,0.72506 0.76665,-0.37384 1.09886,-1.33898 0.6963,-2.16453 v 0 l 1.42371,1.42255 c 1.2368,2.53569 0.17946,5.60632 -2.35624,6.84306 -2.47677,1.20802 -5.60634,0.1795 -6.84307,-2.35623 -1.23671,-2.53574 -0.17947,-5.6063 2.35624,-6.84307 2.47673,-1.20798 5.60628,-0.17943 6.84307,2.35624"
   inkscape:connector-curvature="0"
   id="path8" />
  <path
   style="stroke-width:0.6561"
   d="m 207.24089,427.0612 c -0.48988,-0.70131 -1.3878,-0.93392 -2.12261,-0.50105 -0.73466,0.43337 -0.99025,1.42118 -0.55759,2.15591 0.43336,0.73463 1.4212,0.99023 2.15596,0.55759 0.73464,-0.43336 0.99025,-1.42123 0.5243,-2.21251 v 0 l 1.53095,1.30643 c 1.43196,2.43082 0.61879,5.57494 -1.81204,7.00684 -2.37431,1.39861 -5.57494,0.61874 -7.00684,-1.81205 -1.4319,-2.4309 -0.61875,-5.57494 1.81215,-7.00682 2.37429,-1.39861 5.57494,-0.6188 7.0068,1.81204"
   inkscape:connector-curvature="0"
   id="path10" />
  <g
   transform="translate(107.29919,196.70864)"
   id="page2"
   style="fill:#0000ff">
    <g
   transform="matrix(4.0989647,0,0,4.0989647,-84.44567,0)"
   id="a_quarter_note"
   style="fill:#0000ff">
      <path
   inkscape:connector-curvature="0"
   d="m 47.027964,37.966824 6.493646,1.99103 c 0,0 -5.168507,-0.392965 -4.530545,6.613564 C 49.176481,48.607785 52.7,66 52.7,66 h -1.5 c 0,0 -2.406078,-13.280943 -3.363918,-17.185971 -0.857122,-3.49441 -0.808118,-10.847205 -0.808118,-10.847205 z"
   id="path1314"
   sodipodi:nodetypes="ccsccsc"
   style="fill:#0000ff" />
      <path
   inkscape:connector-curvature="0"
   d="M 28.3,76.1 C 25.5,71.3 28.134054,64.217027 34.534054,60.517027 40.934054,56.817027 48.8,57.7 51.6,62.5 54.4,67.3 51.4,74.2 45,78 38.6,81.7 31.1,80.9 28.3,76.1 Z"
   id="path1316"
   style="fill:#0000ff"
   sodipodi:nodetypes="ssscs" />
    </g>
  </g>
  <path
   style="fill:#ffffff"
   d="m 165.34423,470.84604 c 8.62487,3.37056 6.18096,-0.44245 13.94733,-0.78033 7.76638,-0.33788 6.51073,0.11025 9.55267,0.44058 l -0.2,-4.29775 c -6.22932,-2.48081 -6.4339,0.2169 -11.8,0.3 0,0 -6.90333,1.22985 -10.925,0.16919"
   class="st0"
   inkscape:connector-curvature="0"
   id="path14"
   sodipodi:nodetypes="czccsc" />
<rect
   style="opacity:1;fill:#000000;fill-opacity:0;stroke:#ff00ff;stroke-width:0;stroke-linecap:square;stroke-linejoin:round;stroke-miterlimit:4;stroke-dasharray:none;stroke-opacity:0;paint-order:markers stroke fill"
   id="rect5117"
   width="104.6518"
   height="329.51175"
   x="133.91884"
   y="196.33086"
   ry="0" /></svg>
