<?xml version="1.0" encoding="UTF-8" standalone="no"?>
<svg
   xmlns:dc="http://purl.org/dc/elements/1.1/"
   xmlns:cc="http://creativecommons.org/ns#"
   xmlns:rdf="http://www.w3.org/1999/02/22-rdf-syntax-ns#"
   xmlns:svg="http://www.w3.org/2000/svg"
   xmlns="http://www.w3.org/2000/svg"
   xmlns:sodipodi="http://sodipodi.sourceforge.net/DTD/sodipodi-0.dtd"
   xmlns:inkscape="http://www.inkscape.org/namespaces/inkscape"
   version="1.1"
   id="Layer_1"
   inkscape:version="1.0beta1 (32d4812, 2019-09-19)"
   sodipodi:docname="TrebleCreature_pondering.svg"
   x="0px"
   y="0px"
   viewBox="-57 180.9 480 480"
   style="enable-background:new -57 180.9 480 480;"
   xml:space="preserve">
  <metadata
   id="metadata5312">
    <rdf:RDF>
      <cc:Work
   rdf:about="">
        <dc:format>image/svg+xml</dc:format>



        <dc:type
   rdf:resource="http://purl.org/dc/dcmitype/StillImage" />



      <dc:title />

</cc:Work>



    </rdf:RDF>



  </metadata>



  <defs
   id="defs5310" />



  <style
   type="text/css"
   id="style5297">
	.st0{fill:#FFFFFF;}
	.st1{fill:#4400FF;}
</style>



  <sodipodi:namedview
   inkscape:cy="89.81319"
   id="namedview17"
   inkscape:zoom="11.313709"
   inkscape:cx="239.91695"
   bordercolor="#666666"
   objecttolerance="10"
   borderopacity="1"
   showgrid="false"
   pagecolor="#ffffff"
   guidetolerance="10"
   gridtolerance="10"
   inkscape:snap-nodes="false"
   inkscape:snap-smooth-nodes="true"
   inkscape:object-nodes="false"
   inkscape:object-paths="true"
   inkscape:snap-bbox-midpoints="false"
   inkscape:bbox-nodes="false"
   inkscape:snap-global="true"
   inkscape:snap-bbox="true"
   inkscape:pageopacity="0"
   inkscape:current-layer="Layer_1"
   inkscape:window-y="0"
   inkscape:window-width="1280"
   inkscape:window-height="778"
   inkscape:pageshadow="2"
   inkscape:window-maximized="1"
   inkscape:window-x="0"
   inkscape:snap-bbox-edge-midpoints="false"
   showguides="true"
   inkscape:document-rotation="0" />



  <g
   id="page1"
   transform="matrix(6.2810622,0,0,6.2810622,31.904535,215.82942)">
    <g
   id="g1876"
   transform="matrix(1.010278,0,0,1.010278,-24.38602,-0.986803)">
      <path
   sodipodi:nodetypes="csssssssssczasssssssc"
   id="path1947"
   d="m 39.708934,63.678683 c -0.39184,2.091967 1.790672,6.436378 6.18165,6.578301 5.308336,0.171574 8.699737,-3.889078 7.119749,-10.516109 L 45.086538,23.171517 c -0.943257,-4.353257 -0.235257,-6.71442 0.268403,-8.121572 1.343735,-3.754196 4.700881,-5.3026408 5.518193,-4.100737 0.466629,0.686205 1.594908,3.894798 -1.616859,9.641613 -2.504897,4.482014 -14.15929,10.359317 -15.014575,20.87719 -0.740418,9.146238 8.833989,15.90129 17.097566,13.245729 5.48642,-1.763101 6.285766,-9.368161 4.695926,-14.607618 -2.053016,-6.765892 -4.864456,-2.651583 -4.202035,-14.502755 -5.414089,6.497706 -4.581715,7.230804 -4.019534,9.323211 0.562181,2.092407 9.30657,10.511133 6.48087,15.260772 -2.297743,3.862212 -9.214152,5.109973 -13.420224,1.290083 -3.523416,-3.199912 -5.086882,-9.364202 -1.165942,-13.789545 5.310504,-5.993665 11.80332,-8.365556 13.468602,-16.57048 C 55.146178,11.414821 52.670024,2.3226822 45.654782,7.8228927 42.494689,10.300523 42.557016,16.803074 43.863006,22.963534 l 7.917543,37.347681 c 0.566837,2.673813 0.187362,6.353204 -2.308175,8.044259 -1.236187,0.83768 -5.61059,1.414194 -6.680799,-0.585382"
   style="fill:#000000;fill-opacity:1;fill-rule:nonzero;stroke:#000000;stroke-width:0.1;stroke-linecap:butt;stroke-linejoin:miter;stroke-miterlimit:4;stroke-dasharray:none;stroke-opacity:1"
   inkscape:connector-curvature="0" />



      <ellipse
   transform="matrix(-1.08512,-0.02036848,0.02036848,-1.08512,90.68868,135.0572)"
   id="path4608"
   style="fill:#000000;fill-opacity:1;stroke:#000000;stroke-width:0.09213948;stroke-miterlimit:4;stroke-dasharray:none;stroke-opacity:1"
   cx="44.809425"
   cy="64.584198"
   rx="3.439605"
   ry="3.4987047" />



    </g>



  </g>


<path
   sodipodi:nodetypes="csssc"
   inkscape:connector-curvature="0"
   d="m 191.90158,246.66094 c 0,7.02944 -3.94848,8.47792 -10.97792,8.47792 -7.02944,0 -14.47792,-1.44848 -14.47792,-8.47792 0,-7.02944 8.44848,-8.72792 15.47792,-8.72792 7.02944,0 9.97792,1.69848 9.97792,8.72792"
   style="font-variation-settings:normal;opacity:1;vector-effect:none;fill:#ddc7a6;fill-opacity:1;fill-rule:evenodd;stroke-width:0.6561;stroke-linecap:butt;stroke-linejoin:miter;stroke-miterlimit:4;stroke-dasharray:none;stroke-dashoffset:0;stroke-opacity:1;stop-color:#000000;stop-opacity:1"
   id="path152" />
<path
   sodipodi:nodetypes="csssc"
   inkscape:connector-curvature="0"
   id="path1016"
   style="font-variation-settings:normal;opacity:1;vector-effect:none;fill:#ddc7a6;fill-opacity:1;fill-rule:evenodd;stroke-width:0.6561;stroke-linecap:butt;stroke-linejoin:miter;stroke-miterlimit:4;stroke-dasharray:none;stroke-dashoffset:0;stroke-opacity:1;stop-color:#000000;stop-opacity:1"
   d="m 218.06453,248.07515 c 0,7.02944 -5.94848,6.22792 -12.97792,6.22792 -7.02944,0 -12.47792,0.80152 -12.47792,-6.22792 0,-7.02944 9.44848,-12.22792 16.47792,-12.22792 7.02944,0 8.97792,5.19848 8.97792,12.22792" />
<path
   id="path8"
   inkscape:connector-curvature="0"
   d="m 185.7582,244.47345 c 0.0983,-0.84979 -0.42051,-1.61904 -1.25774,-1.78177 -0.83728,-0.16276 -1.68344,0.40799 -1.84619,1.24523 -0.16281,0.83726 0.40799,1.68342 1.24527,1.84619 0.83722,0.16281 1.68339,-0.40801 1.85866,-1.30965 v 0 l 0.28099,1.9929 c -0.53831,2.76941 -3.23064,4.5854 -6.00004,4.04708 -2.70501,-0.52579 -4.5854,-3.23062 -4.04707,-6.00002 0.53836,-2.7694 3.23061,-4.5854 6.00002,-4.04709 2.705,0.5258 4.58539,3.23064 4.04709,6.00003"
   style="stroke-width:0.6561" />



  <path
   id="path10"
   inkscape:connector-curvature="0"
   d="m 210.51554,242.51464 c 0.0164,-0.85529 -0.57375,-1.57127 -1.42275,-1.65298 -0.84905,-0.0812 -1.63658,0.5674 -1.71833,1.41642 -0.0812,0.84908 0.56748,1.63655 1.41645,1.71837 0.84909,0.0812 1.6366,-0.56753 1.72463,-1.48181 v 0 l 0.47071,1.95681 c -0.27036,2.80825 -2.77627,4.87394 -5.58452,4.60354 -2.74295,-0.26409 -4.87392,-2.77631 -4.60352,-5.58454 0.27045,-2.80822 2.77628,-4.87393 5.58452,-4.6035 2.74294,0.26408 4.87396,2.77627 4.60352,5.5845"
   style="stroke-width:0.6561" />



  
  <path
   sodipodi:nodetypes="ccccac"
   id="path14"
   inkscape:connector-curvature="0"
   class="st0"
   d="m 173.63223,265.62252 c 4.4,0 4.32843,1.24905 13.72843,1.14905 8.3,-0.1 10,-0.1 12.6,-0.3 l -0.2,-3.9 c -3,0.1 -7.86678,0.4042 -11.8,0.3 -4.88945,-0.12953 -8.97157,-5.21491 -14.62843,-1.14905"
   style="fill:#ffffff" />



</svg>
